M48
;Layer_Color=9474304
;FILE_FORMAT=2:5
INCH,LZ
;TYPE=PLATED
T01F00S00C0.00787
T02F00S00C0.01181
T03F00S00C0.01968
T04F00S00C0.03937
T05F00S00C0.04016
T06F00S00C0.04094
T07F00S00C0.12598
;TYPE=NON_PLATED
T08F00S00C0.02559
%
T01
X01042Y0024
X01137Y00904
X01125Y00933
X01107Y00959
X01105Y01
X01128Y0103
X01111Y01056
X0120552Y0112252
X01251Y01308
X01333Y01246
X00317Y01293
X00379Y01417
X01577Y01088
X01576Y01054
X0189117Y0099083
X01872Y00916
X02018Y00613
X02111Y00614
X023204Y006096
X02323Y00534
X02348Y00428
X02361Y004
X02389Y00433
X02324Y00368
X02344Y00335
X02362Y00216
X02233Y00367
X0226Y0044
X021Y00365
X02016Y00438
X01702Y00195
Y00164
X01703Y00131
X03097Y00687
X03094Y00736
X03096Y00864
X03078Y00895
X03041Y00884
X031Y0093
X03079Y00957
X03077Y00994
X0311397Y01362
X03114Y01397
X03264Y01517
X03415Y0151
X03595Y015
X03831Y01518
X03828Y01424
X03827Y01365
X03724Y0112
X0374Y01042
X0375Y00994
X03737Y0094
X03646Y00929
X03541Y00942
X03537Y01031
X03582Y0111824
X03638Y0113
X03414Y00855
X03345Y00831
X03331Y00738
X03338Y00687
X03354Y01615
X01947Y01592
Y01775
X02007Y01766
X02009Y02555
X02031Y02591
X019045Y025915
X01776Y0259
X01734Y02526
X02269Y02499
X02163Y02739
X00377Y0197
X00253Y01864
X00317Y01671
X00249Y01609
T02
X0057Y0008
X00835Y00286
X00819Y00348
X00759Y00416
X01031Y00348
X0101Y00275
Y00205
X01265Y0008
X0143506Y002626
X0153Y00312
X01435Y00704
X0137199Y0068501
X01361Y0087
X01315Y00955
X01427Y00946
X01534Y00827
X01511Y01116
X01496Y01162
X01295Y01275
X01185Y0131
X01094Y00628
X00498Y01028
X00355Y013
X0042Y0142
X00336Y00348
X01635Y0035
X01665Y00226
X01756Y00135
X01909Y0022
X0192504Y0055396
X0191Y00705
X01841Y00714
X01785Y00705
X01627Y0073
X01648Y00826
X01582Y00925
X01627Y01026
X01612Y00526
X02265Y00485
X0230672Y0028972
X02324Y00135
X02553Y00175
X02603Y00266
X03036Y0017
X0306Y0065
X03055Y0077
X03345Y00775
X03309Y00895
X0330942Y0095942
X03485Y00955
X03461Y00991
X03435Y0089
X03205Y0043
X03308Y00269
X03273Y00173
X038Y0046
X03944Y00542
X03125Y01325
X03215Y0157
X0322Y01695
X03252Y01667
X03247Y0176
X0348264Y0182536
X03788Y02183
X0309771Y0211329
X02643Y02114
X0259Y02059
X02318Y02054
X02355Y02
X0226Y021
X02255Y01805
X02187Y01834
X02115Y0182
X02135Y01705
X02182Y01725
X0202
X0199Y01605
X01788Y01766
X01656Y01801
X01888Y01875
X01695Y0209
X01783Y02286
X01733Y02455
X0172Y02565
X01659Y02582
X01742Y02626
X01724Y02826
X02317Y02857
X0245153Y0274653
X0251896Y02507
X02333Y02359
X02145Y0238
X01975Y02385
Y02343
X0259Y01621
X0265Y01582
X0311842Y0158142
X00285Y01615
X00335Y01715
X003Y01875
X0042Y0199
X00467Y0242
X00269
X0026676Y0248076
X0019504Y0255896
X0024Y02615
X0035
X00345Y02561
X00293Y02354
X0007Y02541
T03
X03867Y01221
X03946Y01241
X03964Y01597
T04
X0063976Y00685
X0073819
X0083662
X0093504
T05
X0017064Y011716
Y012716
Y013716
Y014716
Y015716
Y016716
Y017716
Y018716
Y019716
Y020716
Y021716
Y022716
Y023716
Y024716
T06
X0388564Y016716
Y017716
Y018716
Y019716
T07
X0017Y00167
X03857Y00168
X0386487Y028
X0019004
T08
X0191882Y0027004
X0214638
Y0269744
X0191882
M30
