G04*
G04 #@! TF.GenerationSoftware,Altium Limited,Altium Designer,25.3.2 (17)*
G04*
G04 Layer_Physical_Order=1*
G04 Layer_Color=255*
%FSLAX25Y25*%
%MOIN*%
G70*
G04*
G04 #@! TF.SameCoordinates,ED342856-191B-4412-B6D1-68AB9B2CBA59*
G04*
G04*
G04 #@! TF.FilePolarity,Positive*
G04*
G01*
G75*
%ADD16C,0.01000*%
%ADD18R,0.06102X0.05118*%
%ADD19R,0.05136X0.05733*%
%ADD20C,0.06000*%
%ADD21R,0.03937X0.03937*%
%ADD22R,0.02362X0.01378*%
%ADD23R,0.01378X0.02362*%
%ADD24R,0.01181X0.04528*%
%ADD25R,0.02362X0.04528*%
%ADD26R,0.08583X0.07874*%
G04:AMPARAMS|DCode=27|XSize=35.43mil|YSize=68.9mil|CornerRadius=1.95mil|HoleSize=0mil|Usage=FLASHONLY|Rotation=180.000|XOffset=0mil|YOffset=0mil|HoleType=Round|Shape=RoundedRectangle|*
%AMROUNDEDRECTD27*
21,1,0.03543,0.06500,0,0,180.0*
21,1,0.03154,0.06890,0,0,180.0*
1,1,0.00390,-0.01577,0.03250*
1,1,0.00390,0.01577,0.03250*
1,1,0.00390,0.01577,-0.03250*
1,1,0.00390,-0.01577,-0.03250*
%
%ADD27ROUNDEDRECTD27*%
G04:AMPARAMS|DCode=28|XSize=125.98mil|YSize=68.9mil|CornerRadius=2.07mil|HoleSize=0mil|Usage=FLASHONLY|Rotation=180.000|XOffset=0mil|YOffset=0mil|HoleType=Round|Shape=RoundedRectangle|*
%AMROUNDEDRECTD28*
21,1,0.12598,0.06476,0,0,180.0*
21,1,0.12185,0.06890,0,0,180.0*
1,1,0.00413,-0.06093,0.03238*
1,1,0.00413,0.06093,0.03238*
1,1,0.00413,0.06093,-0.03238*
1,1,0.00413,-0.06093,-0.03238*
%
%ADD28ROUNDEDRECTD28*%
%ADD29R,0.05433X0.03622*%
%ADD30R,0.03543X0.05906*%
%ADD31R,0.05906X0.03543*%
%ADD32R,0.03543X0.03543*%
%ADD33R,0.04724X0.04724*%
G04:AMPARAMS|DCode=34|XSize=65.24mil|YSize=24.1mil|CornerRadius=12.05mil|HoleSize=0mil|Usage=FLASHONLY|Rotation=180.000|XOffset=0mil|YOffset=0mil|HoleType=Round|Shape=RoundedRectangle|*
%AMROUNDEDRECTD34*
21,1,0.06524,0.00000,0,0,180.0*
21,1,0.04114,0.02410,0,0,180.0*
1,1,0.02410,-0.02057,0.00000*
1,1,0.02410,0.02057,0.00000*
1,1,0.02410,0.02057,0.00000*
1,1,0.02410,-0.02057,0.00000*
%
%ADD34ROUNDEDRECTD34*%
%ADD35R,0.06524X0.02410*%
%ADD36R,0.03622X0.05433*%
%ADD37R,0.03937X0.03937*%
%ADD38R,0.04951X0.02766*%
G04:AMPARAMS|DCode=39|XSize=49.51mil|YSize=27.66mil|CornerRadius=13.83mil|HoleSize=0mil|Usage=FLASHONLY|Rotation=180.000|XOffset=0mil|YOffset=0mil|HoleType=Round|Shape=RoundedRectangle|*
%AMROUNDEDRECTD39*
21,1,0.04951,0.00000,0,0,180.0*
21,1,0.02185,0.02766,0,0,180.0*
1,1,0.02766,-0.01093,0.00000*
1,1,0.02766,0.01093,0.00000*
1,1,0.02766,0.01093,0.00000*
1,1,0.02766,-0.01093,0.00000*
%
%ADD39ROUNDEDRECTD39*%
%ADD40R,0.04331X0.04921*%
%ADD41R,0.05733X0.05136*%
%ADD42R,0.02766X0.04951*%
G04:AMPARAMS|DCode=43|XSize=49.51mil|YSize=27.66mil|CornerRadius=13.83mil|HoleSize=0mil|Usage=FLASHONLY|Rotation=270.000|XOffset=0mil|YOffset=0mil|HoleType=Round|Shape=RoundedRectangle|*
%AMROUNDEDRECTD43*
21,1,0.04951,0.00000,0,0,270.0*
21,1,0.02185,0.02766,0,0,270.0*
1,1,0.02766,0.00000,-0.01093*
1,1,0.02766,0.00000,0.01093*
1,1,0.02766,0.00000,0.01093*
1,1,0.02766,0.00000,-0.01093*
%
%ADD43ROUNDEDRECTD43*%
G04:AMPARAMS|DCode=44|XSize=97.53mil|YSize=16.81mil|CornerRadius=8.41mil|HoleSize=0mil|Usage=FLASHONLY|Rotation=90.000|XOffset=0mil|YOffset=0mil|HoleType=Round|Shape=RoundedRectangle|*
%AMROUNDEDRECTD44*
21,1,0.09753,0.00000,0,0,90.0*
21,1,0.08072,0.01681,0,0,90.0*
1,1,0.01681,0.00000,0.04036*
1,1,0.01681,0.00000,-0.04036*
1,1,0.01681,0.00000,-0.04036*
1,1,0.01681,0.00000,0.04036*
%
%ADD44ROUNDEDRECTD44*%
%ADD45R,0.01681X0.09753*%
G04:AMPARAMS|DCode=46|XSize=65.24mil|YSize=24.1mil|CornerRadius=12.05mil|HoleSize=0mil|Usage=FLASHONLY|Rotation=90.000|XOffset=0mil|YOffset=0mil|HoleType=Round|Shape=RoundedRectangle|*
%AMROUNDEDRECTD46*
21,1,0.06524,0.00000,0,0,90.0*
21,1,0.04114,0.02410,0,0,90.0*
1,1,0.02410,0.00000,0.02057*
1,1,0.02410,0.00000,-0.02057*
1,1,0.02410,0.00000,-0.02057*
1,1,0.02410,0.00000,0.02057*
%
%ADD46ROUNDEDRECTD46*%
%ADD47R,0.02410X0.06524*%
%ADD59C,0.02559*%
%ADD64C,0.25197*%
%ADD67C,0.00603*%
%ADD68C,0.01500*%
%ADD69C,0.02000*%
%ADD70C,0.03000*%
%ADD71R,0.04200X0.01500*%
%ADD72R,0.01500X0.04200*%
%ADD73C,0.05472*%
%ADD74R,0.05472X0.05472*%
%ADD75R,0.05394X0.05394*%
%ADD76C,0.05394*%
%ADD77R,0.05937X0.05937*%
%ADD78C,0.05937*%
%ADD79C,0.02756*%
%ADD80C,0.01968*%
G36*
X3400Y257800D02*
X37800D01*
Y249782D01*
X37525Y249565D01*
X34000Y250400D01*
X30700Y248200D01*
X25700D01*
X9700Y246100D01*
X3400Y243200D01*
X3200Y243000D01*
X2500Y243700D01*
Y256200D01*
Y257300D01*
X3200Y258000D01*
X3400Y257800D01*
D02*
G37*
G36*
X31500Y241500D02*
X33000Y243000D01*
X41043D01*
X41177Y242677D01*
X31000Y232500D01*
X27500D01*
Y233000D01*
X25000Y235500D01*
X24500Y235000D01*
X5000D01*
Y241000D01*
X5500Y241500D01*
X8000Y239000D01*
X22500D01*
X24500Y241000D01*
Y243500D01*
X29500D01*
X31500Y241500D01*
D02*
G37*
G36*
X246500Y238800D02*
Y227000D01*
X227400D01*
X227200Y226800D01*
X223300Y230700D01*
X208600D01*
Y231700D01*
X209400Y232500D01*
X209500Y232400D01*
X209700Y232600D01*
X227800D01*
X230600Y229800D01*
X231100Y230300D01*
X243300D01*
Y237300D01*
X238600Y242000D01*
X224100D01*
X223100Y243000D01*
Y245500D01*
X239800D01*
X246500Y238800D01*
D02*
G37*
G36*
X234504Y268347D02*
X234504Y268347D01*
X234504Y268347D01*
Y267996D01*
X241500Y261000D01*
X262000D01*
Y232000D01*
X262500Y231500D01*
X234500Y203500D01*
Y203000D01*
X233000D01*
X229500Y206500D01*
X253000Y230000D01*
X254500D01*
Y252500D01*
X256000Y254000D01*
X253500Y256500D01*
X234500D01*
X233000Y258000D01*
Y265500D01*
X231000Y267500D01*
X232000Y268500D01*
X234200D01*
X234504Y268347D01*
D02*
G37*
G36*
X326700Y179750D02*
Y172650D01*
X319400D01*
Y180150D01*
X325700D01*
X326000Y180450D01*
X326700Y179750D01*
D02*
G37*
G36*
X351600Y179500D02*
Y171700D01*
X348800D01*
X347900Y170800D01*
X347100Y171600D01*
Y183543D01*
X347423Y183677D01*
X351600Y179500D01*
D02*
G37*
G36*
X398500Y137700D02*
X398600Y137600D01*
X397200Y136200D01*
Y126900D01*
X393500D01*
X393100Y126500D01*
X392600Y127000D01*
Y156300D01*
X393600Y157300D01*
X398500D01*
Y137700D01*
D02*
G37*
G36*
X392100Y126700D02*
X391700Y126300D01*
X391500Y126500D01*
X387600D01*
Y136900D01*
X386300Y138200D01*
Y155100D01*
X387100Y155900D01*
X392100D01*
Y126700D01*
D02*
G37*
G36*
X377750Y110750D02*
X376500Y109500D01*
Y88000D01*
X357500D01*
X352500Y93000D01*
Y109000D01*
X356500Y113000D01*
X375500D01*
X377750Y110750D01*
D02*
G37*
G36*
X152500Y105000D02*
X152000D01*
X149000Y102000D01*
X138500D01*
Y93000D01*
X133500Y88000D01*
X128000D01*
Y106500D01*
X121500Y113000D01*
Y117500D01*
X152500D01*
Y105000D01*
D02*
G37*
G36*
X159400Y91300D02*
X167100D01*
Y84400D01*
X166900Y84200D01*
X153875D01*
X153633Y84453D01*
X153853Y89647D01*
X148400Y95100D01*
X148400Y97800D01*
X148323Y97877D01*
X148457Y98200D01*
X152500D01*
X159400Y91300D01*
D02*
G37*
G36*
X148858Y82942D02*
X151600Y80200D01*
X160200D01*
Y74900D01*
X158300Y73000D01*
X141500D01*
X140600Y73900D01*
Y81600D01*
X138000Y84200D01*
Y91200D01*
X141800D01*
X144640Y94040D01*
Y94360D01*
X146440D01*
X148858Y82942D01*
D02*
G37*
G36*
X95000Y84000D02*
Y57500D01*
X92500D01*
X92000Y57000D01*
X91500Y57500D01*
Y84000D01*
X93000D01*
X94000Y85000D01*
X95000Y84000D01*
D02*
G37*
G36*
X124500Y91000D02*
Y78649D01*
X122351Y76500D01*
X124500D01*
X126500Y74500D01*
Y66000D01*
X130500Y62000D01*
X163000D01*
X172300Y63000D01*
X187216Y67907D01*
X187500Y67702D01*
Y63000D01*
X178500Y54000D01*
Y50500D01*
X175500D01*
X174500Y51500D01*
Y57500D01*
X170500D01*
X168500Y59500D01*
X122000D01*
Y67500D01*
X117000Y72500D01*
X120000Y75500D01*
X114500D01*
X112000Y78000D01*
X105500D01*
Y82000D01*
X106500Y83000D01*
Y89000D01*
X121500D01*
X124000Y91500D01*
X124500Y91000D01*
D02*
G37*
G36*
X180000Y42000D02*
X182500D01*
X185298Y39202D01*
X193637Y38363D01*
X195616Y36384D01*
X193677Y34446D01*
X191921Y36202D01*
X183298D01*
X177297Y42202D01*
Y41203D01*
X175797Y39702D01*
X169798D01*
Y44703D01*
X168621Y45879D01*
X168755Y46202D01*
X175797D01*
X180000Y42000D01*
D02*
G37*
G36*
X86900Y30300D02*
Y24700D01*
X80300D01*
Y30800D01*
X86400D01*
X86900Y30300D01*
D02*
G37*
G36*
X333700Y28134D02*
Y23800D01*
X319200D01*
X318600Y24400D01*
X319200Y26400D01*
X333436Y28364D01*
X333700Y28134D01*
D02*
G37*
G36*
X156600Y32500D02*
Y25200D01*
X152900D01*
X149350Y23524D01*
X149000Y23651D01*
Y32800D01*
X155700D01*
X156000Y33100D01*
X156600Y32500D01*
D02*
G37*
G36*
X262000Y23300D02*
X250400D01*
X249800Y23900D01*
Y28600D01*
X262000D01*
Y23300D01*
D02*
G37*
D16*
X141653Y16657D02*
X142138Y17142D01*
X141653Y8000D02*
Y16657D01*
X39972Y17142D02*
X40347Y16767D01*
Y8000D02*
Y16767D01*
X366347Y35657D02*
X367146Y34858D01*
X366347Y35657D02*
Y46000D01*
X389400Y36400D02*
Y62202D01*
X387858Y34858D02*
X389400Y36400D01*
X346000Y51000D02*
X350000Y55000D01*
X302004Y51000D02*
X346000D01*
X295504Y44500D02*
X302004Y51000D01*
X384400Y55586D02*
Y62202D01*
X383814Y55000D02*
X384400Y55586D01*
X350000Y55000D02*
X383814D01*
X313500Y27000D02*
X313600Y27100D01*
Y34200D01*
X17064Y207500D02*
X19504D01*
X196900Y91600D02*
X219800Y68700D01*
X187200Y91600D02*
X196900D01*
X189117Y99083D02*
X193200Y95000D01*
X192004Y229000D02*
Y229298D01*
X196670Y233964D01*
X197164D01*
X197500Y234300D01*
X179004Y176804D02*
Y183500D01*
X178800Y176600D02*
X179004Y176804D01*
X7000Y247500D02*
Y254100D01*
X359500Y131200D02*
Y150000D01*
X326400Y151700D02*
X326600Y151900D01*
X167300Y151700D02*
X326400D01*
X340500Y155862D02*
X341504Y156866D01*
Y151004D02*
Y156866D01*
X163700Y146900D02*
X339900D01*
X341500Y151000D02*
X341504Y151004D01*
X137500Y181500D02*
X167300Y151700D01*
X157700Y108800D02*
X294900D01*
X157600Y105400D02*
X291900D01*
X118740Y137160D02*
X125100Y130800D01*
X12183Y136980D02*
X16884D01*
X12183Y136800D02*
X17083Y141700D01*
X20810Y124600D02*
X133300D01*
X187004Y173480D02*
X197580D01*
X200700Y176600D01*
X213598Y251760D02*
X214504D01*
X209300Y256058D02*
X213598Y251760D01*
X209300Y256058D02*
Y256300D01*
X208181Y257419D02*
X209300Y256300D01*
X208181Y257419D02*
Y265512D01*
X210150Y32909D02*
X223400Y46160D01*
Y53440D01*
X210150Y31236D02*
Y32909D01*
X379400Y62202D02*
Y63384D01*
X357283Y85500D02*
X379400Y63384D01*
X341400Y85500D02*
X357283D01*
X374400Y62202D02*
Y63384D01*
X367284Y70500D02*
X374400Y63384D01*
X363300Y70500D02*
X367284D01*
X357093Y76707D02*
X363300Y70500D01*
X340893Y76707D02*
X357093D01*
X334500Y83100D02*
X340893Y76707D01*
X137500Y181500D02*
Y191350D01*
X160244Y214094D01*
Y215000D01*
X83440Y227160D02*
X163700Y146900D01*
X339900D02*
X344400Y142400D01*
X338814Y142200D02*
X339400Y141614D01*
X160400Y142200D02*
X338814D01*
X85440Y217160D02*
X160400Y142200D01*
X339400Y131100D02*
Y141614D01*
X300549Y136900D02*
X323298Y114151D01*
X86340Y207160D02*
X156600Y136900D01*
X300549D01*
X17064Y207160D02*
X19504D01*
X86340D01*
X17144Y197080D02*
X37620D01*
X37700Y197000D01*
X17064Y197160D02*
X17144Y197080D01*
X17083Y141700D02*
X37900D01*
X7000Y136800D02*
X12183D01*
X16884Y136980D02*
X17064Y137160D01*
Y167160D02*
X17094Y167130D01*
X31670D02*
X31700Y167100D01*
X17094Y167130D02*
X31670D01*
X18250Y127160D02*
X29560D01*
X31700Y129300D01*
X17064Y127160D02*
X18250D01*
X17064Y137160D02*
X118740D01*
X17824Y186400D02*
X25300D01*
X17064Y187160D02*
X17824Y186400D01*
X7000Y167500D02*
X17064D01*
Y177160D02*
X17824Y176400D01*
X100600D02*
X145450Y131550D01*
X17824Y176400D02*
X100600D01*
X10400Y160900D02*
X24900D01*
X7000Y157500D02*
X10400Y160900D01*
X193200Y95000D02*
X204900D01*
X226300Y73600D01*
X309400D01*
X333100Y73800D02*
X348984D01*
X359400Y63384D01*
Y62202D02*
Y63384D01*
X18250Y127160D02*
X20810Y124600D01*
X219800Y68700D02*
X309700D01*
X333800D02*
X344083D01*
X349400Y63384D01*
Y62202D02*
Y63384D01*
X329400Y62202D02*
Y82400D01*
X346100Y99100D01*
X190590Y209900D02*
X202600D01*
X190004Y215500D02*
X190134Y215370D01*
X202600Y209900D02*
X210404Y217704D01*
X190134Y210355D02*
Y215370D01*
Y210355D02*
X190590Y209900D01*
X367146Y34858D02*
X387858D01*
X358494Y108069D02*
Y111268D01*
X358200Y111562D02*
Y111824D01*
Y111562D02*
X358494Y111268D01*
X313600Y34200D02*
X322444D01*
X322504Y34260D01*
X369400Y129919D02*
Y131100D01*
X331236Y91755D02*
X369400Y129919D01*
X331236Y89836D02*
Y91755D01*
X330900Y89500D02*
X331236Y89836D01*
X364400Y129919D02*
Y131100D01*
X331278Y96797D02*
X364400Y129919D01*
X331278Y96278D02*
Y96797D01*
X330942Y95942D02*
X331278Y96278D01*
X294900Y108800D02*
X307900Y95800D01*
Y95700D02*
Y95800D01*
X291900Y105400D02*
X307800Y89500D01*
X354400Y152996D02*
X388564Y187160D01*
X354400Y131100D02*
Y152996D01*
X313714Y58900D02*
X314300Y59486D01*
Y82300D01*
X240200Y40000D02*
X259100Y58900D01*
X313714D01*
X314300Y82300D02*
X319880Y87880D01*
X323207D01*
X324479Y89151D01*
X244500Y36800D02*
X262400Y54700D01*
X317900D01*
X232400Y36800D02*
X244500D01*
X317900Y54700D02*
X319000Y55800D01*
Y79853D01*
X323298Y84151D01*
X324479D01*
X20604Y120700D02*
X289800D01*
X17064Y117160D02*
X20604Y120700D01*
X289800D02*
X316349Y94151D01*
X324479D01*
X116640Y147160D02*
X139500Y124300D01*
X291500D02*
X316649Y99151D01*
X139500Y124300D02*
X291500D01*
X17064Y147160D02*
X116640D01*
X316649Y99151D02*
X324479D01*
X318249Y104151D02*
X324479D01*
X294900Y127500D02*
X318249Y104151D01*
X142700Y127500D02*
X294900D01*
X319749Y109151D02*
X324479D01*
X154600Y131400D02*
X297500D01*
X319749Y109151D01*
X7004Y207500D02*
X17064D01*
X323298Y114151D02*
X324479D01*
X373515Y94185D02*
X373700Y94000D01*
X372378Y94185D02*
X373515D01*
X369518Y97045D02*
X372378Y94185D01*
X364600Y92900D02*
Y93162D01*
X364006Y93756D02*
X364600Y93162D01*
X364006Y93756D02*
Y97045D01*
X354100Y94200D02*
X354259Y94359D01*
X355809D01*
X358494Y97045D01*
X353700Y103100D02*
X353962D01*
X354505Y102557D01*
X358494D01*
X363800Y108275D02*
Y113000D01*
Y108275D02*
X364006Y108069D01*
X372215Y111815D02*
X372400Y112000D01*
X372215Y110765D02*
Y111815D01*
X369518Y108069D02*
X372215Y110765D01*
X372357Y102557D02*
X374000Y104200D01*
X369518Y102557D02*
X372357D01*
X374130Y99585D02*
X374815D01*
X366948Y99615D02*
X374100D01*
X364006Y102557D02*
X366948Y99615D01*
X374100D02*
X374130Y99585D01*
X374815D02*
X375000Y99400D01*
X17064Y217160D02*
X85440D01*
X7000Y217500D02*
X17064D01*
X344400Y131100D02*
Y142400D01*
X359400Y131100D02*
X359500Y131200D01*
X379400Y131100D02*
Y157996D01*
X388564Y167160D01*
X7000Y117500D02*
X17064D01*
X7000Y157500D02*
X17064D01*
X7000Y147500D02*
X17064D01*
Y227160D02*
X83440D01*
X7000Y227500D02*
X17064D01*
X192504Y215500D02*
Y219536D01*
X195004Y215500D02*
Y219536D01*
X174900Y207000D02*
X209626D01*
X205886Y196047D02*
Y203514D01*
X180004Y196498D02*
Y200534D01*
X183570Y204100D01*
X205300D02*
X205886Y203514D01*
X183570Y204100D02*
X205300D01*
X177504Y195841D02*
Y196498D01*
X185004Y182311D02*
Y196498D01*
X179004Y183500D02*
Y183798D01*
X182504Y187298D01*
Y196498D01*
X177164Y195500D02*
X177504Y195841D01*
X169764Y195500D02*
X177164D01*
X162244Y170138D02*
Y195500D01*
X194700Y177500D02*
Y183956D01*
X194744Y184906D02*
X205886Y196047D01*
X194700Y183956D02*
X194744Y184000D01*
Y184906D01*
X194561Y159061D02*
X194700Y159200D01*
X178744Y159061D02*
X189461D01*
X189500Y159100D01*
X189461Y159061D02*
X194561D01*
X162244Y170138D02*
X171264Y161118D01*
Y159061D02*
Y161118D01*
X185004Y182311D02*
X186315Y181000D01*
X187004D01*
X190140Y221900D02*
X192504Y219536D01*
X218386Y198240D02*
X220443D01*
X209626Y207000D02*
X218386Y198240D01*
X169764Y201864D02*
X174900Y207000D01*
X192004Y222536D02*
X195004Y219536D01*
X169764Y195500D02*
Y201864D01*
X189771Y254571D02*
X196370Y261170D01*
Y265512D01*
X192504Y229500D02*
Y238000D01*
X192004Y229000D02*
X192504Y229500D01*
X210404Y217704D02*
Y225300D01*
X193815Y40929D02*
X195071D01*
X198339Y37661D01*
X192504Y42240D02*
X193815Y40929D01*
X142138Y17142D02*
X152602D01*
X153004Y16740D02*
X153344Y16400D01*
X152602Y17142D02*
X153004Y16740D01*
X84409Y16480D02*
X91929Y24000D01*
X83504Y16480D02*
X84409D01*
X91929Y24000D02*
X104200D01*
X110700Y17003D02*
X110839Y17142D01*
X198339Y31236D02*
Y37661D01*
X110839Y17142D02*
X142138D01*
X153344Y16400D02*
X170200D01*
X154500Y131500D02*
X154600Y131400D01*
X145450Y131500D02*
X154500D01*
X113040Y157160D02*
X142700Y127500D01*
X145450Y131500D02*
Y131550D01*
X263784Y34260D02*
X264382Y34858D01*
X295681D01*
X335354D02*
X366654D01*
X334756Y34260D02*
X335354Y34858D01*
X322504Y34260D02*
X334756D01*
X175100Y233700D02*
X179400Y238000D01*
X184984D01*
X175100Y223400D02*
Y233700D01*
X168264Y215500D02*
X177504D01*
X175100Y223400D02*
X176600Y221900D01*
X167764Y215000D02*
X168264Y215500D01*
X176600Y221900D02*
X190140D01*
X185315Y254571D02*
X189771D01*
X71000Y16870D02*
X71272Y17142D01*
X110700Y7100D02*
Y17003D01*
X83304Y87500D02*
X83504Y87300D01*
X63976Y68500D02*
X63990Y68486D01*
Y53514D02*
Y68486D01*
X73662Y68657D02*
X73819Y68500D01*
X63990Y53514D02*
X64004Y53500D01*
X63976Y87213D02*
X64004Y87240D01*
Y94760D02*
Y103000D01*
X73504Y87500D02*
X83304D01*
X64004Y103000D02*
X79604D01*
X54004Y95000D02*
X63764D01*
X64004Y94760D01*
X73504Y87500D02*
X73662Y87343D01*
X71933Y16480D02*
X83504D01*
X73662Y68657D02*
Y87343D01*
X63976Y68500D02*
Y87213D01*
X71272Y17142D02*
X71933Y16480D01*
X71000Y7000D02*
Y16870D01*
X39972Y17142D02*
X71272D01*
X236100Y40000D02*
X240200D01*
X253004Y34260D02*
X263784D01*
X192004Y222536D02*
Y229000D01*
X17064Y157160D02*
X113040D01*
D18*
X142138Y17142D02*
D03*
X110839D02*
D03*
X142138Y34858D02*
D03*
X110839D02*
D03*
X271854Y211358D02*
D03*
X303154D02*
D03*
X271854Y193642D02*
D03*
X303154D02*
D03*
X335354Y34858D02*
D03*
X366654D02*
D03*
X335354Y17142D02*
D03*
X366654D02*
D03*
X295681D02*
D03*
X264382D02*
D03*
X295681Y34858D02*
D03*
X264382D02*
D03*
X39972D02*
D03*
X71272D02*
D03*
X39972Y17142D02*
D03*
X71272D02*
D03*
X303154Y158142D02*
D03*
X271854D02*
D03*
X303154Y175858D02*
D03*
X271854D02*
D03*
D19*
X141653Y8000D02*
D03*
X135347D02*
D03*
X40347D02*
D03*
X46653D02*
D03*
X372653Y46000D02*
D03*
X366347D02*
D03*
X313153Y43000D02*
D03*
X306847D02*
D03*
X237747Y250700D02*
D03*
X244053D02*
D03*
X179004Y183500D02*
D03*
X172699D02*
D03*
X192004Y229000D02*
D03*
X185699D02*
D03*
X174504Y52500D02*
D03*
X168199D02*
D03*
X143504Y77500D02*
D03*
X137199D02*
D03*
X123351D02*
D03*
X129657D02*
D03*
X389347Y140800D02*
D03*
X395653D02*
D03*
X389495Y152000D02*
D03*
X395800D02*
D03*
D20*
X5701Y217600D02*
D03*
X172504Y275500D02*
D03*
Y268000D02*
D03*
X5701Y167500D02*
D03*
Y147500D02*
D03*
Y136800D02*
D03*
Y157500D02*
D03*
X5700Y207400D02*
D03*
X143004Y113500D02*
D03*
X388400Y218600D02*
D03*
X5701Y227500D02*
D03*
Y237500D02*
D03*
X71000Y7000D02*
D03*
X110700Y7100D02*
D03*
X73504Y87500D02*
D03*
X64004Y53500D02*
D03*
X54004Y95000D02*
D03*
X157004Y77500D02*
D03*
X313500Y27000D02*
D03*
X295504Y44500D02*
D03*
X172000Y43500D02*
D03*
X123004Y67000D02*
D03*
X131004D02*
D03*
X93571Y53500D02*
D03*
X83504D02*
D03*
X172000Y27100D02*
D03*
X258800Y184500D02*
D03*
X5701Y117500D02*
D03*
Y247500D02*
D03*
D21*
X153504Y87500D02*
D03*
X147604Y87600D02*
D03*
X85504Y102900D02*
D03*
X79604Y103000D02*
D03*
D22*
X232300Y46720D02*
D03*
Y49279D02*
D03*
X236100Y29480D02*
D03*
Y26921D02*
D03*
X221504Y252280D02*
D03*
Y249720D02*
D03*
D23*
X168500Y252500D02*
D03*
X165941D02*
D03*
X186380Y259200D02*
D03*
X183820D02*
D03*
X173280Y35000D02*
D03*
X170721D02*
D03*
D24*
X210150Y31236D02*
D03*
X208181D02*
D03*
X206213D02*
D03*
X204244D02*
D03*
X202276D02*
D03*
X200307D02*
D03*
X198339D02*
D03*
X196370D02*
D03*
Y265512D02*
D03*
X198339D02*
D03*
X200307D02*
D03*
X202276D02*
D03*
X204244D02*
D03*
X206213D02*
D03*
X208181D02*
D03*
X210150D02*
D03*
D25*
X212709Y31236D02*
D03*
X193811D02*
D03*
X215858D02*
D03*
X190661D02*
D03*
X193811Y265512D02*
D03*
X212709D02*
D03*
X190661D02*
D03*
X215858D02*
D03*
D26*
X223378Y28972D02*
D03*
X183142D02*
D03*
X223378Y13500D02*
D03*
X183142D02*
D03*
Y267776D02*
D03*
X223378D02*
D03*
X183142Y283248D02*
D03*
X223378D02*
D03*
D27*
X122449Y87697D02*
D03*
X131504D02*
D03*
X140559D02*
D03*
D28*
X131504Y112303D02*
D03*
D29*
X211100Y49140D02*
D03*
Y56660D02*
D03*
X184004Y245740D02*
D03*
Y253260D02*
D03*
X197200Y251260D02*
D03*
Y243740D02*
D03*
X64004Y94760D02*
D03*
Y87240D02*
D03*
X322504Y34260D02*
D03*
Y26740D02*
D03*
X223400Y60960D02*
D03*
Y53440D02*
D03*
X201800Y49240D02*
D03*
Y56760D02*
D03*
X192504Y49760D02*
D03*
Y42240D02*
D03*
X83504Y16480D02*
D03*
Y24000D02*
D03*
X153004Y16740D02*
D03*
Y24260D02*
D03*
X253004Y34260D02*
D03*
Y26740D02*
D03*
X214504Y244240D02*
D03*
Y251760D02*
D03*
X205700Y251160D02*
D03*
Y243640D02*
D03*
X187004Y173480D02*
D03*
Y181000D02*
D03*
D30*
X394400Y131100D02*
D03*
X389400D02*
D03*
X384400D02*
D03*
X379400D02*
D03*
X374400D02*
D03*
X369400D02*
D03*
X364400D02*
D03*
X359400D02*
D03*
X354400D02*
D03*
X349400D02*
D03*
X344400D02*
D03*
X339400D02*
D03*
X334400D02*
D03*
X329400D02*
D03*
Y62202D02*
D03*
X334400D02*
D03*
X339400D02*
D03*
X344400D02*
D03*
X349400D02*
D03*
X354400D02*
D03*
X359400D02*
D03*
X364400D02*
D03*
X369400D02*
D03*
X374400D02*
D03*
X379400D02*
D03*
X384400D02*
D03*
X389400D02*
D03*
X394400D02*
D03*
D31*
X324479Y124151D02*
D03*
Y119151D02*
D03*
Y114151D02*
D03*
Y109151D02*
D03*
Y104151D02*
D03*
Y99151D02*
D03*
Y94151D02*
D03*
Y89151D02*
D03*
Y84151D02*
D03*
Y79151D02*
D03*
Y74151D02*
D03*
Y69151D02*
D03*
D32*
X364006Y102557D02*
D03*
X369518D02*
D03*
Y108069D02*
D03*
X364006D02*
D03*
X358494D02*
D03*
Y102557D02*
D03*
Y97045D02*
D03*
X364006D02*
D03*
X369518D02*
D03*
D33*
X341504Y156866D02*
D03*
Y165134D02*
D03*
D34*
X212565Y194500D02*
D03*
X220443Y198240D02*
D03*
D35*
Y190760D02*
D03*
D36*
X192504Y238000D02*
D03*
X184984D02*
D03*
X340744Y175500D02*
D03*
X348264D02*
D03*
X310244Y176000D02*
D03*
X317764D02*
D03*
X56484Y103000D02*
D03*
X64004D02*
D03*
X164984Y88000D02*
D03*
X172504D02*
D03*
X160244Y215000D02*
D03*
X167764D02*
D03*
X169764Y195500D02*
D03*
X162244D02*
D03*
X194744Y184000D02*
D03*
X202264D02*
D03*
D37*
X83604Y93200D02*
D03*
X83504Y87300D02*
D03*
X75904Y47800D02*
D03*
X76004Y53700D02*
D03*
X210404Y225300D02*
D03*
X210504Y231200D02*
D03*
D38*
X106502Y87500D02*
D03*
X233502Y259500D02*
D03*
D39*
X93506Y87500D02*
D03*
X220506Y259500D02*
D03*
D40*
X162583Y96000D02*
D03*
X172425D02*
D03*
D41*
X234504Y268347D02*
D03*
Y274653D02*
D03*
X224004Y242153D02*
D03*
Y235847D02*
D03*
X151004Y95347D02*
D03*
Y101653D02*
D03*
X109504Y76653D02*
D03*
Y70347D02*
D03*
X259004Y175153D02*
D03*
Y168847D02*
D03*
Y193347D02*
D03*
Y199653D02*
D03*
X34500Y248153D02*
D03*
Y241847D02*
D03*
D42*
X183004Y51998D02*
D03*
D43*
Y39002D02*
D03*
D44*
X177504Y215500D02*
D03*
X180004D02*
D03*
X182504D02*
D03*
X185004D02*
D03*
X187504D02*
D03*
X190004D02*
D03*
X192504D02*
D03*
X195004D02*
D03*
X197504D02*
D03*
X200004D02*
D03*
Y196498D02*
D03*
X197504D02*
D03*
X195004D02*
D03*
X192504D02*
D03*
X190004D02*
D03*
X187504D02*
D03*
X185004D02*
D03*
X182504D02*
D03*
X180004D02*
D03*
D45*
X177504D02*
D03*
D46*
X175004Y166939D02*
D03*
X178744Y159061D02*
D03*
D47*
X171264D02*
D03*
D59*
X214638Y27004D02*
D03*
X191882D02*
D03*
Y269744D02*
D03*
X214638D02*
D03*
D64*
X386487Y280000D02*
D03*
X385700Y16800D02*
D03*
X19004Y280000D02*
D03*
X17000Y16700D02*
D03*
D67*
X205930Y31519D02*
Y38181D01*
X209803Y36500D02*
X210000D01*
X206213Y31236D02*
Y32909D01*
X209803Y36500D01*
X200018Y31525D02*
X200307Y31236D01*
X200018Y31525D02*
Y34120D01*
X199704Y34434D02*
X200018Y34120D01*
X199704Y34434D02*
Y35037D01*
X201600Y36933D01*
Y43800D01*
X201800Y49240D02*
X203309Y47731D01*
X205375D01*
X205728Y47377D01*
Y39963D02*
Y47377D01*
X204527Y38763D02*
X205728Y39963D01*
X204527Y35141D02*
Y38763D01*
X200307Y31236D02*
Y34787D01*
X200660Y35141D01*
X204527D01*
X205800Y268900D02*
X206213Y268487D01*
X202553Y268900D02*
X205800D01*
X204244Y260614D02*
Y265512D01*
X206213D02*
Y268487D01*
X202200Y265436D02*
Y268547D01*
X202553Y268900D01*
X201600Y49040D02*
X201800Y49240D01*
X226000Y44000D02*
X228720Y46720D01*
X232300D01*
X223300Y36700D02*
X227600D01*
X229500Y34800D01*
X230287D01*
X235608Y29480D01*
X236100D01*
X206213Y28313D02*
Y31236D01*
X205800Y27900D02*
X206213Y28313D01*
X202918Y27900D02*
X205800D01*
X202565Y28253D02*
X202918Y27900D01*
X202565Y28253D02*
Y30947D01*
X202276Y31236D02*
X202565Y30947D01*
X197200Y251260D02*
X198106D01*
X200488Y253642D01*
Y255088D01*
X200900Y255500D01*
X173300Y252500D02*
X173400Y252600D01*
X168500Y252500D02*
X173300D01*
X203100Y259470D02*
X204244Y260614D01*
X203100Y259100D02*
Y259470D01*
X190400Y259200D02*
X190500Y259100D01*
X186380Y259200D02*
X190400D01*
X201993Y265229D02*
X202200Y265436D01*
X204244Y263839D02*
Y265512D01*
Y263839D02*
X205700Y262383D01*
Y251160D02*
Y262383D01*
X312447Y138652D02*
X329135D01*
X332601Y135185D01*
Y134080D02*
Y135185D01*
X311400Y139699D02*
X312447Y138652D01*
X334400Y131100D02*
Y132281D01*
X311400Y139699D02*
Y139700D01*
X332601Y134080D02*
X334400Y132281D01*
X311397Y136200D02*
X311399D01*
X331199Y134080D02*
Y134604D01*
X312447Y137249D02*
X328554D01*
X311399Y136200D02*
X312447Y137249D01*
X329400Y132281D02*
X331199Y134080D01*
X329400Y131100D02*
Y132281D01*
X328554Y137249D02*
X331199Y134604D01*
X201800Y56560D02*
Y61300D01*
X211100Y56660D02*
Y61400D01*
Y56660D02*
X211100Y56660D01*
X204244Y31236D02*
X204527Y31519D01*
Y35141D01*
X207131Y39382D02*
Y47377D01*
X205930Y31519D02*
X206213Y31236D01*
X205930Y38181D02*
X207131Y39382D01*
X209690Y47731D02*
X211100Y49140D01*
X207131Y47377D02*
X207484Y47731D01*
X209690D01*
X201993Y261683D02*
Y265229D01*
X200590Y262264D02*
Y265229D01*
X200307Y265512D02*
X200590Y265229D01*
X193579Y253269D02*
X201993Y261683D01*
X194285Y248544D02*
X200115D01*
X200769Y249199D01*
Y249698D01*
X200416Y250052D02*
X200769Y249698D01*
X198408Y250052D02*
X200416D01*
X193579Y249251D02*
X194285Y248544D01*
X197200Y251260D02*
X198408Y250052D01*
X193579Y249251D02*
Y253269D01*
X192176Y253850D02*
X200590Y262264D01*
X192176Y248670D02*
Y253850D01*
Y248670D02*
X193704Y247141D01*
X202172Y248618D02*
Y249557D01*
X200696Y247141D02*
X202172Y248618D01*
X202525Y249910D02*
X204450D01*
X202172Y249557D02*
X202525Y249910D01*
X193704Y247141D02*
X200696D01*
X204450Y249910D02*
X205700Y251160D01*
X199455Y227429D02*
X202131Y230104D01*
X199455Y220376D02*
Y227429D01*
X200004Y215500D02*
Y219828D01*
X199455Y220376D02*
X200004Y219828D01*
X202131Y242079D02*
X202484Y242432D01*
X204492D02*
X205700Y243640D01*
X202131Y230104D02*
Y242079D01*
X202484Y242432D02*
X204492D01*
X197504Y219828D02*
X198053Y220376D01*
Y228010D02*
X200728Y230685D01*
X198053Y220376D02*
Y228010D01*
X200728Y230685D02*
Y242137D01*
X200375Y242491D02*
X200728Y242137D01*
X198450Y242491D02*
X200375D01*
X197504Y215500D02*
Y219828D01*
X197200Y243740D02*
X198450Y242491D01*
D68*
X126500Y8000D02*
X135347D01*
X46653D02*
X57000D01*
X372653Y46000D02*
X380000D01*
X313153Y43000D02*
X320500D01*
X306847Y42702D02*
Y43000D01*
X305029Y40883D02*
X306847Y42702D01*
X302199Y40883D02*
X305029D01*
X296173Y34858D02*
X302199Y40883D01*
X295681Y34858D02*
X296173D01*
X348264Y175500D02*
Y182536D01*
X27053Y241847D02*
X46547D01*
X383378Y132122D02*
X384400Y131100D01*
X382700Y136373D02*
X383378Y135695D01*
X383300Y152000D02*
X389495D01*
X382700Y136373D02*
Y136500D01*
X382927Y142400D02*
X384527Y140800D01*
X382800Y142400D02*
X382927D01*
X383100Y151800D02*
X383300Y152000D01*
X383378Y132122D02*
Y135695D01*
X158200Y77500D02*
X162700Y73000D01*
X157004Y77500D02*
X158200D01*
X164984Y82784D02*
Y88000D01*
X164800Y82600D02*
X164984Y82784D01*
X19504Y247500D02*
Y248076D01*
Y247500D02*
X20080Y248076D01*
X19504Y247500D02*
X20157Y248153D01*
X19500Y255900D02*
X19504Y255896D01*
X34500Y248153D02*
Y256100D01*
X178300Y228600D02*
X178700Y229000D01*
X185699D01*
X173300Y245500D02*
X173540Y245740D01*
X184004D01*
X144640Y94360D02*
X147604Y91396D01*
X142940Y94360D02*
X144640D01*
X142700Y94600D02*
X142940Y94360D01*
X147604Y87600D02*
Y91396D01*
X143500Y70400D02*
X143504Y70404D01*
Y77500D01*
X137100Y87100D02*
X139962D01*
X140559Y87697D01*
X33658Y34858D02*
X39972D01*
X33600Y34800D02*
X33658Y34858D01*
X39972D02*
X71272D01*
X384527Y140800D02*
X389347D01*
X143506Y26260D02*
Y26600D01*
X142138Y27968D02*
Y34858D01*
Y27968D02*
X143506Y26600D01*
X155353Y95347D02*
X158200Y92500D01*
X151004Y95347D02*
X155353D01*
X7000Y237500D02*
X19504D01*
X26860D02*
X28960Y235400D01*
X29300D01*
X212278Y265943D02*
X213140Y265081D01*
X205700Y275500D02*
X212278Y268922D01*
X194100Y275500D02*
X205700D01*
X212278Y265943D02*
Y268922D01*
X194100Y275500D02*
X196400Y273200D01*
X172504Y275500D02*
X194100D01*
X196400Y271000D02*
Y273200D01*
X172686Y54318D02*
X174504Y52500D01*
X172686Y54318D02*
Y57814D01*
X170500Y60000D02*
X172686Y57814D01*
X130004Y60000D02*
X170500D01*
X123004Y67000D02*
X130004Y60000D01*
X224004Y242153D02*
X224302D01*
X224004D02*
X240547D01*
X244800Y228979D02*
Y237900D01*
X229243Y228100D02*
X243921D01*
X244800Y228979D01*
X258706Y193347D02*
X259004D01*
X212565Y194500D02*
X257851D01*
X216300Y273900D02*
X216899D01*
X223024Y267776D01*
X223378D01*
X221504Y249720D02*
X221565Y249781D01*
X226781D01*
X226900Y249900D01*
X237747Y250700D02*
Y250998D01*
X235929Y252817D02*
X237747Y250998D01*
X233084Y252817D02*
X235929D01*
X226400Y259500D02*
X233084Y252817D01*
X220506Y259500D02*
X226400D01*
X232850Y250700D02*
X237747D01*
X224302Y242153D02*
X232850Y250700D01*
X233502Y259500D02*
X233871D01*
X234504Y260133D01*
X214504Y244240D02*
X215565Y245301D01*
X218101D01*
X221000Y248200D01*
Y248842D02*
X221073Y248915D01*
Y249659D01*
X221000Y248200D02*
Y248842D01*
X221073Y249659D02*
X221134Y249720D01*
X221504D01*
X232040Y60960D02*
X232100Y60900D01*
X223400Y60960D02*
X232040D01*
X236100Y21700D02*
X236200Y21600D01*
X236100Y21700D02*
Y23100D01*
X236100Y23100D01*
X236100Y23100D02*
Y26921D01*
X232300Y53400D02*
X232300Y53400D01*
Y49279D02*
Y53400D01*
X177600Y259000D02*
X183759D01*
X183820Y259061D01*
Y259200D01*
X165900Y258200D02*
X165920Y258180D01*
Y252520D02*
Y258180D01*
Y252520D02*
X165941Y252500D01*
X330720Y26820D02*
X330800Y26900D01*
X335354Y17142D02*
X366654D01*
X322584Y26820D02*
X330720D01*
X327300Y17300D02*
X335196D01*
X322504Y26740D02*
X322584Y26820D01*
X131500Y95500D02*
X131502Y95498D01*
Y87699D02*
Y95498D01*
Y87699D02*
X131504Y87697D01*
X257851Y194500D02*
X259004Y193347D01*
X325200Y166700D02*
X330000D01*
X332000Y168700D01*
Y190500D01*
X329500Y193000D02*
X332000Y190500D01*
X303795Y193000D02*
X329500D01*
X303154Y193642D02*
X303795Y193000D01*
X378800Y218300D02*
X378950Y218450D01*
X388250D01*
X388400Y218600D01*
X349400Y157996D02*
X388564Y197160D01*
X349400Y131100D02*
Y157996D01*
X295504Y35035D02*
Y44500D01*
X212278Y30805D02*
X212709Y31236D01*
X212000Y28844D02*
X212278Y29121D01*
X210621Y21800D02*
X212000Y23179D01*
X212278Y29121D02*
Y30805D01*
X212000Y23179D02*
Y28844D01*
X193811Y30154D02*
Y31236D01*
X194700Y23800D02*
Y29265D01*
Y23800D02*
X196700Y21800D01*
X193811Y30154D02*
X194700Y29265D01*
X193380Y31667D02*
X193811Y31236D01*
X194242Y268842D02*
X196400Y271000D01*
X194242Y265943D02*
Y268842D01*
X193811Y265512D02*
X194242Y265943D01*
X389347Y140800D02*
X389495Y140947D01*
Y152000D01*
X389400Y131100D02*
Y140747D01*
X389347Y140800D02*
X389400Y140747D01*
X374400Y131100D02*
Y162996D01*
X388564Y177160D01*
X26900Y242000D02*
X27053Y241847D01*
X26660Y241760D02*
X26900Y242000D01*
X20080Y248076D02*
X26676D01*
X23764Y241760D02*
X26660D01*
X19504Y237500D02*
X23764Y241760D01*
X19504Y237500D02*
X26860D01*
X303154Y211358D02*
X309742D01*
X309800Y211300D01*
X317764Y176000D02*
X324700D01*
X310244Y175094D02*
Y176000D01*
X310102Y175858D02*
X310244Y176000D01*
Y175094D02*
X323739Y161600D01*
X303154Y175858D02*
X310102D01*
X271854Y193642D02*
X303154D01*
X271854Y211358D02*
X303154D01*
X340744Y165894D02*
Y175500D01*
X329456Y161500D02*
X335400D01*
X340744Y165894D02*
X341504Y165134D01*
X311842Y158142D02*
X311900Y158200D01*
X323739Y161600D02*
X329356D01*
X329456Y161500D01*
X271854Y158142D02*
X303154D01*
X311842D01*
X271642Y193642D02*
X271854D01*
X271347Y193347D02*
X271642Y193642D01*
X259004Y193347D02*
X271347D01*
X259004Y199653D02*
Y205896D01*
X265000Y158200D02*
X265058Y158142D01*
X259004Y162104D02*
Y168847D01*
X259710Y175858D02*
X271854D01*
X259004Y175153D02*
X259710Y175858D01*
X265058Y158142D02*
X271854D01*
X259000Y162100D02*
X259004Y162104D01*
X258800Y193143D02*
X259004Y193347D01*
X258800Y184500D02*
Y193143D01*
X264300Y211400D02*
X264342Y211358D01*
X259000Y205900D02*
X259004Y205896D01*
X264342Y211358D02*
X271854D01*
X172699Y183202D02*
Y183500D01*
X202264Y184906D02*
X208118Y190760D01*
X202264Y184000D02*
Y184906D01*
X175004Y166939D02*
X222934D01*
X231147Y175153D01*
X259004D01*
X165600Y180100D02*
X166884Y181384D01*
X170880D01*
X172699Y183202D01*
X188800Y187500D02*
X190004Y188704D01*
Y196498D01*
X208118Y190760D02*
X220443D01*
X245153Y274653D02*
X245200Y274700D01*
X234504Y274653D02*
X245153D01*
X221545Y265943D02*
X223378Y267776D01*
X229248Y283248D02*
X231700Y285700D01*
X223378Y283248D02*
X229248D01*
X226143Y231200D02*
X229243Y228100D01*
X210504Y231200D02*
X226143D01*
X216289Y265943D02*
X221545D01*
X215858Y265512D02*
X216289Y265943D01*
X172400Y282600D02*
X173048Y283248D01*
X183142D01*
X185406Y265512D02*
X190661D01*
X213140Y261260D02*
Y265081D01*
X220264Y259742D02*
X220506Y259500D01*
X221134Y252280D02*
X221504D01*
X220506Y252907D02*
X221134Y252280D01*
X213140Y261260D02*
X214658Y259742D01*
X220264D01*
X220506Y252907D02*
Y259500D01*
X240547Y242153D02*
X244800Y237900D01*
X214500Y238000D02*
X214504Y238004D01*
Y244240D01*
X224004Y235847D02*
X224057Y235900D01*
X233300D01*
X244053Y250700D02*
X251896D01*
X173280Y35000D02*
Y41003D01*
X163500Y35000D02*
X170721D01*
X153000Y31200D02*
X153004Y31196D01*
X110839Y34858D02*
X142138D01*
X175090Y28972D02*
X183142D01*
X103158Y34858D02*
X110839D01*
X103100Y34800D02*
X103158Y34858D01*
X83504Y53500D02*
X83583Y53579D01*
X83500Y28600D02*
X83504Y28596D01*
Y24000D02*
Y28596D01*
X161200Y52600D02*
X161300Y52500D01*
X168199D01*
X183589Y37900D02*
X192300D01*
X193380Y36820D01*
X183004Y38485D02*
Y40095D01*
Y38485D02*
X183589Y37900D01*
X153004Y24260D02*
Y31196D01*
X172000Y42282D02*
Y43500D01*
X192400Y55500D02*
X192504Y55396D01*
X179599Y43500D02*
X183004Y40095D01*
X172000Y43500D02*
X179599D01*
X172000Y42282D02*
X173280Y41003D01*
X192504Y49760D02*
Y55396D01*
X183496Y28972D02*
X190469Y22000D01*
X193380Y31667D02*
Y36820D01*
X190469Y22000D02*
X190900D01*
X183142Y28972D02*
X185406Y31236D01*
X190661D01*
X166740Y22840D02*
X167740D01*
X170721Y29597D02*
Y35000D01*
X173218Y27100D02*
X175090Y28972D01*
X172000Y27100D02*
X173218D01*
X170721Y29597D02*
X172000Y28318D01*
Y27100D02*
Y28318D01*
X167740Y22840D02*
X172000Y27100D01*
X166500Y22600D02*
X166740Y22840D01*
X162583Y96000D02*
X162641Y96059D01*
X162583Y96000D02*
Y96295D01*
X172425Y96000D02*
X172465Y95961D01*
X162641Y96059D02*
Y102541D01*
X151004Y101653D02*
X157226D01*
X151004D02*
Y111504D01*
X157226Y101653D02*
X162583Y96295D01*
X162641Y102541D02*
X162700Y102600D01*
X112700Y102900D02*
X112800Y103000D01*
X149260Y116200D02*
X149600D01*
X151004Y111504D02*
X151100Y111600D01*
X147421Y114361D02*
X149260Y116200D01*
X143004Y113500D02*
X143865Y114361D01*
X147421D01*
X120500Y112200D02*
X120603Y112303D01*
X132701Y113500D02*
X143004D01*
X131504Y112303D02*
X132701Y113500D01*
X120603Y112303D02*
X131504D01*
X264024Y17500D02*
X264382Y17142D01*
X260230Y26670D02*
X260300Y26600D01*
X295681Y17142D02*
X295823Y17000D01*
X264382Y17142D02*
X295681D01*
X335196Y17300D02*
X335354Y17142D01*
X184004Y253260D02*
X185065Y254321D01*
X176189Y264589D02*
X179955D01*
X183142Y267776D01*
X174200Y262600D02*
X176189Y264589D01*
X172504Y268000D02*
X182917D01*
X183142Y267776D01*
X185406Y265512D01*
X169500Y209000D02*
X185040D01*
X187504Y211464D01*
Y215500D01*
X196700Y21800D02*
X210621D01*
X221114Y31236D02*
X223378Y28972D01*
X215858Y31236D02*
X221114D01*
X175600Y13500D02*
X183142D01*
X172465Y88039D02*
X172504Y88000D01*
X172465Y88039D02*
Y95961D01*
X140559Y86024D02*
Y87697D01*
X140656Y87600D01*
X83604Y93200D02*
X83704Y93300D01*
X153504Y82804D02*
Y87500D01*
X153400Y82700D02*
X153504Y82804D01*
X109400Y62800D02*
X109504Y62904D01*
Y76653D02*
X122504D01*
X123004Y67000D02*
Y77153D01*
X131004Y67000D02*
Y76153D01*
X109504Y62904D02*
Y70347D01*
X137199Y68501D02*
Y77500D01*
Y68501D02*
X137200Y68500D01*
X106502Y79357D02*
Y87500D01*
X109206Y76653D02*
X109504D01*
X106502Y79357D02*
X109206Y76653D01*
X93504Y68500D02*
X93571Y68433D01*
X93504Y68500D02*
X93506Y68502D01*
Y87500D01*
X83583Y68421D02*
X83662Y68500D01*
X129657Y77500D02*
Y77798D01*
X122449Y78403D02*
Y87697D01*
Y78403D02*
X123351Y77500D01*
X123004Y77153D02*
X123351Y77500D01*
X122504Y76653D02*
X123351Y77500D01*
X131504Y79646D02*
Y87697D01*
X129657Y77500D02*
X137199D01*
X129657D02*
X131004Y76153D01*
X129657Y77798D02*
X131504Y79646D01*
X49800Y102800D02*
X50000Y103000D01*
X85504Y102900D02*
X112700D01*
X83704Y93300D02*
X112500D01*
X50000Y103000D02*
X56484D01*
X76004Y53700D02*
X77022D01*
X77223Y53500D01*
X83504D01*
X83583Y53579D02*
Y68421D01*
X75902Y41602D02*
Y47798D01*
X75904Y47800D01*
X75900Y41600D02*
X75902Y41602D01*
X71272Y34858D02*
X71330Y34800D01*
X93571Y53500D02*
Y68433D01*
X71330Y34800D02*
X81900D01*
X271854Y175858D02*
X303154D01*
X223378Y28972D02*
X230672D01*
X230700Y29000D01*
X223378Y13500D02*
X232400D01*
X253074Y26670D02*
X260230D01*
X253004Y26740D02*
X253074Y26670D01*
X295823Y17000D02*
X303600D01*
X255300Y17500D02*
X264024D01*
D69*
X386700Y122100D02*
Y122304D01*
X389400Y125004D01*
Y131100D01*
X233502Y259500D02*
X255800D01*
X183004Y51998D02*
Y52117D01*
X182621Y52500D02*
X183004Y52117D01*
X174504Y52500D02*
X182621D01*
X174504Y52798D02*
X184100Y62394D01*
Y71400D01*
X218200Y172500D02*
X218700Y173000D01*
X231800Y205400D02*
X232200D01*
X258500Y231700D01*
Y256800D01*
X255800Y259500D02*
X258500Y256800D01*
X234504Y259883D02*
Y268347D01*
X234121Y259500D02*
X234504Y259883D01*
X233502Y259500D02*
X234121D01*
X394400Y131100D02*
X394500Y131000D01*
Y124200D02*
X394600Y124100D01*
X394500Y124200D02*
Y131000D01*
X394400Y131100D02*
Y132281D01*
X395800Y152000D02*
Y158896D01*
X396400Y159495D02*
Y159700D01*
X395800Y158896D02*
X396400Y159495D01*
X395653Y140800D02*
X395726Y140874D01*
Y151926D01*
X395800Y152000D01*
X394400Y132281D02*
X395653Y133534D01*
Y140800D01*
X394400Y54200D02*
Y62202D01*
D70*
X218700Y173000D02*
Y183400D01*
D71*
X150504Y87550D02*
D03*
X82512Y102950D02*
D03*
D72*
X83555Y90200D02*
D03*
X75954Y50801D02*
D03*
X210454Y228301D02*
D03*
D73*
X388564Y177160D02*
D03*
Y187160D02*
D03*
Y167160D02*
D03*
D74*
Y197160D02*
D03*
D75*
X17064Y247160D02*
D03*
D76*
Y117160D02*
D03*
Y127160D02*
D03*
Y137160D02*
D03*
Y147160D02*
D03*
Y157160D02*
D03*
Y167160D02*
D03*
Y227160D02*
D03*
Y217160D02*
D03*
Y237160D02*
D03*
Y177160D02*
D03*
Y187160D02*
D03*
Y197160D02*
D03*
Y207160D02*
D03*
D77*
X93504Y68500D02*
D03*
D78*
X83662D02*
D03*
X63976D02*
D03*
X73819D02*
D03*
D79*
X210000Y36500D02*
D03*
X126500Y8000D02*
D03*
X57000D02*
D03*
X380000Y46000D02*
D03*
X320500Y43000D02*
D03*
X348500Y95500D02*
D03*
X343500Y89000D02*
D03*
X202000Y172500D02*
D03*
X197500Y238500D02*
D03*
X129500Y127500D02*
D03*
X118500Y131000D02*
D03*
X322000Y169500D02*
D03*
X213500Y170500D02*
D03*
X211500Y182000D02*
D03*
X235500Y200000D02*
D03*
X226000Y210000D02*
D03*
X172000Y256500D02*
D03*
X178500Y70500D02*
D03*
X191000D02*
D03*
X199000Y160500D02*
D03*
X225500Y180500D02*
D03*
X321500Y157000D02*
D03*
X312500Y132500D02*
D03*
X334500Y77500D02*
D03*
X306000Y65000D02*
D03*
X305500Y77000D02*
D03*
X226500Y48500D02*
D03*
X101000Y20500D02*
D03*
Y27500D02*
D03*
X35500Y130000D02*
D03*
X42000Y142000D02*
D03*
X28500Y161500D02*
D03*
X33500Y171500D02*
D03*
X30000Y187500D02*
D03*
X42000Y199000D02*
D03*
X35000Y261500D02*
D03*
X24000D02*
D03*
X19504Y255896D02*
D03*
X348264Y182536D02*
D03*
X46700Y242000D02*
D03*
X197500Y234300D02*
D03*
X178800Y176600D02*
D03*
X162700Y73000D02*
D03*
X164800Y82600D02*
D03*
X7000Y254100D02*
D03*
X34500Y256100D02*
D03*
X178300Y228600D02*
D03*
X173300Y245500D02*
D03*
X142700Y94600D02*
D03*
X143500Y70400D02*
D03*
X136100Y87000D02*
D03*
X33600Y34800D02*
D03*
X143506Y26260D02*
D03*
X153400Y82700D02*
D03*
X158200Y92500D02*
D03*
X26900Y242000D02*
D03*
X29300Y235400D02*
D03*
X184100Y71400D02*
D03*
X218200Y172500D02*
D03*
X218700Y183400D02*
D03*
X231800Y205400D02*
D03*
X216300Y273900D02*
D03*
X226900Y249900D02*
D03*
X232040Y60960D02*
D03*
X236200Y21600D02*
D03*
X232300Y53400D02*
D03*
X201600Y43800D02*
D03*
X226000Y44000D02*
D03*
X223300Y36700D02*
D03*
X200900Y255500D02*
D03*
X173400Y252600D02*
D03*
X177600Y259000D02*
D03*
X330800Y26900D02*
D03*
X131500Y95500D02*
D03*
X165900Y258200D02*
D03*
X325200Y166700D02*
D03*
X346100Y99100D02*
D03*
X330900Y89500D02*
D03*
X330942Y95942D02*
D03*
X394600Y124100D02*
D03*
X386700Y122100D02*
D03*
X378800Y218300D02*
D03*
X396400Y159700D02*
D03*
X394400Y54200D02*
D03*
X214500Y238000D02*
D03*
X169500Y209000D02*
D03*
X233300Y235900D02*
D03*
X174200Y262600D02*
D03*
X259000Y205900D02*
D03*
X172400Y282600D02*
D03*
X245153Y274653D02*
D03*
X251896Y250700D02*
D03*
X231700Y285700D02*
D03*
X264300Y211400D02*
D03*
X26676Y248076D02*
D03*
X232400Y13500D02*
D03*
X327300Y17300D02*
D03*
X303600Y17000D02*
D03*
X255300Y17500D02*
D03*
X75900Y41600D02*
D03*
X81900Y34800D02*
D03*
X83500Y28600D02*
D03*
X49800Y102800D02*
D03*
X149600Y116200D02*
D03*
X151100Y111600D02*
D03*
X309771Y211329D02*
D03*
X190900Y22000D02*
D03*
X175600Y13500D02*
D03*
X153000Y31200D02*
D03*
X166500Y22600D02*
D03*
X260300Y26600D02*
D03*
X324700Y176000D02*
D03*
X311842Y158142D02*
D03*
X265000Y158200D02*
D03*
X259000Y162100D02*
D03*
X163500Y35000D02*
D03*
X230672Y28972D02*
D03*
X192504Y55396D02*
D03*
X161200Y52600D02*
D03*
X109400Y62800D02*
D03*
X103100Y34800D02*
D03*
X188800Y187500D02*
D03*
X165600Y180100D02*
D03*
X162700Y102600D02*
D03*
X137199Y68501D02*
D03*
D80*
X187200Y91600D02*
D03*
X189117Y99083D02*
D03*
X383100Y151800D02*
D03*
X382800Y142400D02*
D03*
X382700Y136500D02*
D03*
X341500Y151000D02*
D03*
X326400Y151700D02*
D03*
X111100Y105600D02*
D03*
X359500Y150000D02*
D03*
X157600Y105400D02*
D03*
X157700Y108800D02*
D03*
X125100Y130800D02*
D03*
X133300Y124600D02*
D03*
X200700Y176600D02*
D03*
X203100Y259100D02*
D03*
X190450Y259150D02*
D03*
X341400Y85500D02*
D03*
X334500Y83100D02*
D03*
X37700Y197000D02*
D03*
X37900Y141700D02*
D03*
X31700Y167100D02*
D03*
Y129300D02*
D03*
X25300Y186400D02*
D03*
X24900Y160900D02*
D03*
X309400Y73600D02*
D03*
X333100Y73800D02*
D03*
X110500Y100000D02*
D03*
X309700Y68700D02*
D03*
X333800D02*
D03*
X311397Y136200D02*
D03*
X311400Y139700D02*
D03*
X211100Y61400D02*
D03*
X201800Y61300D02*
D03*
X358200Y111824D02*
D03*
X309600Y86400D02*
D03*
X307900Y95700D02*
D03*
X307800Y89500D02*
D03*
X307700Y99400D02*
D03*
X375000D02*
D03*
X363800Y113000D02*
D03*
X353700Y103100D02*
D03*
X354100Y94200D02*
D03*
X364600Y92900D02*
D03*
X373700Y94000D02*
D03*
X374000Y104200D02*
D03*
X372400Y112000D02*
D03*
X335400Y161500D02*
D03*
X112800Y103000D02*
D03*
X120552Y112252D02*
D03*
X304100Y88400D02*
D03*
X170200Y19500D02*
D03*
Y16400D02*
D03*
X104200Y24000D02*
D03*
X170300Y13100D02*
D03*
X236100Y40000D02*
D03*
X234400Y33500D02*
D03*
X234800Y42800D02*
D03*
X310000Y93000D02*
D03*
X238900Y43300D02*
D03*
X232400Y36800D02*
D03*
X194700Y177500D02*
D03*
Y159200D02*
D03*
X110700Y95900D02*
D03*
X112500Y93300D02*
D03*
X113700Y90400D02*
D03*
M02*
