G04*
G04 #@! TF.GenerationSoftware,Altium Limited,Altium Designer,25.3.2 (17)*
G04*
G04 Layer_Physical_Order=2*
G04 Layer_Color=36540*
%FSLAX25Y25*%
%MOIN*%
G70*
G04*
G04 #@! TF.SameCoordinates,ED342856-191B-4412-B6D1-68AB9B2CBA59*
G04*
G04*
G04 #@! TF.FilePolarity,Positive*
G04*
G01*
G75*
%ADD59C,0.02559*%
%ADD64C,0.25197*%
%ADD70C,0.03000*%
%ADD73C,0.05472*%
%ADD74R,0.05472X0.05472*%
%ADD75R,0.05394X0.05394*%
%ADD76C,0.05394*%
%ADD78C,0.05937*%
%ADD79C,0.02756*%
%ADD80C,0.01968*%
%ADD81C,0.04000*%
%ADD82C,0.06000*%
%ADD83C,0.03937*%
G36*
X92500Y221500D02*
X94000Y223000D01*
X382000D01*
Y217500D01*
X385000Y214500D01*
X348500Y178000D01*
X349000D01*
X373000Y154000D01*
Y141000D01*
X391000Y123000D01*
Y81000D01*
X390500D01*
X332500Y23000D01*
X258500D01*
Y27500D01*
X257000Y29000D01*
X259500Y31500D01*
X329500D01*
X383500Y85500D01*
Y117500D01*
X199500D01*
X181000Y99000D01*
Y75000D01*
Y73500D01*
X177681Y68936D01*
X177817Y68695D01*
X176500Y66500D01*
X159500Y65500D01*
X158000Y67000D01*
X154500Y63500D01*
Y29000D01*
X118000D01*
X110000Y27500D01*
X81754Y26013D01*
X81500Y26254D01*
Y29537D01*
X149500Y34512D01*
Y68000D01*
X150500Y69000D01*
X177000D01*
X174000Y72000D01*
X176700Y74700D01*
Y92800D01*
X173000Y96500D01*
Y105000D01*
X194500Y126500D01*
X377000D01*
Y127500D01*
X364000Y140500D01*
Y151500D01*
X344000Y171500D01*
X321000D01*
Y180000D01*
X322500Y181500D01*
X342000D01*
Y185500D01*
X370000Y213500D01*
X85500D01*
X51000Y248000D01*
X8500D01*
X5500Y251000D01*
Y259043D01*
X5823Y259177D01*
X7500Y257500D01*
X24000D01*
X26500Y255000D01*
X29826Y256791D01*
X54167Y259833D01*
X92500Y221500D01*
D02*
G37*
G36*
X150177Y97177D02*
X147500Y94500D01*
X143500D01*
Y72000D01*
X143000Y71500D01*
X143500Y71000D01*
Y70400D01*
X141794Y69632D01*
X141500Y69822D01*
Y70000D01*
X130500Y81000D01*
X135500Y86000D01*
Y97500D01*
X150043D01*
X150177Y97177D01*
D02*
G37*
D59*
X214638Y27004D02*
D03*
X191882D02*
D03*
Y269744D02*
D03*
X214638D02*
D03*
D64*
X386487Y280000D02*
D03*
X385700Y16800D02*
D03*
X19004Y280000D02*
D03*
X17000Y16700D02*
D03*
D70*
X162700Y73000D02*
X164900D01*
X170600Y78700D01*
Y89900D01*
X161700Y98800D02*
X170600Y89900D01*
X146900Y98800D02*
X161700D01*
X142700Y94600D02*
X146900Y98800D01*
D73*
X388564Y177160D02*
D03*
Y187160D02*
D03*
Y167160D02*
D03*
D74*
Y197160D02*
D03*
D75*
X17064Y247160D02*
D03*
D76*
Y117160D02*
D03*
Y127160D02*
D03*
Y137160D02*
D03*
Y147160D02*
D03*
Y157160D02*
D03*
Y167160D02*
D03*
Y227160D02*
D03*
Y217160D02*
D03*
Y237160D02*
D03*
Y177160D02*
D03*
Y187160D02*
D03*
Y197160D02*
D03*
Y207160D02*
D03*
D78*
X93504Y68500D02*
D03*
X83662D02*
D03*
X63976D02*
D03*
X73819D02*
D03*
D79*
X210000Y36500D02*
D03*
X126500Y8000D02*
D03*
X57000D02*
D03*
X380000Y46000D02*
D03*
X320500Y43000D02*
D03*
X348500Y95500D02*
D03*
X343500Y89000D02*
D03*
X202000Y172500D02*
D03*
X197500Y238500D02*
D03*
X129500Y127500D02*
D03*
X118500Y131000D02*
D03*
X322000Y169500D02*
D03*
X213500Y170500D02*
D03*
X211500Y182000D02*
D03*
X235500Y200000D02*
D03*
X226000Y210000D02*
D03*
X172000Y256500D02*
D03*
X178500Y70500D02*
D03*
X191000D02*
D03*
X199000Y160500D02*
D03*
X225500Y180500D02*
D03*
X321500Y157000D02*
D03*
X312500Y132500D02*
D03*
X334500Y77500D02*
D03*
X306000Y65000D02*
D03*
X305500Y77000D02*
D03*
X226500Y48500D02*
D03*
X101000Y20500D02*
D03*
Y27500D02*
D03*
X35500Y130000D02*
D03*
X42000Y142000D02*
D03*
X28500Y161500D02*
D03*
X33500Y171500D02*
D03*
X30000Y187500D02*
D03*
X42000Y199000D02*
D03*
X35000Y261500D02*
D03*
X24000D02*
D03*
X19504Y255896D02*
D03*
X348264Y182536D02*
D03*
X46700Y242000D02*
D03*
X197500Y234300D02*
D03*
X178800Y176600D02*
D03*
X162700Y73000D02*
D03*
X164800Y82600D02*
D03*
X7000Y254100D02*
D03*
X34500Y256100D02*
D03*
X178300Y228600D02*
D03*
X173300Y245500D02*
D03*
X142700Y94600D02*
D03*
X143500Y70400D02*
D03*
X136100Y87000D02*
D03*
X33600Y34800D02*
D03*
X143506Y26260D02*
D03*
X153400Y82700D02*
D03*
X158200Y92500D02*
D03*
X26900Y242000D02*
D03*
X29300Y235400D02*
D03*
X184100Y71400D02*
D03*
X218200Y172500D02*
D03*
X218700Y183400D02*
D03*
X231800Y205400D02*
D03*
X216300Y273900D02*
D03*
X226900Y249900D02*
D03*
X232040Y60960D02*
D03*
X236200Y21600D02*
D03*
X232300Y53400D02*
D03*
X201600Y43800D02*
D03*
X226000Y44000D02*
D03*
X223300Y36700D02*
D03*
X200900Y255500D02*
D03*
X173400Y252600D02*
D03*
X177600Y259000D02*
D03*
X330800Y26900D02*
D03*
X131500Y95500D02*
D03*
X165900Y258200D02*
D03*
X325200Y166700D02*
D03*
X346100Y99100D02*
D03*
X330900Y89500D02*
D03*
X330942Y95942D02*
D03*
X394600Y124100D02*
D03*
X386700Y122100D02*
D03*
X378800Y218300D02*
D03*
X396400Y159700D02*
D03*
X394400Y54200D02*
D03*
X214500Y238000D02*
D03*
X169500Y209000D02*
D03*
X233300Y235900D02*
D03*
X174200Y262600D02*
D03*
X259000Y205900D02*
D03*
X172400Y282600D02*
D03*
X245153Y274653D02*
D03*
X251896Y250700D02*
D03*
X231700Y285700D02*
D03*
X264300Y211400D02*
D03*
X26676Y248076D02*
D03*
X232400Y13500D02*
D03*
X327300Y17300D02*
D03*
X303600Y17000D02*
D03*
X255300Y17500D02*
D03*
X75900Y41600D02*
D03*
X81900Y34800D02*
D03*
X83500Y28600D02*
D03*
X49800Y102800D02*
D03*
X149600Y116200D02*
D03*
X151100Y111600D02*
D03*
X309771Y211329D02*
D03*
X190900Y22000D02*
D03*
X175600Y13500D02*
D03*
X153000Y31200D02*
D03*
X166500Y22600D02*
D03*
X260300Y26600D02*
D03*
X324700Y176000D02*
D03*
X311842Y158142D02*
D03*
X265000Y158200D02*
D03*
X259000Y162100D02*
D03*
X163500Y35000D02*
D03*
X230672Y28972D02*
D03*
X192504Y55396D02*
D03*
X161200Y52600D02*
D03*
X109400Y62800D02*
D03*
X103100Y34800D02*
D03*
X188800Y187500D02*
D03*
X165600Y180100D02*
D03*
X162700Y102600D02*
D03*
X137199Y68501D02*
D03*
D80*
X187200Y91600D02*
D03*
X189117Y99083D02*
D03*
X383100Y151800D02*
D03*
X382800Y142400D02*
D03*
X382700Y136500D02*
D03*
X341500Y151000D02*
D03*
X326400Y151700D02*
D03*
X111100Y105600D02*
D03*
X359500Y150000D02*
D03*
X157600Y105400D02*
D03*
X157700Y108800D02*
D03*
X125100Y130800D02*
D03*
X133300Y124600D02*
D03*
X200700Y176600D02*
D03*
X203100Y259100D02*
D03*
X190450Y259150D02*
D03*
X341400Y85500D02*
D03*
X334500Y83100D02*
D03*
X37700Y197000D02*
D03*
X37900Y141700D02*
D03*
X31700Y167100D02*
D03*
Y129300D02*
D03*
X25300Y186400D02*
D03*
X24900Y160900D02*
D03*
X309400Y73600D02*
D03*
X333100Y73800D02*
D03*
X110500Y100000D02*
D03*
X309700Y68700D02*
D03*
X333800D02*
D03*
X311397Y136200D02*
D03*
X311400Y139700D02*
D03*
X211100Y61400D02*
D03*
X201800Y61300D02*
D03*
X358200Y111824D02*
D03*
X309600Y86400D02*
D03*
X307900Y95700D02*
D03*
X307800Y89500D02*
D03*
X307700Y99400D02*
D03*
X375000D02*
D03*
X363800Y113000D02*
D03*
X353700Y103100D02*
D03*
X354100Y94200D02*
D03*
X364600Y92900D02*
D03*
X373700Y94000D02*
D03*
X374000Y104200D02*
D03*
X372400Y112000D02*
D03*
X335400Y161500D02*
D03*
X112800Y103000D02*
D03*
X120552Y112252D02*
D03*
X304100Y88400D02*
D03*
X170200Y19500D02*
D03*
Y16400D02*
D03*
X104200Y24000D02*
D03*
X170300Y13100D02*
D03*
X236100Y40000D02*
D03*
X234400Y33500D02*
D03*
X234800Y42800D02*
D03*
X310000Y93000D02*
D03*
X238900Y43300D02*
D03*
X232400Y36800D02*
D03*
X194700Y177500D02*
D03*
Y159200D02*
D03*
X110700Y95900D02*
D03*
X112500Y93300D02*
D03*
X113700Y90400D02*
D03*
D81*
X83500Y28600D02*
X101000D01*
X17708Y254100D02*
X19504Y255896D01*
X7000Y254100D02*
X17708D01*
X17064Y247160D02*
X17065Y247161D01*
X25761D01*
X26676Y248076D01*
Y248724D01*
X19504Y255896D02*
X26676Y248724D01*
X154700Y92500D02*
X158200D01*
X152357Y83743D02*
X153400Y82700D01*
X152357Y83743D02*
Y90157D01*
X154700Y92500D01*
X119550Y31200D02*
X153000D01*
X116950Y28600D02*
X119550Y31200D01*
X101000Y28600D02*
X116950D01*
D82*
X369400Y139400D02*
Y151800D01*
X343464Y177736D02*
X369400Y151800D01*
Y139400D02*
X386700Y122100D01*
X341728Y176000D02*
X348264Y182536D01*
X378800Y213072D01*
X176700Y86728D02*
X178800Y84628D01*
X176700Y101000D02*
X197800Y122100D01*
X176700Y86728D02*
Y101000D01*
X197800Y122100D02*
X386700D01*
X160629Y68000D02*
X173771D01*
X142700Y93600D02*
Y94600D01*
X136100Y87000D02*
X142700Y93600D01*
X133985Y84885D02*
X136100Y87000D01*
X133985Y79915D02*
Y84885D01*
Y79915D02*
X143500Y70400D01*
X153000Y31200D02*
Y75229D01*
X153400D02*
X160629Y68000D01*
X324700Y176000D02*
X339135D01*
X153400Y75229D02*
Y82700D01*
X173771Y68000D02*
X178800Y73029D01*
Y84628D01*
X26676Y248076D02*
X34500Y255900D01*
Y256100D01*
X35200Y255400D01*
X50400D01*
X87500Y218300D01*
X378800D01*
Y213072D02*
Y218300D01*
X386400Y121800D02*
X386700Y122100D01*
X386400Y82500D02*
Y121800D01*
X330800Y26900D02*
X386400Y82500D01*
X330500Y26600D02*
X330800Y26900D01*
X260300Y26600D02*
X330500D01*
D83*
X158200Y89200D02*
Y92500D01*
Y89200D02*
X164800Y82600D01*
M02*
