G04*
G04 #@! TF.GenerationSoftware,Altium Limited,Altium Designer,25.3.2 (17)*
G04*
G04 Layer_Color=32896*
%FSLAX25Y25*%
%MOIN*%
G70*
G04*
G04 #@! TF.SameCoordinates,ED342856-191B-4412-B6D1-68AB9B2CBA59*
G04*
G04*
G04 #@! TF.FilePolarity,Positive*
G04*
G01*
G75*
%ADD93C,0.00945*%
D93*
X76739Y133555D02*
X73459D01*
X71820Y131915D01*
X73459Y130275D01*
X76739D01*
X74279D01*
Y133555D01*
X76739Y128636D02*
X71820D01*
Y126176D01*
X72639Y125356D01*
X74279D01*
X75099Y126176D01*
Y128636D01*
Y126996D02*
X76739Y125356D01*
X71820Y123716D02*
X76739D01*
Y121256D01*
X75919Y120436D01*
X72639D01*
X71820Y121256D01*
Y123716D01*
Y118796D02*
X75919D01*
X76739Y117976D01*
Y116336D01*
X75919Y115516D01*
X71820D01*
Y113876D02*
Y112237D01*
Y113057D01*
X76739D01*
Y113876D01*
Y112237D01*
Y109777D02*
X71820D01*
X76739Y106497D01*
X71820D01*
Y102397D02*
Y104037D01*
X72639Y104857D01*
X75919D01*
X76739Y104037D01*
Y102397D01*
X75919Y101577D01*
X72639D01*
X71820Y102397D01*
X77559Y99937D02*
Y96658D01*
X76739Y95018D02*
X71820D01*
Y92558D01*
X72639Y91738D01*
X74279D01*
X75099Y92558D01*
Y95018D01*
Y93378D02*
X76739Y91738D01*
X71820Y90098D02*
X76739Y86818D01*
X71820D02*
X76739Y90098D01*
X67239Y133555D02*
X63959D01*
X62319Y131915D01*
X63959Y130275D01*
X67239D01*
X64779D01*
Y133555D01*
X67239Y128636D02*
X62319D01*
Y126176D01*
X63139Y125356D01*
X64779D01*
X65599Y126176D01*
Y128636D01*
Y126996D02*
X67239Y125356D01*
X62319Y123716D02*
X67239D01*
Y121256D01*
X66419Y120436D01*
X63139D01*
X62319Y121256D01*
Y123716D01*
Y118796D02*
X66419D01*
X67239Y117976D01*
Y116336D01*
X66419Y115516D01*
X62319D01*
Y113876D02*
Y112237D01*
Y113057D01*
X67239D01*
Y113876D01*
Y112237D01*
Y109777D02*
X62319D01*
X67239Y106497D01*
X62319D01*
Y102397D02*
Y104037D01*
X63139Y104857D01*
X66419D01*
X67239Y104037D01*
Y102397D01*
X66419Y101577D01*
X63139D01*
X62319Y102397D01*
X68059Y99937D02*
Y96658D01*
X62319Y95018D02*
Y91738D01*
Y93378D01*
X67239D01*
X62319Y90098D02*
X67239Y86818D01*
X62319D02*
X67239Y90098D01*
X85549Y41225D02*
X86369Y40405D01*
Y38765D01*
X85549Y37945D01*
X82269D01*
X81449Y38765D01*
Y40405D01*
X82269Y41225D01*
X83909D01*
Y39585D01*
X81449Y42865D02*
X86369D01*
X81449Y46144D01*
X86369D01*
Y47784D02*
X81449D01*
Y50244D01*
X82269Y51064D01*
X85549D01*
X86369Y50244D01*
Y47784D01*
X97364Y38445D02*
X94085D01*
X92445Y40085D01*
X94085Y41725D01*
X97364D01*
Y43365D02*
Y45004D01*
Y44184D01*
X92445D01*
Y43365D01*
Y45004D01*
Y47464D02*
X97364D01*
X92445Y50744D01*
X97364D01*
X70765Y4945D02*
X74045D01*
X75684Y6585D01*
X74045Y8225D01*
X70765D01*
X73225D01*
Y4945D01*
X70765Y9865D02*
X75684D01*
Y12324D01*
X74865Y13144D01*
X73225D01*
X72405Y12324D01*
Y9865D01*
Y11504D02*
X70765Y13144D01*
X75684Y14784D02*
X70765D01*
Y17244D01*
X71585Y18064D01*
X74865D01*
X75684Y17244D01*
Y14784D01*
Y19704D02*
X71585D01*
X70765Y20524D01*
Y22164D01*
X71585Y22984D01*
X75684D01*
Y24624D02*
Y26263D01*
Y25444D01*
X70765D01*
Y24624D01*
Y26263D01*
Y28723D02*
X75684D01*
X70765Y32003D01*
X75684D01*
Y36103D02*
Y34463D01*
X74865Y33643D01*
X71585D01*
X70765Y34463D01*
Y36103D01*
X71585Y36923D01*
X74865D01*
X75684Y36103D01*
X69945Y38563D02*
Y41842D01*
X70765Y43482D02*
X75684D01*
Y45942D01*
X74865Y46762D01*
X73225D01*
X72405Y45942D01*
Y43482D01*
Y45122D02*
X70765Y46762D01*
X75684Y48402D02*
X70765Y51682D01*
X75684D02*
X70765Y48402D01*
X61265Y4945D02*
X64545D01*
X66185Y6585D01*
X64545Y8225D01*
X61265D01*
X63725D01*
Y4945D01*
X61265Y9865D02*
X66185D01*
Y12324D01*
X65364Y13144D01*
X63725D01*
X62905Y12324D01*
Y9865D01*
Y11504D02*
X61265Y13144D01*
X66185Y14784D02*
X61265D01*
Y17244D01*
X62085Y18064D01*
X65364D01*
X66185Y17244D01*
Y14784D01*
Y19704D02*
X62085D01*
X61265Y20524D01*
Y22164D01*
X62085Y22984D01*
X66185D01*
Y24624D02*
Y26263D01*
Y25444D01*
X61265D01*
Y24624D01*
Y26263D01*
Y28723D02*
X66185D01*
X61265Y32003D01*
X66185D01*
Y36103D02*
Y34463D01*
X65364Y33643D01*
X62085D01*
X61265Y34463D01*
Y36103D01*
X62085Y36923D01*
X65364D01*
X66185Y36103D01*
X60445Y38563D02*
Y41842D01*
X66185Y43482D02*
Y46762D01*
Y45122D01*
X61265D01*
X66185Y48402D02*
X61265Y51682D01*
X66185D02*
X61265Y48402D01*
X91139Y100055D02*
X94419D01*
X96059Y98415D01*
X94419Y96775D01*
X91139D01*
Y95135D02*
Y93496D01*
Y94315D01*
X96059D01*
Y95135D01*
Y93496D01*
Y91036D02*
X91139D01*
X96059Y87756D01*
X91139D01*
X82459Y96775D02*
X81639Y97595D01*
Y99235D01*
X82459Y100055D01*
X85739D01*
X86559Y99235D01*
Y97595D01*
X85739Y96775D01*
X84099D01*
Y98415D01*
X86559Y95135D02*
X81639D01*
X86559Y91856D01*
X81639D01*
Y90216D02*
X86559D01*
Y87756D01*
X85739Y86936D01*
X82459D01*
X81639Y87756D01*
Y90216D01*
M02*
