G04*
G04 #@! TF.GenerationSoftware,Altium Limited,Altium Designer,25.3.2 (17)*
G04*
G04 Layer_Color=65535*
%FSLAX25Y25*%
%MOIN*%
G70*
G04*
G04 #@! TF.SameCoordinates,61AD8EE7-702F-4F1E-9177-D9EBC2C31418*
G04*
G04*
G04 #@! TF.FilePolarity,Positive*
G04*
G01*
G75*
%ADD10C,0.00984*%
%ADD11C,0.00394*%
%ADD12C,0.00787*%
%ADD13C,0.00600*%
%ADD14C,0.00500*%
%ADD15C,0.01575*%
%ADD16C,0.01000*%
%ADD17C,0.00591*%
G36*
X103846Y280703D02*
X103944D01*
Y280410D01*
X103846D01*
Y280312D01*
X101792D01*
Y280410D01*
X99054D01*
Y280507D01*
X98076D01*
Y280605D01*
X98174D01*
Y280703D01*
X102379D01*
Y280801D01*
X103846D01*
Y280703D01*
D02*
G37*
G36*
X103357Y277671D02*
X103455D01*
Y277182D01*
X103357D01*
Y277084D01*
X103259D01*
Y276987D01*
X102966D01*
Y277084D01*
X100423D01*
Y277182D01*
X95533D01*
Y277280D01*
X92403D01*
Y277378D01*
X91523D01*
Y277476D01*
X91621D01*
Y277573D01*
X93088D01*
Y277671D01*
X99152D01*
Y277769D01*
X103357D01*
Y277671D01*
D02*
G37*
G36*
X94066Y275618D02*
X94262D01*
Y274933D01*
X91621D01*
Y275031D01*
X88296D01*
Y275129D01*
X83112D01*
Y275226D01*
X81939D01*
Y275324D01*
X82037D01*
Y275422D01*
X83699D01*
Y275520D01*
X88785D01*
Y275618D01*
X93088D01*
Y275715D01*
X93284D01*
Y275618D01*
X93577D01*
Y275715D01*
X94066D01*
Y275618D01*
D02*
G37*
G36*
X105998Y280410D02*
X106585D01*
Y280312D01*
X107073D01*
Y280214D01*
X107562D01*
Y280116D01*
X107856D01*
Y280018D01*
X108149D01*
Y279921D01*
X108345D01*
Y279823D01*
X108638D01*
Y279725D01*
X108834D01*
Y279627D01*
X109029D01*
Y279530D01*
X109323D01*
Y279432D01*
X109421D01*
Y279334D01*
X109616D01*
Y279236D01*
X109714D01*
Y279138D01*
X109910D01*
Y279041D01*
X110105D01*
Y278943D01*
X110203D01*
Y278845D01*
X110301D01*
Y278747D01*
X110399D01*
Y278649D01*
X110594D01*
Y278552D01*
X110692D01*
Y278454D01*
X110790D01*
Y278356D01*
X110888D01*
Y278258D01*
X110986D01*
Y278160D01*
X111181D01*
Y278063D01*
X111279D01*
Y277867D01*
X111377D01*
Y277769D01*
X111475D01*
Y277671D01*
X111572D01*
Y277573D01*
X111670D01*
Y277476D01*
X111768D01*
Y277378D01*
X111866D01*
Y277182D01*
X111963D01*
Y277084D01*
X112061D01*
Y276791D01*
X112159D01*
Y276595D01*
X112257D01*
Y276302D01*
X112355D01*
Y275911D01*
X112452D01*
Y274737D01*
X112355D01*
Y274542D01*
X112257D01*
Y274444D01*
X112159D01*
Y274346D01*
X111963D01*
Y274248D01*
X111377D01*
Y274346D01*
X111279D01*
Y274444D01*
X111181D01*
Y274542D01*
X110986D01*
Y274640D01*
X110790D01*
Y274737D01*
X110301D01*
Y274640D01*
X110203D01*
Y274542D01*
X110105D01*
Y274346D01*
X110008D01*
Y273466D01*
X110105D01*
Y273172D01*
X110203D01*
Y272781D01*
X110105D01*
Y272683D01*
X109910D01*
Y272586D01*
X109812D01*
Y272683D01*
X109323D01*
Y272586D01*
X109225D01*
Y272488D01*
X109127D01*
Y272097D01*
X109029D01*
Y271901D01*
X108932D01*
Y271608D01*
X108834D01*
Y271510D01*
X108736D01*
Y271314D01*
X108638D01*
Y271216D01*
X108540D01*
Y271119D01*
X108443D01*
Y271021D01*
X108345D01*
Y270923D01*
X108149D01*
Y270825D01*
X107856D01*
Y270923D01*
X107660D01*
Y271021D01*
X107562D01*
Y271119D01*
X107465D01*
Y271216D01*
X107367D01*
Y271314D01*
X107269D01*
Y271510D01*
X107171D01*
Y271608D01*
X107073D01*
Y271705D01*
X106976D01*
Y271803D01*
X106878D01*
Y271901D01*
X106780D01*
Y271999D01*
X106682D01*
Y272097D01*
X106487D01*
Y272194D01*
X106389D01*
Y272292D01*
X106193D01*
Y272390D01*
X105802D01*
Y272488D01*
X105313D01*
Y272390D01*
X104922D01*
Y272292D01*
X104726D01*
Y272194D01*
X104531D01*
Y271999D01*
X104433D01*
Y271608D01*
X104335D01*
Y270923D01*
X104237D01*
Y268674D01*
X104335D01*
Y267989D01*
X104433D01*
Y267696D01*
X104531D01*
Y267304D01*
X104629D01*
Y267011D01*
X104726D01*
Y266718D01*
X104824D01*
Y266522D01*
X104922D01*
Y266424D01*
X105020D01*
Y266326D01*
X105215D01*
Y266229D01*
X105606D01*
Y266131D01*
X106193D01*
Y266033D01*
X107660D01*
Y265935D01*
X108638D01*
Y266033D01*
X111279D01*
Y266131D01*
X111768D01*
Y266229D01*
X111963D01*
Y266326D01*
X112257D01*
Y266424D01*
X112550D01*
Y266522D01*
X113235D01*
Y266424D01*
X113528D01*
Y266326D01*
X113626D01*
Y266033D01*
X113724D01*
Y265837D01*
X113822D01*
Y265740D01*
X114115D01*
Y265642D01*
X114409D01*
Y265544D01*
X114604D01*
Y265446D01*
X114702D01*
Y265251D01*
X114800D01*
Y264175D01*
X114702D01*
Y264077D01*
X114604D01*
Y263979D01*
X114506D01*
Y263784D01*
X114311D01*
Y263686D01*
X114017D01*
Y263588D01*
X113039D01*
Y263686D01*
X112746D01*
Y263784D01*
X112452D01*
Y263881D01*
X112257D01*
Y263979D01*
X112061D01*
Y264077D01*
X111866D01*
Y264175D01*
X111768D01*
Y264273D01*
X111670D01*
Y264370D01*
X111572D01*
Y264468D01*
X111475D01*
Y264566D01*
X111377D01*
Y264664D01*
X111279D01*
Y264762D01*
X111181D01*
Y264859D01*
X110594D01*
Y264762D01*
X110008D01*
Y264664D01*
X109519D01*
Y264566D01*
X108932D01*
Y264468D01*
X108443D01*
Y264370D01*
X107660D01*
Y264273D01*
X106878D01*
Y264175D01*
X106291D01*
Y264077D01*
X105020D01*
Y263979D01*
X103748D01*
Y264077D01*
X103650D01*
Y264273D01*
X103553D01*
Y264370D01*
X103455D01*
Y264566D01*
X103357D01*
Y264762D01*
X103259D01*
Y264957D01*
X103162D01*
Y265153D01*
X103064D01*
Y265348D01*
X102966D01*
Y265544D01*
X102868D01*
Y265837D01*
X102770D01*
Y266033D01*
X102673D01*
Y266424D01*
X102575D01*
Y266620D01*
X102477D01*
Y266913D01*
X102379D01*
Y267304D01*
X102281D01*
Y267793D01*
X102183D01*
Y267989D01*
X102086D01*
Y268967D01*
X101988D01*
Y269358D01*
X101792D01*
Y269260D01*
X100912D01*
Y269163D01*
X100619D01*
Y269065D01*
X100423D01*
Y268967D01*
X100325D01*
Y268869D01*
X100130D01*
Y268771D01*
X100032D01*
Y268674D01*
X99934D01*
Y268576D01*
X99445D01*
Y268478D01*
X98467D01*
Y268380D01*
X97196D01*
Y268282D01*
X97000D01*
Y268185D01*
X96804D01*
Y268087D01*
X96707D01*
Y267696D01*
X96902D01*
Y267598D01*
X97000D01*
Y267500D01*
X97391D01*
Y267402D01*
X97685D01*
Y267304D01*
X98076D01*
Y267207D01*
X98271D01*
Y267109D01*
X98565D01*
Y267011D01*
X98858D01*
Y266913D01*
X99152D01*
Y266815D01*
X99445D01*
Y266718D01*
X99641D01*
Y266620D01*
X99934D01*
Y266522D01*
X100130D01*
Y266424D01*
X100423D01*
Y266326D01*
X100521D01*
Y266229D01*
X100814D01*
Y266131D01*
X100912D01*
Y266033D01*
X101108D01*
Y265935D01*
X101401D01*
Y265837D01*
X101499D01*
Y265740D01*
X101597D01*
Y265642D01*
X101792D01*
Y265544D01*
X101890D01*
Y265446D01*
X101988D01*
Y265348D01*
X102183D01*
Y265251D01*
X102281D01*
Y265055D01*
X102379D01*
Y264957D01*
X102477D01*
Y264859D01*
X102575D01*
Y264664D01*
X102673D01*
Y264468D01*
X102770D01*
Y264175D01*
X102868D01*
Y263099D01*
X102770D01*
Y262806D01*
X102673D01*
Y262610D01*
X102575D01*
Y262512D01*
X102477D01*
Y262414D01*
X102379D01*
Y262317D01*
X102281D01*
Y262219D01*
X102183D01*
Y262121D01*
X102086D01*
Y262023D01*
X101988D01*
Y261925D01*
X101792D01*
Y261827D01*
X101694D01*
Y261730D01*
X101597D01*
Y261632D01*
X101499D01*
Y261534D01*
X101401D01*
Y261436D01*
X101303D01*
Y261338D01*
X101108D01*
Y261241D01*
X101010D01*
Y261143D01*
X100912D01*
Y261045D01*
X100814D01*
Y260947D01*
X100716D01*
Y260849D01*
X100619D01*
Y260752D01*
X100521D01*
Y260654D01*
X100325D01*
Y260556D01*
X100227D01*
Y260458D01*
X100130D01*
Y260361D01*
X100032D01*
Y260263D01*
X99934D01*
Y260165D01*
X99836D01*
Y260067D01*
X99738D01*
Y259969D01*
X99641D01*
Y259872D01*
X99445D01*
Y259774D01*
X99347D01*
Y259676D01*
X99249D01*
Y259578D01*
X99152D01*
Y259480D01*
X99054D01*
Y259383D01*
X98956D01*
Y259285D01*
X98760D01*
Y259187D01*
X98663D01*
Y259089D01*
X98565D01*
Y258991D01*
X98467D01*
Y258893D01*
X98369D01*
Y258796D01*
X98271D01*
Y258698D01*
X98076D01*
Y258600D01*
X97978D01*
Y258502D01*
X97880D01*
Y258404D01*
X97782D01*
Y258307D01*
X97685D01*
Y258209D01*
X97587D01*
Y258111D01*
X97489D01*
Y258013D01*
X97293D01*
Y257915D01*
X97196D01*
Y257818D01*
X97098D01*
Y257720D01*
X97000D01*
Y257622D01*
X96902D01*
Y257524D01*
X96804D01*
Y257427D01*
X96609D01*
Y257329D01*
X96511D01*
Y257231D01*
X96413D01*
Y257133D01*
X96315D01*
Y257035D01*
X96218D01*
Y256938D01*
X96120D01*
Y256840D01*
X96022D01*
Y256742D01*
X95924D01*
Y256644D01*
X95729D01*
Y256546D01*
X95631D01*
Y256449D01*
X95533D01*
Y256351D01*
X95435D01*
Y256253D01*
X95337D01*
Y256155D01*
X95240D01*
Y256057D01*
X95142D01*
Y255960D01*
X95044D01*
Y255862D01*
X94848D01*
Y255764D01*
X94751D01*
Y255666D01*
X94653D01*
Y255568D01*
X94555D01*
Y255470D01*
X94457D01*
Y255373D01*
X94359D01*
Y255275D01*
X94262D01*
Y255177D01*
X94164D01*
Y254786D01*
X94066D01*
Y253710D01*
X94164D01*
Y253417D01*
X94262D01*
Y253123D01*
X94359D01*
Y252830D01*
X94457D01*
Y252732D01*
X94555D01*
Y252537D01*
X94653D01*
Y252341D01*
X94751D01*
Y252145D01*
X94848D01*
Y252047D01*
X94946D01*
Y251950D01*
X95044D01*
Y251754D01*
X95142D01*
Y251558D01*
X95240D01*
Y251461D01*
X95337D01*
Y251363D01*
X95435D01*
Y251265D01*
X95533D01*
Y251069D01*
X95631D01*
Y250972D01*
X95729D01*
Y250776D01*
X95826D01*
Y250483D01*
X95240D01*
Y250580D01*
X94946D01*
Y250678D01*
X94653D01*
Y250776D01*
X94359D01*
Y250874D01*
X94164D01*
Y250972D01*
X93870D01*
Y251069D01*
X93675D01*
Y251167D01*
X93479D01*
Y251265D01*
X93284D01*
Y251363D01*
X93088D01*
Y251461D01*
X92892D01*
Y251558D01*
X92697D01*
Y251656D01*
X92501D01*
Y251754D01*
X92403D01*
Y251852D01*
X92208D01*
Y251950D01*
X92012D01*
Y252047D01*
X91914D01*
Y252145D01*
X91817D01*
Y252243D01*
X91621D01*
Y252341D01*
X91523D01*
Y252439D01*
X91328D01*
Y252537D01*
X91230D01*
Y252634D01*
X91132D01*
Y252732D01*
X90936D01*
Y252830D01*
X90838D01*
Y252928D01*
X90741D01*
Y253026D01*
X90643D01*
Y253123D01*
X90545D01*
Y253221D01*
X90447D01*
Y253319D01*
X90350D01*
Y253417D01*
X90252D01*
Y253515D01*
X90154D01*
Y253612D01*
X90056D01*
Y253710D01*
X89958D01*
Y253906D01*
X89860D01*
Y254101D01*
X89958D01*
Y254688D01*
X90056D01*
Y254981D01*
X89860D01*
Y254884D01*
X89763D01*
Y254786D01*
X89665D01*
Y254688D01*
X89567D01*
Y254590D01*
X89469D01*
Y254492D01*
X89372D01*
Y254297D01*
X89274D01*
Y254199D01*
X89176D01*
Y254101D01*
X89078D01*
Y254004D01*
X88980D01*
Y253906D01*
X88882D01*
Y253808D01*
X88785D01*
Y253710D01*
X88687D01*
Y253612D01*
X88589D01*
Y253221D01*
X88687D01*
Y253026D01*
X88785D01*
Y252830D01*
X88882D01*
Y252732D01*
X88980D01*
Y252537D01*
X89078D01*
Y252341D01*
X89176D01*
Y252145D01*
X89274D01*
Y251950D01*
X89372D01*
Y251656D01*
X89469D01*
Y251363D01*
X89567D01*
Y251069D01*
X89665D01*
Y250874D01*
X89763D01*
Y250483D01*
X89860D01*
Y250091D01*
X89958D01*
Y249602D01*
X90056D01*
Y248527D01*
X90154D01*
Y247744D01*
X90056D01*
Y246668D01*
X89958D01*
Y246082D01*
X89860D01*
Y245690D01*
X89763D01*
Y245299D01*
X89665D01*
Y245006D01*
X89567D01*
Y244712D01*
X89469D01*
Y244517D01*
X89372D01*
Y244223D01*
X89274D01*
Y244028D01*
X89176D01*
Y243832D01*
X89078D01*
Y243539D01*
X88980D01*
Y243343D01*
X88882D01*
Y243245D01*
X88785D01*
Y243050D01*
X88687D01*
Y242854D01*
X88589D01*
Y242756D01*
X88491D01*
Y242561D01*
X88393D01*
Y242463D01*
X88296D01*
Y242365D01*
X88198D01*
Y242170D01*
X88100D01*
Y242072D01*
X88002D01*
Y241876D01*
X87905D01*
Y241778D01*
X87807D01*
Y241681D01*
X87709D01*
Y241583D01*
X87611D01*
Y241485D01*
X87513D01*
Y241387D01*
X87415D01*
Y241289D01*
X87318D01*
Y241192D01*
X87220D01*
Y241094D01*
X87122D01*
Y240996D01*
X87024D01*
Y240898D01*
X86927D01*
Y240800D01*
X86829D01*
Y240703D01*
X86731D01*
Y240605D01*
X86633D01*
Y240507D01*
X86535D01*
Y240409D01*
X86437D01*
Y240311D01*
X86242D01*
Y240213D01*
X86144D01*
Y240116D01*
X86046D01*
Y240018D01*
X85851D01*
Y239920D01*
X85753D01*
Y239822D01*
X85557D01*
Y239724D01*
X85460D01*
Y239627D01*
X85264D01*
Y239529D01*
X85068D01*
Y239431D01*
X84970D01*
Y239333D01*
X84775D01*
Y239235D01*
X84482D01*
Y239138D01*
X84286D01*
Y239040D01*
X84090D01*
Y238942D01*
X83797D01*
Y238844D01*
X83601D01*
Y238747D01*
X83308D01*
Y238649D01*
X83015D01*
Y238551D01*
X82623D01*
Y238453D01*
X82134D01*
Y238355D01*
X81743D01*
Y238258D01*
X78711D01*
Y238355D01*
X78222D01*
Y238453D01*
X77733D01*
Y238551D01*
X77440D01*
Y238649D01*
X77146D01*
Y238747D01*
X76853D01*
Y238844D01*
X76560D01*
Y238942D01*
X76364D01*
Y239040D01*
X76071D01*
Y239138D01*
X75875D01*
Y239235D01*
X75679D01*
Y239333D01*
X75582D01*
Y239431D01*
X75386D01*
Y239529D01*
X75190D01*
Y239627D01*
X74995D01*
Y239724D01*
X74897D01*
Y239822D01*
X74701D01*
Y239920D01*
X74604D01*
Y240018D01*
X74408D01*
Y240116D01*
X74310D01*
Y240213D01*
X74212D01*
Y240311D01*
X74115D01*
Y240409D01*
X73919D01*
Y240507D01*
X73821D01*
Y240605D01*
X73723D01*
Y240703D01*
X73626D01*
Y240800D01*
X73528D01*
Y240898D01*
X73430D01*
Y240996D01*
X73332D01*
Y241094D01*
X73234D01*
Y241192D01*
X73137D01*
Y241289D01*
X73039D01*
Y241387D01*
X72941D01*
Y241485D01*
X72843D01*
Y241583D01*
X72745D01*
Y241681D01*
X72648D01*
Y241778D01*
X72550D01*
Y241974D01*
X72452D01*
Y242072D01*
X72354D01*
Y242170D01*
X72256D01*
Y242365D01*
X72159D01*
Y242463D01*
X72061D01*
Y242561D01*
X71963D01*
Y242756D01*
X71865D01*
Y242952D01*
X71767D01*
Y243050D01*
X71670D01*
Y243245D01*
X71572D01*
Y243441D01*
X71474D01*
Y243539D01*
X71376D01*
Y243832D01*
X71278D01*
Y244028D01*
X71181D01*
Y244223D01*
X71083D01*
Y244517D01*
X70985D01*
Y244712D01*
X70887D01*
Y245006D01*
X70789D01*
Y245299D01*
X70692D01*
Y245788D01*
X70594D01*
Y246277D01*
X70496D01*
Y246864D01*
X70398D01*
Y249211D01*
X70496D01*
Y249896D01*
X70594D01*
Y250385D01*
X70692D01*
Y250874D01*
X70789D01*
Y251069D01*
X70887D01*
Y251363D01*
X70985D01*
Y251656D01*
X71083D01*
Y251852D01*
X71181D01*
Y252145D01*
X71278D01*
Y252341D01*
X71376D01*
Y252537D01*
X71474D01*
Y252732D01*
X71572D01*
Y252928D01*
X71670D01*
Y253026D01*
X71767D01*
Y253221D01*
X71865D01*
Y253417D01*
X71963D01*
Y253515D01*
X72061D01*
Y253710D01*
X72159D01*
Y253808D01*
X72256D01*
Y253906D01*
X72354D01*
Y254101D01*
X72452D01*
Y254199D01*
X72550D01*
Y254297D01*
X72648D01*
Y254395D01*
X72745D01*
Y254590D01*
X72843D01*
Y254688D01*
X72941D01*
Y254786D01*
X73039D01*
Y254884D01*
X73137D01*
Y254981D01*
X73234D01*
Y255079D01*
X73332D01*
Y255177D01*
X73430D01*
Y255275D01*
X73528D01*
Y255373D01*
X73626D01*
Y255470D01*
X73723D01*
Y255568D01*
X73821D01*
Y255666D01*
X74017D01*
Y255764D01*
X74115D01*
Y255862D01*
X74212D01*
Y255960D01*
X74408D01*
Y256057D01*
X74506D01*
Y256155D01*
X74604D01*
Y256253D01*
X74799D01*
Y256351D01*
X74897D01*
Y256449D01*
X75093D01*
Y256546D01*
X75288D01*
Y256644D01*
X75484D01*
Y256742D01*
X75582D01*
Y256840D01*
X75777D01*
Y256938D01*
X76071D01*
Y257035D01*
X76168D01*
Y257133D01*
X76364D01*
Y257231D01*
X76657D01*
Y257329D01*
X76951D01*
Y257427D01*
X77244D01*
Y257524D01*
X77538D01*
Y257622D01*
X78027D01*
Y257720D01*
X78418D01*
Y257818D01*
X79005D01*
Y257915D01*
X81254D01*
Y257818D01*
X82037D01*
Y257720D01*
X82428D01*
Y257622D01*
X82917D01*
Y257524D01*
X83210D01*
Y257427D01*
X83504D01*
Y257329D01*
X83699D01*
Y257231D01*
X83992D01*
Y257133D01*
X84286D01*
Y257035D01*
X84482D01*
Y256938D01*
X84579D01*
Y256840D01*
X84873D01*
Y256742D01*
X84970D01*
Y256644D01*
X85166D01*
Y256546D01*
X85362D01*
Y256449D01*
X85557D01*
Y256351D01*
X85655D01*
Y256253D01*
X85851D01*
Y256155D01*
X85948D01*
Y256057D01*
X86046D01*
Y255960D01*
X86242D01*
Y255862D01*
X86340D01*
Y255764D01*
X86437D01*
Y255666D01*
X86535D01*
Y255568D01*
X86731D01*
Y255470D01*
X87122D01*
Y255568D01*
X87220D01*
Y255666D01*
X87318D01*
Y255764D01*
X87513D01*
Y255862D01*
X87611D01*
Y255960D01*
X87807D01*
Y256057D01*
X87905D01*
Y256155D01*
X88002D01*
Y256253D01*
X88198D01*
Y256351D01*
X88296D01*
Y256449D01*
X88393D01*
Y256546D01*
X88491D01*
Y256644D01*
X88687D01*
Y256742D01*
X88785D01*
Y256840D01*
X88882D01*
Y256938D01*
X88980D01*
Y257035D01*
X89176D01*
Y257133D01*
X89274D01*
Y257231D01*
X89372D01*
Y257329D01*
X89469D01*
Y257915D01*
X89372D01*
Y258404D01*
X89274D01*
Y258600D01*
X89176D01*
Y258991D01*
X89078D01*
Y259285D01*
X88980D01*
Y259676D01*
X88882D01*
Y259969D01*
X88785D01*
Y260361D01*
X88687D01*
Y260752D01*
X88589D01*
Y260947D01*
X88491D01*
Y261338D01*
X88393D01*
Y261730D01*
X88296D01*
Y262023D01*
X88198D01*
Y262414D01*
X88100D01*
Y262806D01*
X88002D01*
Y263001D01*
X87905D01*
Y263197D01*
X87807D01*
Y263392D01*
X87709D01*
Y263490D01*
X87513D01*
Y263588D01*
X87122D01*
Y263490D01*
X86242D01*
Y263392D01*
X85068D01*
Y263490D01*
X84970D01*
Y263588D01*
X84775D01*
Y263686D01*
X84677D01*
Y263881D01*
X84579D01*
Y264077D01*
X84482D01*
Y264468D01*
X84579D01*
Y264762D01*
X84677D01*
Y264859D01*
X84775D01*
Y264957D01*
X84873D01*
Y265055D01*
X84970D01*
Y265153D01*
X85851D01*
Y265251D01*
X86731D01*
Y265153D01*
X87415D01*
Y265055D01*
X87905D01*
Y264957D01*
X88198D01*
Y264859D01*
X88393D01*
Y264762D01*
X88687D01*
Y264664D01*
X88785D01*
Y264566D01*
X88980D01*
Y264468D01*
X89078D01*
Y264370D01*
X89176D01*
Y264175D01*
X89274D01*
Y264077D01*
X89372D01*
Y263784D01*
X89469D01*
Y263588D01*
X89567D01*
Y263295D01*
X89665D01*
Y263099D01*
X89763D01*
Y262806D01*
X89860D01*
Y262512D01*
X89958D01*
Y262219D01*
X90056D01*
Y262023D01*
X90154D01*
Y261730D01*
X90252D01*
Y261436D01*
X90350D01*
Y261045D01*
X90447D01*
Y260849D01*
X90545D01*
Y260458D01*
X90643D01*
Y260165D01*
X90741D01*
Y259872D01*
X90838D01*
Y259578D01*
X90936D01*
Y259285D01*
X91034D01*
Y258893D01*
X91132D01*
Y258600D01*
X91230D01*
Y258307D01*
X91621D01*
Y258404D01*
X91719D01*
Y258502D01*
X91914D01*
Y258600D01*
X92012D01*
Y258698D01*
X92110D01*
Y258796D01*
X92208D01*
Y259187D01*
X92110D01*
Y259383D01*
X92012D01*
Y259578D01*
X91914D01*
Y259774D01*
X91817D01*
Y259969D01*
X91719D01*
Y260263D01*
X91621D01*
Y260458D01*
X91523D01*
Y260752D01*
X91425D01*
Y260947D01*
X91328D01*
Y261143D01*
X91230D01*
Y261338D01*
X91132D01*
Y261632D01*
X91034D01*
Y261827D01*
X90936D01*
Y262121D01*
X90838D01*
Y262317D01*
X90741D01*
Y262512D01*
X90643D01*
Y262708D01*
X90545D01*
Y263001D01*
X90447D01*
Y263197D01*
X90350D01*
Y263392D01*
X90252D01*
Y263686D01*
X90154D01*
Y263784D01*
X90056D01*
Y263979D01*
X90154D01*
Y264077D01*
X90350D01*
Y263979D01*
X90545D01*
Y263881D01*
X90741D01*
Y263784D01*
X90936D01*
Y263686D01*
X91230D01*
Y263588D01*
X91425D01*
Y263490D01*
X91719D01*
Y263392D01*
X92012D01*
Y263295D01*
X92306D01*
Y263197D01*
X92697D01*
Y263099D01*
X93186D01*
Y263001D01*
X93479D01*
Y262903D01*
X94262D01*
Y262806D01*
X94555D01*
Y262708D01*
X96120D01*
Y262610D01*
X96218D01*
Y262512D01*
X96315D01*
Y262414D01*
X96218D01*
Y262219D01*
X96022D01*
Y262121D01*
X95924D01*
Y261925D01*
X95826D01*
Y261827D01*
X95729D01*
Y261730D01*
X95631D01*
Y261534D01*
X95533D01*
Y261436D01*
X95435D01*
Y261338D01*
X95337D01*
Y261241D01*
X95240D01*
Y261045D01*
X95142D01*
Y260947D01*
X95044D01*
Y260849D01*
X94946D01*
Y260752D01*
X94848D01*
Y260654D01*
X94751D01*
Y260556D01*
X94653D01*
Y260361D01*
X94555D01*
Y260263D01*
X94457D01*
Y260165D01*
X94359D01*
Y259969D01*
X94262D01*
Y259872D01*
X94164D01*
Y259774D01*
X94066D01*
Y259578D01*
X93968D01*
Y259480D01*
X93870D01*
Y259383D01*
X93773D01*
Y259285D01*
X93675D01*
Y259089D01*
X93577D01*
Y258991D01*
X93479D01*
Y258893D01*
X93381D01*
Y258796D01*
X93284D01*
Y258698D01*
X93186D01*
Y258502D01*
X93088D01*
Y258404D01*
X92990D01*
Y258307D01*
X92892D01*
Y258209D01*
X92795D01*
Y258111D01*
X92697D01*
Y258013D01*
X92599D01*
Y257818D01*
X92501D01*
Y257720D01*
X92403D01*
Y257622D01*
X92306D01*
Y257524D01*
X92208D01*
Y257427D01*
X92110D01*
Y257329D01*
X92012D01*
Y257231D01*
X91914D01*
Y257133D01*
X91817D01*
Y256938D01*
X91719D01*
Y256840D01*
X91621D01*
Y256742D01*
X91523D01*
Y256644D01*
X91425D01*
Y256546D01*
X91230D01*
Y256351D01*
X91132D01*
Y256253D01*
X91034D01*
Y256155D01*
X90936D01*
Y256057D01*
X90838D01*
Y255960D01*
X90741D01*
Y255862D01*
X90643D01*
Y255666D01*
X91034D01*
Y255764D01*
X91328D01*
Y255862D01*
X91914D01*
Y255960D01*
X92012D01*
Y256155D01*
X92110D01*
Y256253D01*
X92208D01*
Y256351D01*
X92306D01*
Y256449D01*
X92403D01*
Y256546D01*
X92501D01*
Y256742D01*
X92599D01*
Y256840D01*
X92697D01*
Y256938D01*
X92795D01*
Y257035D01*
X92892D01*
Y257133D01*
X92990D01*
Y257231D01*
X93088D01*
Y257427D01*
X93186D01*
Y257524D01*
X93284D01*
Y257622D01*
X93381D01*
Y257720D01*
X93479D01*
Y257818D01*
X93577D01*
Y258013D01*
X93675D01*
Y258111D01*
X93773D01*
Y258209D01*
X93870D01*
Y258307D01*
X93968D01*
Y258404D01*
X94066D01*
Y258502D01*
X94164D01*
Y258600D01*
X94262D01*
Y258796D01*
X94359D01*
Y258893D01*
X94457D01*
Y258991D01*
X94555D01*
Y259089D01*
X94653D01*
Y259187D01*
X94751D01*
Y259383D01*
X94848D01*
Y259480D01*
X94946D01*
Y259578D01*
X95044D01*
Y259676D01*
X95142D01*
Y259774D01*
X95240D01*
Y259872D01*
X95337D01*
Y260067D01*
X95435D01*
Y260165D01*
X95533D01*
Y260263D01*
X95631D01*
Y260361D01*
X95729D01*
Y260458D01*
X95826D01*
Y260556D01*
X95924D01*
Y260752D01*
X96022D01*
Y260849D01*
X96120D01*
Y260947D01*
X96218D01*
Y261045D01*
X96315D01*
Y261143D01*
X96413D01*
Y261241D01*
X96511D01*
Y261436D01*
X96609D01*
Y261534D01*
X96707D01*
Y261632D01*
X96804D01*
Y261730D01*
X96902D01*
Y261827D01*
X97000D01*
Y262023D01*
X97098D01*
Y262121D01*
X97196D01*
Y262219D01*
X97293D01*
Y262317D01*
X97391D01*
Y262414D01*
X97489D01*
Y262610D01*
X97587D01*
Y262708D01*
X97685D01*
Y262903D01*
X97782D01*
Y263001D01*
X97685D01*
Y263197D01*
X97587D01*
Y263295D01*
X96218D01*
Y263392D01*
X94457D01*
Y263490D01*
X93773D01*
Y263588D01*
X93186D01*
Y263686D01*
X92599D01*
Y263784D01*
X92306D01*
Y263881D01*
X91914D01*
Y263979D01*
X91621D01*
Y264077D01*
X91328D01*
Y264175D01*
X91034D01*
Y264273D01*
X90741D01*
Y264370D01*
X90545D01*
Y264468D01*
X90252D01*
Y264566D01*
X90056D01*
Y264664D01*
X89860D01*
Y264762D01*
X89665D01*
Y264859D01*
X89469D01*
Y264957D01*
X89274D01*
Y265055D01*
X89176D01*
Y265153D01*
X88980D01*
Y265251D01*
X88785D01*
Y265348D01*
X88687D01*
Y265446D01*
X88589D01*
Y265544D01*
X88393D01*
Y265642D01*
X88296D01*
Y265740D01*
X88198D01*
Y265837D01*
X88100D01*
Y265935D01*
X87905D01*
Y266033D01*
X87807D01*
Y266229D01*
X87709D01*
Y266326D01*
X87611D01*
Y266522D01*
X87513D01*
Y266620D01*
X87415D01*
Y266815D01*
X87318D01*
Y267011D01*
X87220D01*
Y267304D01*
X87122D01*
Y267891D01*
X87024D01*
Y268185D01*
X87122D01*
Y268771D01*
X87220D01*
Y269065D01*
X87318D01*
Y269260D01*
X87415D01*
Y269456D01*
X87513D01*
Y269652D01*
X87611D01*
Y269749D01*
X87709D01*
Y269847D01*
X87807D01*
Y270043D01*
X87905D01*
Y270141D01*
X88002D01*
Y270238D01*
X88100D01*
Y270336D01*
X88198D01*
Y270434D01*
X88296D01*
Y270532D01*
X88393D01*
Y270630D01*
X88491D01*
Y270727D01*
X88589D01*
Y270825D01*
X88687D01*
Y270923D01*
X88785D01*
Y271021D01*
X88882D01*
Y271119D01*
X88980D01*
Y271216D01*
X89078D01*
Y271314D01*
X89176D01*
Y271412D01*
X89274D01*
Y271510D01*
X89469D01*
Y271608D01*
X89567D01*
Y271705D01*
X89763D01*
Y271803D01*
X89860D01*
Y271901D01*
X89958D01*
Y271999D01*
X90154D01*
Y272097D01*
X90252D01*
Y272194D01*
X90350D01*
Y272292D01*
X90545D01*
Y272390D01*
X90643D01*
Y272488D01*
X90741D01*
Y272586D01*
X90936D01*
Y272683D01*
X91132D01*
Y272781D01*
X91230D01*
Y272879D01*
X91425D01*
Y272977D01*
X91523D01*
Y273075D01*
X91719D01*
Y273172D01*
X91914D01*
Y273270D01*
X92110D01*
Y273368D01*
X92306D01*
Y273466D01*
X92501D01*
Y273564D01*
X92697D01*
Y273661D01*
X92892D01*
Y273759D01*
X93088D01*
Y273857D01*
X93284D01*
Y273955D01*
X93479D01*
Y274053D01*
X93773D01*
Y274150D01*
X94066D01*
Y274248D01*
X94262D01*
Y274346D01*
X94457D01*
Y274444D01*
X94848D01*
Y274542D01*
X95142D01*
Y274640D01*
X95533D01*
Y274737D01*
X95826D01*
Y274835D01*
X96218D01*
Y274933D01*
X96707D01*
Y275031D01*
X97098D01*
Y275129D01*
X97782D01*
Y275226D01*
X98565D01*
Y275324D01*
X102966D01*
Y275422D01*
X103357D01*
Y275520D01*
X103553D01*
Y275618D01*
X103748D01*
Y275715D01*
X103846D01*
Y275813D01*
X103944D01*
Y275911D01*
X104042D01*
Y276009D01*
X104139D01*
Y276107D01*
X104237D01*
Y276302D01*
X104335D01*
Y276595D01*
X104433D01*
Y276987D01*
X104335D01*
Y278552D01*
X104433D01*
Y278747D01*
X104531D01*
Y278943D01*
X104629D01*
Y279041D01*
X104824D01*
Y279138D01*
X105020D01*
Y279236D01*
X105117D01*
Y279334D01*
X105215D01*
Y279627D01*
X105117D01*
Y279823D01*
X105020D01*
Y279921D01*
X104922D01*
Y280116D01*
X104824D01*
Y280214D01*
X104726D01*
Y280312D01*
X104629D01*
Y280410D01*
X104726D01*
Y280507D01*
X105998D01*
Y280410D01*
D02*
G37*
G36*
X87415Y271803D02*
X87318D01*
Y271705D01*
X87024D01*
Y271803D01*
X83112D01*
Y271901D01*
X79396D01*
Y271999D01*
X75582D01*
Y272097D01*
X72256D01*
Y272194D01*
X71865D01*
Y272292D01*
X73430D01*
Y272390D01*
X75679D01*
Y272488D01*
X81841D01*
Y272586D01*
X85068D01*
Y272683D01*
X87415D01*
Y271803D01*
D02*
G37*
G36*
X86046Y267304D02*
X85948D01*
Y267207D01*
X84775D01*
Y267304D01*
X81156D01*
Y267402D01*
X77440D01*
Y267500D01*
X73723D01*
Y267598D01*
X69322D01*
Y267696D01*
X67757D01*
Y267793D01*
X67953D01*
Y267891D01*
X69420D01*
Y267989D01*
X73821D01*
Y268087D01*
X78418D01*
Y268185D01*
X82917D01*
Y268282D01*
X86046D01*
Y267304D01*
D02*
G37*
G36*
X87122Y261436D02*
X87220D01*
Y260947D01*
X87122D01*
Y260361D01*
X84482D01*
Y260458D01*
X81352D01*
Y260556D01*
X76853D01*
Y260654D01*
X74212D01*
Y260752D01*
X69029D01*
Y260849D01*
X66877D01*
Y260947D01*
X66780D01*
Y261045D01*
X68247D01*
Y261143D01*
X71963D01*
Y261241D01*
X72159D01*
Y261143D01*
X72256D01*
Y261241D01*
X77342D01*
Y261338D01*
X81156D01*
Y261436D01*
X85948D01*
Y261534D01*
X87122D01*
Y261436D01*
D02*
G37*
G36*
X110692Y264273D02*
X110790D01*
Y264175D01*
X110888D01*
Y264077D01*
X111083D01*
Y263979D01*
X111181D01*
Y263881D01*
X111279D01*
Y263784D01*
X111377D01*
Y263686D01*
X111572D01*
Y263588D01*
X111768D01*
Y263490D01*
X111963D01*
Y263392D01*
X112159D01*
Y263295D01*
X112550D01*
Y263197D01*
X112942D01*
Y263099D01*
X114017D01*
Y263001D01*
X114115D01*
Y262317D01*
X114017D01*
Y261925D01*
X113920D01*
Y261632D01*
X113822D01*
Y261436D01*
X113724D01*
Y261241D01*
X113626D01*
Y261045D01*
X113528D01*
Y260947D01*
X113431D01*
Y260752D01*
X113235D01*
Y260654D01*
X113137D01*
Y260458D01*
X112942D01*
Y260361D01*
X112844D01*
Y260263D01*
X112746D01*
Y260165D01*
X112550D01*
Y260067D01*
X112355D01*
Y259969D01*
X112159D01*
Y259872D01*
X111963D01*
Y259774D01*
X111768D01*
Y259676D01*
X111475D01*
Y259578D01*
X111181D01*
Y259480D01*
X110496D01*
Y259578D01*
X110301D01*
Y259676D01*
X110203D01*
Y259774D01*
X110105D01*
Y259872D01*
X110008D01*
Y260165D01*
X109910D01*
Y260654D01*
X110008D01*
Y260849D01*
X110105D01*
Y260947D01*
X110301D01*
Y261045D01*
X110594D01*
Y261143D01*
X110790D01*
Y261241D01*
X110986D01*
Y261338D01*
X111181D01*
Y261436D01*
X111279D01*
Y261534D01*
X111377D01*
Y261632D01*
X111475D01*
Y261730D01*
X111670D01*
Y261827D01*
X111768D01*
Y262023D01*
X111866D01*
Y262121D01*
X111963D01*
Y262219D01*
X112061D01*
Y262414D01*
X111963D01*
Y262512D01*
X111866D01*
Y262610D01*
X111768D01*
Y262708D01*
X111572D01*
Y262806D01*
X111377D01*
Y262903D01*
X110692D01*
Y262806D01*
X110105D01*
Y262708D01*
X109323D01*
Y262610D01*
X108638D01*
Y262512D01*
X108540D01*
Y262121D01*
X108638D01*
Y261730D01*
X108736D01*
Y261436D01*
X108834D01*
Y261045D01*
X108932D01*
Y260654D01*
X109029D01*
Y260361D01*
X109127D01*
Y259872D01*
X109225D01*
Y259676D01*
X109323D01*
Y259285D01*
X109421D01*
Y258893D01*
X109519D01*
Y258698D01*
X109616D01*
Y258307D01*
X109714D01*
Y257818D01*
X109812D01*
Y257622D01*
X109910D01*
Y257524D01*
X110008D01*
Y257427D01*
X110301D01*
Y257524D01*
X110986D01*
Y257622D01*
X111768D01*
Y257720D01*
X113039D01*
Y257622D01*
X113822D01*
Y257524D01*
X114311D01*
Y257427D01*
X114800D01*
Y257329D01*
X115093D01*
Y257231D01*
X115387D01*
Y257133D01*
X115680D01*
Y257035D01*
X115876D01*
Y256938D01*
X116169D01*
Y256840D01*
X116365D01*
Y256742D01*
X116560D01*
Y256644D01*
X116756D01*
Y256546D01*
X116951D01*
Y256449D01*
X117147D01*
Y256351D01*
X117343D01*
Y256253D01*
X117440D01*
Y256155D01*
X117636D01*
Y256057D01*
X117832D01*
Y255960D01*
X117929D01*
Y255862D01*
X118027D01*
Y255764D01*
X118223D01*
Y255666D01*
X118321D01*
Y255568D01*
X118418D01*
Y255470D01*
X118516D01*
Y255373D01*
X118712D01*
Y255275D01*
X118810D01*
Y255079D01*
X119005D01*
Y254981D01*
X119103D01*
Y254884D01*
X119201D01*
Y254786D01*
X119299D01*
Y254688D01*
X119396D01*
Y254590D01*
X119494D01*
Y254395D01*
X119592D01*
Y254297D01*
X119690D01*
Y254199D01*
X119788D01*
Y254101D01*
X119885D01*
Y254004D01*
X119983D01*
Y253808D01*
X120081D01*
Y253710D01*
X120179D01*
Y253612D01*
X120277D01*
Y253417D01*
X120374D01*
Y253319D01*
X120472D01*
Y253123D01*
X120570D01*
Y252928D01*
X120668D01*
Y252732D01*
X120766D01*
Y252634D01*
X120863D01*
Y252439D01*
X120961D01*
Y252243D01*
X121059D01*
Y251950D01*
X121157D01*
Y251754D01*
X121255D01*
Y251558D01*
X121352D01*
Y251265D01*
X121450D01*
Y250972D01*
X121548D01*
Y250678D01*
X121646D01*
Y250189D01*
X121744D01*
Y249798D01*
X121841D01*
Y249113D01*
X121939D01*
Y247157D01*
X121841D01*
Y246375D01*
X121744D01*
Y245984D01*
X121646D01*
Y245397D01*
X121548D01*
Y245201D01*
X121450D01*
Y244908D01*
X121352D01*
Y244615D01*
X121255D01*
Y244419D01*
X121157D01*
Y244223D01*
X121059D01*
Y243930D01*
X120961D01*
Y243832D01*
X120863D01*
Y243539D01*
X120766D01*
Y243441D01*
X120668D01*
Y243245D01*
X120570D01*
Y243050D01*
X120472D01*
Y242854D01*
X120374D01*
Y242756D01*
X120277D01*
Y242561D01*
X120179D01*
Y242463D01*
X120081D01*
Y242365D01*
X119983D01*
Y242170D01*
X119885D01*
Y242072D01*
X119788D01*
Y241974D01*
X119690D01*
Y241876D01*
X119592D01*
Y241681D01*
X119494D01*
Y241583D01*
X119396D01*
Y241485D01*
X119299D01*
Y241387D01*
X119201D01*
Y241289D01*
X119103D01*
Y241192D01*
X119005D01*
Y241094D01*
X118907D01*
Y240996D01*
X118810D01*
Y240898D01*
X118712D01*
Y240800D01*
X118516D01*
Y240703D01*
X118418D01*
Y240605D01*
X118321D01*
Y240507D01*
X118223D01*
Y240409D01*
X118027D01*
Y240311D01*
X117929D01*
Y240213D01*
X117832D01*
Y240116D01*
X117636D01*
Y240018D01*
X117440D01*
Y239920D01*
X117343D01*
Y239822D01*
X117147D01*
Y239724D01*
X116951D01*
Y239627D01*
X116756D01*
Y239529D01*
X116560D01*
Y239431D01*
X116365D01*
Y239333D01*
X116169D01*
Y239235D01*
X115876D01*
Y239138D01*
X115680D01*
Y239040D01*
X115387D01*
Y238942D01*
X115093D01*
Y238844D01*
X114800D01*
Y238747D01*
X114311D01*
Y238649D01*
X113822D01*
Y238551D01*
X113137D01*
Y238453D01*
X112355D01*
Y238355D01*
X111670D01*
Y238258D01*
X110594D01*
Y238355D01*
X109812D01*
Y238453D01*
X109225D01*
Y238551D01*
X108834D01*
Y238649D01*
X108443D01*
Y238747D01*
X108149D01*
Y238844D01*
X107856D01*
Y238942D01*
X107562D01*
Y239040D01*
X107367D01*
Y239138D01*
X107171D01*
Y239235D01*
X106976D01*
Y239333D01*
X106682D01*
Y239431D01*
X106585D01*
Y239529D01*
X106389D01*
Y239627D01*
X106193D01*
Y239724D01*
X105998D01*
Y239822D01*
X105900D01*
Y239920D01*
X105704D01*
Y240018D01*
X105606D01*
Y240116D01*
X105411D01*
Y240213D01*
X105313D01*
Y240311D01*
X105215D01*
Y240409D01*
X105117D01*
Y240507D01*
X104922D01*
Y240605D01*
X104824D01*
Y240703D01*
X104726D01*
Y240800D01*
X104629D01*
Y240898D01*
X104531D01*
Y240996D01*
X104433D01*
Y241094D01*
X104335D01*
Y241192D01*
X104237D01*
Y241289D01*
X104139D01*
Y241387D01*
X104042D01*
Y241485D01*
X103944D01*
Y241583D01*
X103846D01*
Y241681D01*
X103748D01*
Y241876D01*
X103650D01*
Y241974D01*
X103553D01*
Y242072D01*
X103455D01*
Y242267D01*
X103357D01*
Y242365D01*
X103259D01*
Y242561D01*
X103162D01*
Y242659D01*
X103064D01*
Y242854D01*
X102966D01*
Y242952D01*
X102868D01*
Y243148D01*
X102770D01*
Y243343D01*
X102673D01*
Y243441D01*
X102575D01*
Y243734D01*
X102477D01*
Y243930D01*
X102379D01*
Y244126D01*
X102281D01*
Y244419D01*
X102183D01*
Y244712D01*
X102086D01*
Y245006D01*
X101988D01*
Y245299D01*
X101890D01*
Y245788D01*
X101792D01*
Y246179D01*
X101694D01*
Y246668D01*
X101597D01*
Y249016D01*
X101694D01*
Y249602D01*
X101792D01*
Y249994D01*
X101890D01*
Y250385D01*
X101988D01*
Y250678D01*
X102086D01*
Y250972D01*
X102183D01*
Y251363D01*
X102281D01*
Y251558D01*
X102379D01*
Y251754D01*
X102477D01*
Y251950D01*
X102575D01*
Y252145D01*
X102673D01*
Y252341D01*
X102770D01*
Y252439D01*
X102868D01*
Y252732D01*
X102966D01*
Y252830D01*
X103064D01*
Y253026D01*
X103162D01*
Y253221D01*
X103259D01*
Y253319D01*
X103357D01*
Y253417D01*
X103455D01*
Y253612D01*
X103553D01*
Y253710D01*
X103650D01*
Y253808D01*
X103748D01*
Y253906D01*
X103846D01*
Y254101D01*
X103944D01*
Y254199D01*
X104042D01*
Y254297D01*
X104139D01*
Y254395D01*
X104237D01*
Y254492D01*
X104335D01*
Y254590D01*
X104433D01*
Y254688D01*
X104531D01*
Y254786D01*
X104629D01*
Y254884D01*
X104726D01*
Y254981D01*
X104824D01*
Y255079D01*
X104922D01*
Y255177D01*
X105117D01*
Y255275D01*
X105215D01*
Y255373D01*
X105313D01*
Y255470D01*
X105411D01*
Y255568D01*
X105606D01*
Y255666D01*
X105704D01*
Y255764D01*
X105900D01*
Y255862D01*
X106096D01*
Y255960D01*
X106193D01*
Y256057D01*
X106389D01*
Y256155D01*
X106487D01*
Y256253D01*
X106682D01*
Y256351D01*
X106976D01*
Y256449D01*
X107171D01*
Y256546D01*
X107367D01*
Y256644D01*
X107660D01*
Y256742D01*
X107856D01*
Y256840D01*
X108247D01*
Y256938D01*
X108345D01*
Y257231D01*
X108247D01*
Y257524D01*
X108149D01*
Y257720D01*
X108052D01*
Y257915D01*
X107954D01*
Y258111D01*
X107856D01*
Y258307D01*
X107758D01*
Y258404D01*
X107562D01*
Y258307D01*
X107465D01*
Y258209D01*
X107367D01*
Y258111D01*
X107269D01*
Y258013D01*
X107171D01*
Y257915D01*
X107073D01*
Y257818D01*
X106976D01*
Y257720D01*
X106878D01*
Y257622D01*
X106780D01*
Y257524D01*
X106682D01*
Y257427D01*
X106585D01*
Y257329D01*
X106487D01*
Y257231D01*
X106291D01*
Y257133D01*
X106193D01*
Y257035D01*
X106096D01*
Y256938D01*
X105998D01*
Y256840D01*
X105900D01*
Y256644D01*
X105704D01*
Y256546D01*
X105606D01*
Y256351D01*
X105509D01*
Y256253D01*
X105313D01*
Y256057D01*
X105215D01*
Y255960D01*
X105020D01*
Y255862D01*
X104922D01*
Y255764D01*
X104824D01*
Y255666D01*
X104726D01*
Y255568D01*
X104629D01*
Y255470D01*
X104531D01*
Y255373D01*
X104433D01*
Y255275D01*
X104335D01*
Y255177D01*
X104237D01*
Y255079D01*
X104139D01*
Y254981D01*
X104042D01*
Y254884D01*
X103944D01*
Y254786D01*
X103846D01*
Y254688D01*
X103748D01*
Y254590D01*
X103650D01*
Y254492D01*
X103553D01*
Y254395D01*
X103455D01*
Y254297D01*
X103357D01*
Y254199D01*
X103259D01*
Y254101D01*
X103162D01*
Y254004D01*
X103064D01*
Y253906D01*
X102966D01*
Y253808D01*
X102770D01*
Y253710D01*
X102673D01*
Y253612D01*
X102575D01*
Y253515D01*
X102477D01*
Y253417D01*
X102379D01*
Y253319D01*
X102281D01*
Y253221D01*
X102183D01*
Y253123D01*
X102086D01*
Y253026D01*
X101988D01*
Y252928D01*
X101890D01*
Y252830D01*
X101792D01*
Y252732D01*
X101694D01*
Y252634D01*
X101597D01*
Y252537D01*
X101499D01*
Y252439D01*
X101401D01*
Y252341D01*
X101303D01*
Y252243D01*
X101205D01*
Y252145D01*
X101108D01*
Y252047D01*
X101010D01*
Y251950D01*
X100912D01*
Y251852D01*
X100814D01*
Y251754D01*
X100716D01*
Y251656D01*
X100619D01*
Y251558D01*
X100521D01*
Y251461D01*
X100423D01*
Y251363D01*
X100325D01*
Y251265D01*
X100130D01*
Y251167D01*
X100032D01*
Y250972D01*
X99934D01*
Y250874D01*
X99738D01*
Y250678D01*
X99641D01*
Y250580D01*
X99543D01*
Y250483D01*
X99347D01*
Y250385D01*
X99249D01*
Y250287D01*
X99152D01*
Y250189D01*
X99054D01*
Y250091D01*
X98956D01*
Y249994D01*
X98858D01*
Y249896D01*
X98760D01*
Y249798D01*
X98663D01*
Y249700D01*
X98565D01*
Y249602D01*
X98467D01*
Y249505D01*
X98369D01*
Y249407D01*
X98271D01*
Y249309D01*
X98174D01*
Y249211D01*
X98076D01*
Y249113D01*
X97978D01*
Y249016D01*
X97880D01*
Y248918D01*
X97782D01*
Y248820D01*
X97685D01*
Y248722D01*
X97587D01*
Y248624D01*
X97489D01*
Y248527D01*
X97391D01*
Y248429D01*
X97293D01*
Y248331D01*
X97196D01*
Y248233D01*
X97098D01*
Y248135D01*
X96707D01*
Y248331D01*
X96609D01*
Y248429D01*
X96511D01*
Y248527D01*
X96413D01*
Y248624D01*
X96315D01*
Y248722D01*
X96218D01*
Y248820D01*
X96120D01*
Y248918D01*
X95924D01*
Y249016D01*
X95826D01*
Y249113D01*
X95631D01*
Y249211D01*
X95533D01*
Y249309D01*
X95240D01*
Y249407D01*
X95044D01*
Y249505D01*
X94653D01*
Y249602D01*
X93773D01*
Y249505D01*
X93675D01*
Y249309D01*
X93773D01*
Y249211D01*
X94848D01*
Y249113D01*
X95044D01*
Y249016D01*
X95337D01*
Y248918D01*
X95533D01*
Y248820D01*
X95631D01*
Y248722D01*
X95826D01*
Y248624D01*
X95924D01*
Y248527D01*
X96022D01*
Y248429D01*
X96120D01*
Y248331D01*
X96218D01*
Y248135D01*
X96315D01*
Y248038D01*
X96413D01*
Y247842D01*
X96511D01*
Y247646D01*
X96609D01*
Y247451D01*
X96707D01*
Y245886D01*
X96609D01*
Y245690D01*
X96511D01*
Y245299D01*
X96413D01*
Y245201D01*
X96315D01*
Y245104D01*
X96218D01*
Y244908D01*
X96120D01*
Y244810D01*
X96022D01*
Y244712D01*
X95924D01*
Y244615D01*
X95826D01*
Y244517D01*
X95631D01*
Y244419D01*
X95533D01*
Y244321D01*
X95337D01*
Y244223D01*
X95142D01*
Y244126D01*
X95044D01*
Y243832D01*
X95142D01*
Y243734D01*
X95435D01*
Y243832D01*
X95533D01*
Y243930D01*
X95729D01*
Y244028D01*
X95826D01*
Y244126D01*
X96022D01*
Y244223D01*
X96413D01*
Y244126D01*
X96707D01*
Y244028D01*
X96804D01*
Y243930D01*
X97000D01*
Y243832D01*
X97978D01*
Y243734D01*
X98076D01*
Y243637D01*
X98174D01*
Y243441D01*
X98271D01*
Y243050D01*
X98174D01*
Y242854D01*
X98076D01*
Y242756D01*
X97685D01*
Y242659D01*
X96902D01*
Y242756D01*
X96804D01*
Y242659D01*
X96315D01*
Y242561D01*
X96218D01*
Y242170D01*
X94457D01*
Y242072D01*
X94066D01*
Y242170D01*
X93968D01*
Y242072D01*
X93577D01*
Y242170D01*
X93479D01*
Y242267D01*
X93381D01*
Y242561D01*
X93479D01*
Y242659D01*
X93381D01*
Y242854D01*
X93186D01*
Y242952D01*
X92990D01*
Y242854D01*
X92403D01*
Y242952D01*
X92208D01*
Y243050D01*
X92110D01*
Y243441D01*
X92208D01*
Y243734D01*
X92306D01*
Y243832D01*
X92697D01*
Y243734D01*
X93088D01*
Y243637D01*
X93577D01*
Y243539D01*
X93968D01*
Y243441D01*
X94262D01*
Y243539D01*
X94359D01*
Y243930D01*
X94262D01*
Y244028D01*
X93577D01*
Y244126D01*
X93186D01*
Y244223D01*
X92892D01*
Y244321D01*
X92697D01*
Y244419D01*
X92501D01*
Y244517D01*
X92403D01*
Y244615D01*
X92306D01*
Y244712D01*
X92208D01*
Y244810D01*
X92110D01*
Y244908D01*
X92012D01*
Y245006D01*
X91914D01*
Y245201D01*
X91817D01*
Y245299D01*
X91719D01*
Y245397D01*
X91621D01*
Y245690D01*
X91523D01*
Y245984D01*
X91425D01*
Y246473D01*
X91328D01*
Y246766D01*
X91425D01*
Y247353D01*
X91523D01*
Y247646D01*
X91621D01*
Y247842D01*
X91719D01*
Y248038D01*
X91817D01*
Y248135D01*
X91914D01*
Y248331D01*
X92012D01*
Y248429D01*
X92110D01*
Y248527D01*
X92208D01*
Y248624D01*
X92403D01*
Y248722D01*
X92501D01*
Y248820D01*
X92697D01*
Y248918D01*
X92795D01*
Y249016D01*
X92892D01*
Y249113D01*
X92990D01*
Y249211D01*
X92892D01*
Y249309D01*
X92403D01*
Y249211D01*
X92012D01*
Y249113D01*
X91914D01*
Y249211D01*
X91817D01*
Y249309D01*
X91719D01*
Y249602D01*
X91621D01*
Y249994D01*
X91523D01*
Y250483D01*
X91425D01*
Y250776D01*
X91328D01*
Y251069D01*
X91230D01*
Y251461D01*
X91132D01*
Y251656D01*
X91034D01*
Y251852D01*
X90936D01*
Y252047D01*
X91328D01*
Y251950D01*
X91425D01*
Y251852D01*
X91621D01*
Y251754D01*
X91817D01*
Y251656D01*
X92012D01*
Y251558D01*
X92110D01*
Y251461D01*
X92208D01*
Y250091D01*
X92306D01*
Y249896D01*
X92403D01*
Y249798D01*
X92501D01*
Y249700D01*
X92795D01*
Y249896D01*
X92892D01*
Y249994D01*
X92795D01*
Y250287D01*
X92697D01*
Y250972D01*
X93088D01*
Y250874D01*
X93284D01*
Y250776D01*
X93479D01*
Y250678D01*
X93773D01*
Y250580D01*
X93968D01*
Y250483D01*
X94262D01*
Y250385D01*
X94359D01*
Y250287D01*
X94653D01*
Y250189D01*
X94946D01*
Y250091D01*
X95142D01*
Y249994D01*
X95337D01*
Y249896D01*
X95631D01*
Y249798D01*
X95826D01*
Y249700D01*
X96218D01*
Y249798D01*
X96315D01*
Y249896D01*
X96413D01*
Y249994D01*
X96511D01*
Y250091D01*
X96609D01*
Y250189D01*
X96707D01*
Y250287D01*
X96804D01*
Y250385D01*
X96902D01*
Y250483D01*
X97000D01*
Y250580D01*
X97098D01*
Y250678D01*
X97196D01*
Y250776D01*
X97293D01*
Y250874D01*
X97391D01*
Y250972D01*
X97489D01*
Y251069D01*
X97587D01*
Y251167D01*
X97685D01*
Y251265D01*
X97782D01*
Y251363D01*
X97978D01*
Y251461D01*
X98076D01*
Y251656D01*
X98174D01*
Y251754D01*
X98369D01*
Y251852D01*
X98467D01*
Y251950D01*
X98565D01*
Y252047D01*
X98663D01*
Y252145D01*
X98760D01*
Y252243D01*
X98858D01*
Y252341D01*
X98956D01*
Y252439D01*
X99054D01*
Y252537D01*
X99152D01*
Y252634D01*
X99249D01*
Y252732D01*
X99347D01*
Y252830D01*
X99445D01*
Y252928D01*
X99543D01*
Y253026D01*
X99641D01*
Y253123D01*
X99738D01*
Y253221D01*
X99836D01*
Y253319D01*
X99934D01*
Y253417D01*
X100032D01*
Y253515D01*
X100130D01*
Y253612D01*
X100325D01*
Y253808D01*
X100423D01*
Y253906D01*
X100619D01*
Y254004D01*
X100716D01*
Y254101D01*
X100814D01*
Y254199D01*
X100912D01*
Y254297D01*
X101010D01*
Y254395D01*
X101108D01*
Y254492D01*
X101205D01*
Y254590D01*
X101303D01*
Y254688D01*
X101401D01*
Y254786D01*
X101499D01*
Y254884D01*
X101597D01*
Y254981D01*
X101694D01*
Y255079D01*
X101792D01*
Y255177D01*
X101890D01*
Y255275D01*
X101988D01*
Y255373D01*
X102086D01*
Y255470D01*
X102183D01*
Y255568D01*
X102281D01*
Y255666D01*
X102379D01*
Y255764D01*
X102477D01*
Y255862D01*
X102575D01*
Y255960D01*
X102673D01*
Y256057D01*
X102770D01*
Y256155D01*
X102868D01*
Y256253D01*
X103064D01*
Y256449D01*
X103162D01*
Y256546D01*
X103259D01*
Y256644D01*
X103455D01*
Y256840D01*
X103650D01*
Y256938D01*
X103748D01*
Y257035D01*
X103846D01*
Y257133D01*
X103944D01*
Y257231D01*
X104042D01*
Y257329D01*
X104139D01*
Y257427D01*
X104237D01*
Y257524D01*
X104335D01*
Y257622D01*
X104433D01*
Y257720D01*
X104531D01*
Y257818D01*
X104629D01*
Y257915D01*
X104726D01*
Y258013D01*
X104824D01*
Y258111D01*
X104922D01*
Y258209D01*
X105020D01*
Y258307D01*
X105117D01*
Y258404D01*
X105215D01*
Y258502D01*
X105313D01*
Y258600D01*
X105509D01*
Y258698D01*
X105606D01*
Y258893D01*
X104922D01*
Y258796D01*
X104531D01*
Y258698D01*
X103846D01*
Y258600D01*
X103553D01*
Y258502D01*
X102966D01*
Y258404D01*
X102379D01*
Y258307D01*
X101988D01*
Y258209D01*
X101401D01*
Y258111D01*
X100912D01*
Y258013D01*
X100423D01*
Y257915D01*
X99934D01*
Y257818D01*
X99445D01*
Y257720D01*
X98858D01*
Y257622D01*
X98271D01*
Y257524D01*
X97685D01*
Y257622D01*
X97782D01*
Y257720D01*
X97880D01*
Y257818D01*
X97978D01*
Y257915D01*
X98076D01*
Y258013D01*
X98174D01*
Y258111D01*
X98271D01*
Y258209D01*
X98369D01*
Y258307D01*
X98467D01*
Y258404D01*
X98663D01*
Y258502D01*
X98760D01*
Y258600D01*
X98858D01*
Y258698D01*
X98956D01*
Y258796D01*
X99054D01*
Y258893D01*
X99152D01*
Y258991D01*
X99249D01*
Y259089D01*
X99347D01*
Y259187D01*
X99445D01*
Y259285D01*
X99543D01*
Y259383D01*
X99641D01*
Y259480D01*
X99738D01*
Y259578D01*
X99836D01*
Y259676D01*
X99934D01*
Y259774D01*
X100032D01*
Y259872D01*
X100912D01*
Y259969D01*
X101499D01*
Y260067D01*
X102379D01*
Y260165D01*
X103064D01*
Y260263D01*
X103944D01*
Y260361D01*
X104726D01*
Y260458D01*
X105313D01*
Y260556D01*
X106291D01*
Y260654D01*
X106976D01*
Y260752D01*
X107073D01*
Y261241D01*
X106976D01*
Y261632D01*
X106878D01*
Y262023D01*
X106780D01*
Y262219D01*
X106682D01*
Y262610D01*
X106585D01*
Y263001D01*
X106487D01*
Y263295D01*
X106389D01*
Y263686D01*
X106585D01*
Y263784D01*
X107073D01*
Y263881D01*
X107758D01*
Y263979D01*
X108247D01*
Y264077D01*
X108834D01*
Y264175D01*
X109421D01*
Y264273D01*
X110105D01*
Y264370D01*
X110692D01*
Y264273D01*
D02*
G37*
G36*
X74995Y257524D02*
X74897D01*
Y257427D01*
X73528D01*
Y257524D01*
X70789D01*
Y257622D01*
X69029D01*
Y257720D01*
X66290D01*
Y257818D01*
X64432D01*
Y257915D01*
X63454D01*
Y258013D01*
X62965D01*
Y258111D01*
X63650D01*
Y258209D01*
X66877D01*
Y258307D01*
X69029D01*
Y258404D01*
X72061D01*
Y258502D01*
X74995D01*
Y257524D01*
D02*
G37*
G36*
X70300Y253612D02*
X70398D01*
Y252537D01*
X70300D01*
Y252439D01*
X69811D01*
Y252537D01*
X67855D01*
Y252634D01*
X66486D01*
Y252732D01*
X65117D01*
Y252830D01*
X62965D01*
Y252928D01*
X61694D01*
Y253026D01*
X60814D01*
Y253123D01*
X60618D01*
Y253221D01*
X61694D01*
Y253319D01*
X64334D01*
Y253417D01*
X65997D01*
Y253515D01*
X68051D01*
Y253612D01*
X69811D01*
Y253710D01*
X70300D01*
Y253612D01*
D02*
G37*
G36*
X97293Y256938D02*
X97391D01*
Y256546D01*
X97489D01*
Y256057D01*
X97391D01*
Y255666D01*
X97293D01*
Y255373D01*
X97196D01*
Y255177D01*
X97098D01*
Y255079D01*
X97000D01*
Y254884D01*
X96902D01*
Y254688D01*
X96804D01*
Y254590D01*
X96707D01*
Y254395D01*
X96609D01*
Y254199D01*
X96511D01*
Y254004D01*
X96413D01*
Y253710D01*
X96315D01*
Y253319D01*
X96218D01*
Y251656D01*
X96120D01*
Y251558D01*
X96022D01*
Y251656D01*
X95924D01*
Y251754D01*
X95826D01*
Y251852D01*
X95729D01*
Y252047D01*
X95631D01*
Y252243D01*
X95533D01*
Y252439D01*
X95435D01*
Y252634D01*
X95337D01*
Y252830D01*
X95240D01*
Y253123D01*
X95142D01*
Y253319D01*
X95044D01*
Y253612D01*
X94946D01*
Y254004D01*
X94848D01*
Y254297D01*
Y254395D01*
Y254590D01*
X94751D01*
Y255079D01*
X94848D01*
Y255177D01*
X94946D01*
Y255275D01*
X95044D01*
Y255373D01*
X95142D01*
Y255470D01*
X95240D01*
Y255568D01*
X95337D01*
Y255666D01*
X95435D01*
Y255764D01*
X95533D01*
Y255862D01*
X95631D01*
Y255960D01*
X95729D01*
Y256057D01*
X95826D01*
Y256155D01*
X95924D01*
Y256253D01*
X96120D01*
Y256351D01*
X96218D01*
Y256449D01*
X96315D01*
Y256546D01*
X96413D01*
Y256644D01*
X96609D01*
Y256742D01*
X96707D01*
Y256840D01*
X96804D01*
Y256938D01*
X96902D01*
Y257035D01*
X97293D01*
Y256938D01*
D02*
G37*
G36*
X69420Y248918D02*
X69518D01*
Y247646D01*
X69420D01*
Y247549D01*
X68638D01*
Y247646D01*
X66780D01*
Y247744D01*
X65606D01*
Y247842D01*
X64139D01*
Y247940D01*
X62476D01*
Y248038D01*
X61107D01*
Y248135D01*
X59249D01*
Y248233D01*
X58760D01*
Y248331D01*
X59053D01*
Y248429D01*
X60031D01*
Y248527D01*
X62281D01*
Y248624D01*
X64237D01*
Y248722D01*
X65410D01*
Y248820D01*
X67660D01*
Y248918D01*
X69127D01*
Y249016D01*
X69420D01*
Y248918D01*
D02*
G37*
G36*
X101205Y247549D02*
X101108D01*
Y247451D01*
X100423D01*
Y247549D01*
X99054D01*
Y247646D01*
X98076D01*
Y247842D01*
X99054D01*
Y247940D01*
X101205D01*
Y247549D01*
D02*
G37*
G36*
X101303Y245984D02*
X101401D01*
Y245788D01*
X101303D01*
Y245690D01*
X100716D01*
Y245788D01*
X99249D01*
Y245886D01*
X99152D01*
Y245984D01*
X99836D01*
Y246082D01*
X101303D01*
Y245984D01*
D02*
G37*
G36*
X69420Y245495D02*
X69518D01*
Y245397D01*
X69616D01*
Y245299D01*
X69518D01*
Y244517D01*
X69420D01*
Y244419D01*
X69127D01*
Y244517D01*
X67855D01*
Y244615D01*
X66095D01*
Y244712D01*
X64432D01*
Y244810D01*
X62476D01*
Y244908D01*
X61596D01*
Y245006D01*
X61401D01*
Y245104D01*
X61792D01*
Y245201D01*
X63259D01*
Y245299D01*
X65606D01*
Y245397D01*
X67073D01*
Y245495D01*
X68931D01*
Y245593D01*
X69420D01*
Y245495D01*
D02*
G37*
G36*
X101792Y244223D02*
X100032D01*
Y244321D01*
X99249D01*
Y244419D01*
X98956D01*
Y244517D01*
X99641D01*
Y244615D01*
X101792D01*
Y244223D01*
D02*
G37*
G36*
X71278Y241778D02*
X71376D01*
Y241094D01*
X71278D01*
Y240996D01*
X70398D01*
Y241094D01*
X68931D01*
Y241192D01*
X67562D01*
Y241289D01*
X65606D01*
Y241387D01*
X65117D01*
Y241485D01*
X65508D01*
Y241583D01*
X66975D01*
Y241681D01*
X68735D01*
Y241778D01*
X70789D01*
Y241876D01*
X71278D01*
Y241778D01*
D02*
G37*
G36*
X103162Y240605D02*
X103259D01*
Y240409D01*
X103357D01*
Y240116D01*
X103455D01*
Y239822D01*
X103553D01*
Y239724D01*
X103650D01*
Y239431D01*
X101597D01*
Y239529D01*
X99934D01*
Y239627D01*
X97782D01*
Y239724D01*
X95533D01*
Y239822D01*
X93381D01*
Y239920D01*
X91034D01*
Y240018D01*
X90056D01*
Y240116D01*
X90154D01*
Y240213D01*
X91132D01*
Y240311D01*
X93479D01*
Y240409D01*
X96315D01*
Y240507D01*
X98565D01*
Y240605D01*
X101988D01*
Y240703D01*
X103162D01*
Y240605D01*
D02*
G37*
%LPC*%
G36*
X81254Y255960D02*
X79200D01*
Y255862D01*
X78613D01*
Y255764D01*
X78320D01*
Y255666D01*
X78027D01*
Y255568D01*
X77733D01*
Y255470D01*
X77538D01*
Y255373D01*
X77342D01*
Y255275D01*
X77049D01*
Y255177D01*
X76853D01*
Y255079D01*
X76657D01*
Y254981D01*
X76462D01*
Y254884D01*
X76266D01*
Y254786D01*
X76071D01*
Y254688D01*
X75875D01*
Y254590D01*
X75777D01*
Y254492D01*
X75582D01*
Y254395D01*
X75484D01*
Y254297D01*
X75288D01*
Y254199D01*
X75190D01*
Y254101D01*
X75093D01*
Y254004D01*
X74897D01*
Y253906D01*
X74799D01*
Y253808D01*
X74701D01*
Y253710D01*
X74604D01*
Y253612D01*
X74506D01*
Y253515D01*
X74408D01*
Y253417D01*
X74310D01*
Y253319D01*
X74212D01*
Y253221D01*
X74115D01*
Y253123D01*
X74017D01*
Y252928D01*
X73919D01*
Y252830D01*
X73723D01*
Y252634D01*
X73626D01*
Y252439D01*
X73528D01*
Y252341D01*
X73430D01*
Y252145D01*
X73332D01*
Y251950D01*
X73234D01*
Y251852D01*
X73137D01*
Y251656D01*
X73039D01*
Y251461D01*
X72941D01*
Y251265D01*
X72843D01*
Y251069D01*
X72745D01*
Y250874D01*
X72648D01*
Y250483D01*
X72550D01*
Y250287D01*
X72452D01*
Y249994D01*
X72354D01*
Y249505D01*
X72256D01*
Y248918D01*
X72159D01*
Y247255D01*
X72256D01*
Y246571D01*
X72354D01*
Y246082D01*
X72452D01*
Y245788D01*
X72550D01*
Y245397D01*
X72648D01*
Y245201D01*
X72745D01*
Y245006D01*
X72843D01*
Y244810D01*
X72941D01*
Y244517D01*
X73039D01*
Y244419D01*
X73137D01*
Y244223D01*
X73234D01*
Y244028D01*
X73332D01*
Y243832D01*
X73430D01*
Y243734D01*
X73528D01*
Y243539D01*
X73626D01*
Y243441D01*
X73723D01*
Y243343D01*
X73821D01*
Y243245D01*
X73919D01*
Y243050D01*
X74017D01*
Y242952D01*
X74115D01*
Y242854D01*
X74212D01*
Y242756D01*
X74310D01*
Y242659D01*
X74408D01*
Y242561D01*
X74506D01*
Y242463D01*
X74604D01*
Y242365D01*
X74799D01*
Y242267D01*
X74897D01*
Y242170D01*
X74995D01*
Y242072D01*
X75093D01*
Y241974D01*
X75190D01*
Y241876D01*
X75386D01*
Y241778D01*
X75484D01*
Y241681D01*
X75582D01*
Y241583D01*
X75679D01*
Y241485D01*
X75973D01*
Y241387D01*
X76071D01*
Y241289D01*
X76266D01*
Y241192D01*
X76462D01*
Y241094D01*
X76657D01*
Y240996D01*
X76853D01*
Y240898D01*
X77049D01*
Y240800D01*
X77244D01*
Y240703D01*
X77538D01*
Y240605D01*
X77831D01*
Y240507D01*
X78124D01*
Y240409D01*
X78516D01*
Y240311D01*
X79005D01*
Y240213D01*
X79787D01*
Y240116D01*
X81156D01*
Y240213D01*
X81841D01*
Y240311D01*
X82330D01*
Y240409D01*
X82721D01*
Y240507D01*
X83112D01*
Y240605D01*
X83406D01*
Y240703D01*
X83601D01*
Y240800D01*
X83895D01*
Y240898D01*
X83992D01*
Y241094D01*
X83699D01*
Y241192D01*
X82428D01*
Y241289D01*
X81059D01*
Y241387D01*
X80080D01*
Y241485D01*
X79885D01*
Y241583D01*
X80178D01*
Y241681D01*
X82232D01*
Y241778D01*
X85068D01*
Y241876D01*
X85753D01*
Y241974D01*
X85851D01*
Y242072D01*
X85948D01*
Y242170D01*
X86046D01*
Y242267D01*
X86144D01*
Y242365D01*
X86340D01*
Y242463D01*
X86437D01*
Y242659D01*
X86535D01*
Y242756D01*
X86633D01*
Y242952D01*
X86731D01*
Y243050D01*
X86829D01*
Y243245D01*
X86927D01*
Y243343D01*
X87024D01*
Y243441D01*
X87122D01*
Y243734D01*
X87220D01*
Y243832D01*
X87122D01*
Y243930D01*
X85166D01*
Y244028D01*
X81059D01*
Y244126D01*
X80863D01*
Y244028D01*
X80765D01*
Y244126D01*
X77538D01*
Y244223D01*
X77440D01*
Y244321D01*
X78711D01*
Y244419D01*
X80667D01*
Y244517D01*
X82525D01*
Y244615D01*
X84775D01*
Y244712D01*
X86144D01*
Y244810D01*
X87807D01*
Y244908D01*
X87905D01*
Y245006D01*
X88002D01*
Y245299D01*
X88100D01*
Y245495D01*
X88198D01*
Y245788D01*
X88296D01*
Y246375D01*
X88002D01*
Y246473D01*
X85851D01*
Y246571D01*
X85362D01*
Y246668D01*
X85655D01*
Y246766D01*
X86535D01*
Y246864D01*
X87807D01*
Y246962D01*
X88002D01*
Y246864D01*
X88296D01*
Y246962D01*
X88491D01*
Y247060D01*
X88589D01*
Y248135D01*
X88491D01*
Y248527D01*
X88589D01*
Y248722D01*
X88491D01*
Y248820D01*
X88393D01*
Y248918D01*
X84677D01*
Y249016D01*
X84873D01*
Y249113D01*
X85068D01*
Y249211D01*
X85557D01*
Y249309D01*
X86340D01*
Y249407D01*
X86927D01*
Y249505D01*
X87513D01*
Y249602D01*
X88198D01*
Y249700D01*
X88296D01*
Y250189D01*
X88198D01*
Y250483D01*
X88100D01*
Y250776D01*
X88002D01*
Y250972D01*
X87905D01*
Y251069D01*
X87807D01*
Y251363D01*
X87709D01*
Y251461D01*
X87611D01*
Y251656D01*
X87513D01*
Y251852D01*
X87415D01*
Y251950D01*
X87318D01*
Y252145D01*
X87220D01*
Y252243D01*
X87122D01*
Y252341D01*
X87024D01*
Y252439D01*
X86927D01*
Y252537D01*
X86829D01*
Y252634D01*
X86633D01*
Y252537D01*
X86535D01*
Y252439D01*
X86340D01*
Y252341D01*
X86242D01*
Y252243D01*
X86144D01*
Y252145D01*
X86046D01*
Y252047D01*
X85948D01*
Y251950D01*
X85851D01*
Y251852D01*
X85753D01*
Y251754D01*
X85557D01*
Y251656D01*
X85460D01*
Y251558D01*
X85362D01*
Y251461D01*
X85264D01*
Y251363D01*
X85166D01*
Y251265D01*
X85068D01*
Y251167D01*
X84970D01*
Y251069D01*
X84873D01*
Y250972D01*
X84677D01*
Y250874D01*
X84579D01*
Y250776D01*
X84482D01*
Y250678D01*
X84384D01*
Y250580D01*
X84286D01*
Y250483D01*
X84188D01*
Y250385D01*
X84090D01*
Y250287D01*
X83992D01*
Y250189D01*
X83797D01*
Y250091D01*
X83699D01*
Y249994D01*
X83601D01*
Y249896D01*
X83504D01*
Y249798D01*
X83406D01*
Y249700D01*
X83210D01*
Y249602D01*
X83112D01*
Y249505D01*
X83015D01*
Y249407D01*
X82917D01*
Y249309D01*
X82819D01*
Y249211D01*
X82721D01*
Y249113D01*
X82623D01*
Y249016D01*
X82428D01*
Y248918D01*
X82330D01*
Y248820D01*
X82232D01*
Y248722D01*
X82134D01*
Y248624D01*
X82037D01*
Y248527D01*
X81939D01*
Y248429D01*
X81841D01*
Y248331D01*
X81645D01*
Y248233D01*
X81547D01*
Y248135D01*
X81450D01*
Y248038D01*
X81352D01*
Y247940D01*
X81254D01*
Y247842D01*
X81156D01*
Y247744D01*
X81059D01*
Y247646D01*
X80961D01*
Y247549D01*
X80863D01*
Y247451D01*
X80765D01*
Y247255D01*
X80569D01*
Y247157D01*
X80374D01*
Y247060D01*
X79885D01*
Y247157D01*
X79689D01*
Y247255D01*
X79591D01*
Y247353D01*
X79494D01*
Y247451D01*
X79396D01*
Y247646D01*
X79298D01*
Y248135D01*
X79396D01*
Y248331D01*
X79494D01*
Y248429D01*
X79591D01*
Y248527D01*
X79689D01*
Y248624D01*
X79787D01*
Y248722D01*
X79983D01*
Y248820D01*
X80080D01*
Y248918D01*
X80178D01*
Y249016D01*
X80374D01*
Y249113D01*
X80472D01*
Y249309D01*
X80374D01*
Y249407D01*
X78222D01*
Y249505D01*
X76266D01*
Y249602D01*
X76168D01*
Y249700D01*
X77049D01*
Y249798D01*
X79298D01*
Y249896D01*
X80765D01*
Y249994D01*
X81254D01*
Y250091D01*
X81352D01*
Y250189D01*
X81450D01*
Y250287D01*
X81547D01*
Y250385D01*
X81645D01*
Y250483D01*
X81841D01*
Y250580D01*
X81939D01*
Y250678D01*
X82037D01*
Y250776D01*
X82134D01*
Y250874D01*
X82232D01*
Y250972D01*
X82330D01*
Y251069D01*
X82428D01*
Y251167D01*
X82525D01*
Y251363D01*
X80374D01*
Y251558D01*
X80667D01*
Y251656D01*
X81352D01*
Y251754D01*
X82037D01*
Y251852D01*
X82623D01*
Y251950D01*
X83308D01*
Y252047D01*
X83504D01*
Y252145D01*
X83699D01*
Y252243D01*
X83797D01*
Y252341D01*
X83895D01*
Y252439D01*
X84090D01*
Y252537D01*
X84188D01*
Y252634D01*
X84286D01*
Y252732D01*
X84384D01*
Y252830D01*
X84579D01*
Y252928D01*
X84677D01*
Y253221D01*
X82917D01*
Y253319D01*
X81352D01*
Y253417D01*
X81645D01*
Y253515D01*
X82623D01*
Y253612D01*
X84090D01*
Y253710D01*
X85068D01*
Y254004D01*
X84970D01*
Y254101D01*
X84873D01*
Y254199D01*
X84775D01*
Y254297D01*
X84677D01*
Y254395D01*
X84579D01*
Y254492D01*
X84482D01*
Y254590D01*
X84286D01*
Y254688D01*
X84188D01*
Y254786D01*
X83992D01*
Y254884D01*
X83895D01*
Y254981D01*
X83699D01*
Y255079D01*
X83504D01*
Y255177D01*
X83406D01*
Y255275D01*
X83210D01*
Y255373D01*
X83015D01*
Y255470D01*
X82721D01*
Y255568D01*
X82428D01*
Y255666D01*
X82134D01*
Y255764D01*
X81841D01*
Y255862D01*
X81254D01*
Y255960D01*
D02*
G37*
G36*
X113039Y255764D02*
X111475D01*
Y255666D01*
X110888D01*
Y255568D01*
X110692D01*
Y255177D01*
X110790D01*
Y254688D01*
X110888D01*
Y254297D01*
X110986D01*
Y253808D01*
X111083D01*
Y253515D01*
X111181D01*
Y253123D01*
X111279D01*
Y252634D01*
X111377D01*
Y252243D01*
X111475D01*
Y251852D01*
X111572D01*
Y251461D01*
X111670D01*
Y251069D01*
X111768D01*
Y250580D01*
X111866D01*
Y250189D01*
X111963D01*
Y249798D01*
X112061D01*
Y249309D01*
X112159D01*
Y249016D01*
X112257D01*
Y248820D01*
X112355D01*
Y248722D01*
X112452D01*
Y248624D01*
X112550D01*
Y248527D01*
X112648D01*
Y248429D01*
X112746D01*
Y248233D01*
X112844D01*
Y247646D01*
X112746D01*
Y247451D01*
X112648D01*
Y247353D01*
X112550D01*
Y247255D01*
X112452D01*
Y247157D01*
X112355D01*
Y247060D01*
X112061D01*
Y246962D01*
X111670D01*
Y247060D01*
X111475D01*
Y247157D01*
X111279D01*
Y247255D01*
X111181D01*
Y247353D01*
X111083D01*
Y247549D01*
X110986D01*
Y247842D01*
X110888D01*
Y247940D01*
X109225D01*
Y248038D01*
X106585D01*
Y248135D01*
X105606D01*
Y248331D01*
X106878D01*
Y248429D01*
X108247D01*
Y248527D01*
X109714D01*
Y248624D01*
X110692D01*
Y249113D01*
X110594D01*
Y249309D01*
X110496D01*
Y249407D01*
X109225D01*
Y249309D01*
X109127D01*
Y249407D01*
X108638D01*
Y249505D01*
X108834D01*
Y249602D01*
X109127D01*
Y249700D01*
X109421D01*
Y249798D01*
X110008D01*
Y249896D01*
X110203D01*
Y249994D01*
X110301D01*
Y250385D01*
X110203D01*
Y250678D01*
X110105D01*
Y251069D01*
X110008D01*
Y251461D01*
X109910D01*
Y251754D01*
X109812D01*
Y251852D01*
X109421D01*
Y251754D01*
X109127D01*
Y251656D01*
X108638D01*
Y251558D01*
X108443D01*
Y251754D01*
X108540D01*
Y251852D01*
X108638D01*
Y251950D01*
X108834D01*
Y252047D01*
X109029D01*
Y252145D01*
X109127D01*
Y252243D01*
X109323D01*
Y252341D01*
X109421D01*
Y252439D01*
X109519D01*
Y252537D01*
X109616D01*
Y252732D01*
X109519D01*
Y253026D01*
X109421D01*
Y253515D01*
X109323D01*
Y253906D01*
X109225D01*
Y254395D01*
X109127D01*
Y254786D01*
X109029D01*
Y254981D01*
X108540D01*
Y254884D01*
X108345D01*
Y254786D01*
X108052D01*
Y254688D01*
X107856D01*
Y254590D01*
X107660D01*
Y254492D01*
X107562D01*
Y254395D01*
X107269D01*
Y254297D01*
X107171D01*
Y254199D01*
X106976D01*
Y254101D01*
X106878D01*
Y254004D01*
X106682D01*
Y253906D01*
X106585D01*
Y253808D01*
X106487D01*
Y253710D01*
X106389D01*
Y253612D01*
X106193D01*
Y253515D01*
X106096D01*
Y253417D01*
X105998D01*
Y253319D01*
X105900D01*
Y253221D01*
X105802D01*
Y253123D01*
X105704D01*
Y253026D01*
X105606D01*
Y252928D01*
X105509D01*
Y252830D01*
X105411D01*
Y252732D01*
X105313D01*
Y252634D01*
X105215D01*
Y252439D01*
X105117D01*
Y252341D01*
X105020D01*
Y252243D01*
X104922D01*
Y252047D01*
X104824D01*
Y251950D01*
X104726D01*
Y251754D01*
X104629D01*
Y251656D01*
X104531D01*
Y251461D01*
X104433D01*
Y251265D01*
X104335D01*
Y251069D01*
X104237D01*
Y250874D01*
X104139D01*
Y250580D01*
X104042D01*
Y250385D01*
X103944D01*
Y250091D01*
X103846D01*
Y249798D01*
X103748D01*
Y249211D01*
X103650D01*
Y248624D01*
X103553D01*
Y246962D01*
X103650D01*
Y246473D01*
X103748D01*
Y245886D01*
X103846D01*
Y245690D01*
X103944D01*
Y245397D01*
X104042D01*
Y245201D01*
X104139D01*
Y244908D01*
X104237D01*
Y244810D01*
X104335D01*
Y244615D01*
X104433D01*
Y244419D01*
X104531D01*
Y244321D01*
X104629D01*
Y244126D01*
X104726D01*
Y243930D01*
X104824D01*
Y243832D01*
X104922D01*
Y243734D01*
X105020D01*
Y243539D01*
X105117D01*
Y243441D01*
X105215D01*
Y243343D01*
X105313D01*
Y243245D01*
X105411D01*
Y243148D01*
X105509D01*
Y243050D01*
X105606D01*
Y242854D01*
X105704D01*
Y242756D01*
X105900D01*
Y242659D01*
X105998D01*
Y242561D01*
X106096D01*
Y242463D01*
X106193D01*
Y242365D01*
X106291D01*
Y242267D01*
X106487D01*
Y242170D01*
X106585D01*
Y242072D01*
X106682D01*
Y241974D01*
X106780D01*
Y241876D01*
X106976D01*
Y241778D01*
X107073D01*
Y241681D01*
X107171D01*
Y241583D01*
X107367D01*
Y241485D01*
X107562D01*
Y241387D01*
X107660D01*
Y241289D01*
X107954D01*
Y241192D01*
X108149D01*
Y241094D01*
X108345D01*
Y240996D01*
X108540D01*
Y240898D01*
X108834D01*
Y240800D01*
X109029D01*
Y240703D01*
X109323D01*
Y240605D01*
X109812D01*
Y240507D01*
X110203D01*
Y240409D01*
X110790D01*
Y240311D01*
X112746D01*
Y240409D01*
X113528D01*
Y240507D01*
X113920D01*
Y240605D01*
X114311D01*
Y240703D01*
X114506D01*
Y240800D01*
X114898D01*
Y240898D01*
X115093D01*
Y240996D01*
X115289D01*
Y241094D01*
X115484D01*
Y241192D01*
X115778D01*
Y241289D01*
X115973D01*
Y241387D01*
X116071D01*
Y241583D01*
X115778D01*
Y241681D01*
X114409D01*
Y241778D01*
X113137D01*
Y241974D01*
X114995D01*
Y242072D01*
X117147D01*
Y242170D01*
X117343D01*
Y242267D01*
X117538D01*
Y242365D01*
X117636D01*
Y242463D01*
X117832D01*
Y242561D01*
X117929D01*
Y242659D01*
X118027D01*
Y242756D01*
X118223D01*
Y242854D01*
X118321D01*
Y242952D01*
X118418D01*
Y243050D01*
X118516D01*
Y243245D01*
X118614D01*
Y243343D01*
X118712D01*
Y243441D01*
X118810D01*
Y243539D01*
X118907D01*
Y243734D01*
X119005D01*
Y243832D01*
X118907D01*
Y243930D01*
X116756D01*
Y244028D01*
X113626D01*
Y244126D01*
X110301D01*
Y244223D01*
X109616D01*
Y244321D01*
X110790D01*
Y244419D01*
X114898D01*
Y244517D01*
X118712D01*
Y244615D01*
X119103D01*
Y244517D01*
X119201D01*
Y244615D01*
X119494D01*
Y244712D01*
X119592D01*
Y244908D01*
X119690D01*
Y245201D01*
X119788D01*
Y245397D01*
X119885D01*
Y245788D01*
X119983D01*
Y246277D01*
X119885D01*
Y246375D01*
X117538D01*
Y246473D01*
X116267D01*
Y246571D01*
X116169D01*
Y246668D01*
X117538D01*
Y246766D01*
X119494D01*
Y246864D01*
X120179D01*
Y246962D01*
X120277D01*
Y248135D01*
X120179D01*
Y248820D01*
X120081D01*
Y248918D01*
X119299D01*
Y249016D01*
X117147D01*
Y249113D01*
X115191D01*
Y249211D01*
X114604D01*
Y249309D01*
X114898D01*
Y249407D01*
X115582D01*
Y249505D01*
X117440D01*
Y249602D01*
X118907D01*
Y249700D01*
X119788D01*
Y249798D01*
X119885D01*
Y250189D01*
X119788D01*
Y250385D01*
X119690D01*
Y250678D01*
X119592D01*
Y250874D01*
X119494D01*
Y250972D01*
X119396D01*
Y251069D01*
X117636D01*
Y251167D01*
X114506D01*
Y251265D01*
X114311D01*
Y251363D01*
X114995D01*
Y251461D01*
X116365D01*
Y251558D01*
X117538D01*
Y251656D01*
X118810D01*
Y251754D01*
X118907D01*
Y251950D01*
X118810D01*
Y252243D01*
X118712D01*
Y252341D01*
X118614D01*
Y252439D01*
X118516D01*
Y252634D01*
X118418D01*
Y252732D01*
X118321D01*
Y252830D01*
X118223D01*
Y253026D01*
X118125D01*
Y253123D01*
X118027D01*
Y253221D01*
X116854D01*
Y253123D01*
X114995D01*
Y253026D01*
X113822D01*
Y253123D01*
X113724D01*
Y253221D01*
X114017D01*
Y253319D01*
X114409D01*
Y253417D01*
X114702D01*
Y253515D01*
X115093D01*
Y253612D01*
X115484D01*
Y253710D01*
X115778D01*
Y253808D01*
X116169D01*
Y253906D01*
X116462D01*
Y254004D01*
X116658D01*
Y254199D01*
X116560D01*
Y254297D01*
X116462D01*
Y254395D01*
X116267D01*
Y254492D01*
X116071D01*
Y254590D01*
X115973D01*
Y254688D01*
X115778D01*
Y254786D01*
X115582D01*
Y254884D01*
X115387D01*
Y254981D01*
X114995D01*
Y255079D01*
X114017D01*
Y255177D01*
X113039D01*
Y255275D01*
X113137D01*
Y255373D01*
X113431D01*
Y255470D01*
X113626D01*
Y255568D01*
X113528D01*
Y255666D01*
X113039D01*
Y255764D01*
D02*
G37*
%LPD*%
D10*
X147846Y17142D02*
G03*
X147846Y17142I-492J0D01*
G01*
X308862Y193642D02*
G03*
X308862Y193642I-492J0D01*
G01*
X191149Y35902D02*
G03*
X191149Y35902I-492J0D01*
G01*
X216355Y260846D02*
G03*
X216355Y260846I-492J0D01*
G01*
X119004Y87697D02*
G03*
X119004Y87697I-492J0D01*
G01*
X330630Y34858D02*
G03*
X330630Y34858I-492J0D01*
G01*
X111892Y87397D02*
G03*
X111892Y87397I-492J0D01*
G01*
X158547Y96000D02*
G03*
X158547Y96000I-492J0D01*
G01*
X259658Y34858D02*
G03*
X259658Y34858I-492J0D01*
G01*
X76980Y17142D02*
G03*
X76980Y17142I-492J0D01*
G01*
X238892Y259397D02*
G03*
X238892Y259397I-492J0D01*
G01*
X183599Y56896D02*
G03*
X183599Y56896I-492J0D01*
G01*
X267130Y175858D02*
G03*
X267130Y175858I-492J0D01*
G01*
X177996Y189653D02*
G03*
X177996Y189653I-492J0D01*
G01*
D11*
X394951Y136021D02*
G03*
X394951Y136415I0J197D01*
G01*
D02*
G03*
X394951Y136021I0J-197D01*
G01*
D12*
X388958Y205723D02*
G03*
X388958Y205723I-394J0D01*
G01*
X25157Y251660D02*
G03*
X25157Y251660I-394J0D01*
G01*
X100934Y56367D02*
G03*
X100934Y56367I-394J0D01*
G01*
X115366Y14189D02*
X137610D01*
X114677Y21177D02*
Y30823D01*
X115366Y37811D02*
X137610D01*
X138299Y21177D02*
Y30823D01*
X132779Y12441D02*
X144221D01*
X132779Y3559D02*
X144221D01*
X37779D02*
X49221D01*
X37779Y12441D02*
X49221D01*
X363779Y50441D02*
X375221D01*
X363779Y41559D02*
X375221D01*
X304279Y47441D02*
X315721D01*
X304279Y38559D02*
X315721D01*
X299315Y197677D02*
Y207323D01*
X276382Y214311D02*
X298626D01*
X275693Y197677D02*
Y207323D01*
X276382Y190689D02*
X298626D01*
X185268Y18913D02*
Y23559D01*
Y1689D02*
Y8087D01*
Y1689D02*
X221252D01*
Y18913D02*
Y23559D01*
Y1689D02*
Y8087D01*
Y273189D02*
Y277835D01*
Y288661D02*
Y295059D01*
X185268D02*
X221252D01*
X185268Y273189D02*
Y277835D01*
Y288661D02*
Y295059D01*
X118315Y92323D02*
X144693D01*
X118315Y107677D02*
X144693D01*
X118315Y92323D02*
Y107677D01*
X144693Y92323D02*
Y107677D01*
X401250Y132084D02*
X423888D01*
Y61218D02*
Y132084D01*
X401250Y61218D02*
X423888D01*
X343965Y160799D02*
Y161201D01*
X339043Y160799D02*
Y161201D01*
X383814Y161156D02*
Y203164D01*
X393464D01*
X383814Y161156D02*
X393464D01*
Y203164D01*
X12064Y112160D02*
Y252160D01*
X22064D01*
X12064Y112160D02*
X22064D01*
Y252160D01*
X213945Y188791D02*
Y191646D01*
Y188791D02*
X216504D01*
X213945Y197354D02*
Y200209D01*
X216504D01*
X339882Y37811D02*
X362126D01*
X362815Y21177D02*
Y30823D01*
X339882Y14189D02*
X362126D01*
X339193Y21177D02*
Y30823D01*
X94787Y84449D02*
X105221D01*
X94787Y90359D02*
Y90551D01*
Y84449D02*
Y84641D01*
Y90551D02*
X105221D01*
Y90359D02*
Y90551D01*
Y84449D02*
Y84641D01*
X166224Y98657D02*
X168784D01*
X166224Y93343D02*
X168784D01*
X268221Y21177D02*
Y30823D01*
X268910Y14189D02*
X291154D01*
X291843Y21177D02*
Y30823D01*
X268910Y37811D02*
X291154D01*
X67433Y21177D02*
Y30823D01*
X44500Y37811D02*
X66744D01*
X43811Y21177D02*
Y30823D01*
X44500Y14189D02*
X66744D01*
X221787Y256449D02*
X232221D01*
X221787Y262359D02*
Y262551D01*
Y256449D02*
Y256641D01*
Y262551D02*
X232221D01*
Y262359D02*
Y262551D01*
Y256449D02*
Y256641D01*
X238945Y265779D02*
Y277221D01*
X230063Y265779D02*
Y277221D01*
X235179Y246259D02*
X246621D01*
X235179Y255141D02*
X246621D01*
X219563Y233279D02*
Y244721D01*
X228445Y233279D02*
Y244721D01*
X170130Y187941D02*
X181572D01*
X170130Y179059D02*
X181572D01*
X183130Y233441D02*
X194572D01*
X183130Y224559D02*
X194572D01*
X155445Y92779D02*
Y104221D01*
X146563Y92779D02*
Y104221D01*
X165630Y56941D02*
X177072D01*
X165630Y48059D02*
X177072D01*
X186055Y40283D02*
Y50717D01*
X179953Y40283D02*
X180145D01*
X185863D02*
X186055D01*
X179953D02*
Y50717D01*
X180145D01*
X185863D02*
X186055D01*
X105063Y67779D02*
Y79221D01*
X113945Y67779D02*
Y79221D01*
X134630Y81941D02*
X146072D01*
X134630Y73059D02*
X146072D01*
X120783D02*
X132225D01*
X120783Y81941D02*
X132225D01*
X386779Y136359D02*
X398221D01*
X386779Y145241D02*
X398221D01*
X386927Y147559D02*
X398368D01*
X386927Y156441D02*
X398368D01*
X254563Y166279D02*
Y177721D01*
X263445Y166279D02*
Y177721D01*
Y190779D02*
Y202221D01*
X254563Y190779D02*
Y202221D01*
X275693Y162177D02*
Y171823D01*
X276382Y155189D02*
X298626D01*
X299315Y162177D02*
Y171823D01*
X276382Y178811D02*
X298626D01*
X30059Y239279D02*
Y250721D01*
X38941Y239279D02*
Y250721D01*
X171704Y203343D02*
X205804D01*
Y208655D01*
X171704D02*
X205804D01*
X171704Y203343D02*
Y208655D01*
X169295Y165559D02*
X172150D01*
X169295Y163000D02*
Y165559D01*
X177858D02*
X180713D01*
Y163000D02*
Y165559D01*
X354536Y178510D02*
X353749Y179297D01*
X352174D01*
X351387Y178510D01*
Y177723D01*
X352174Y176936D01*
X353749D01*
X354536Y176149D01*
Y175362D01*
X353749Y174574D01*
X352174D01*
X351387Y175362D01*
X356110Y179297D02*
Y174574D01*
X358472D01*
X359259Y175362D01*
Y178510D01*
X358472Y179297D01*
X356110D01*
X360833Y173787D02*
X363982D01*
X365556Y174574D02*
Y179297D01*
X367130Y177723D01*
X368705Y179297D01*
Y174574D01*
X370279Y179297D02*
X371853D01*
X371066D01*
Y174574D01*
X370279D01*
X371853D01*
X377363Y178510D02*
X376576Y179297D01*
X375002D01*
X374215Y178510D01*
Y177723D01*
X375002Y176936D01*
X376576D01*
X377363Y176149D01*
Y175362D01*
X376576Y174574D01*
X375002D01*
X374215Y175362D01*
X381299Y179297D02*
X379725D01*
X378938Y178510D01*
Y175362D01*
X379725Y174574D01*
X381299D01*
X382086Y175362D01*
Y178510D01*
X381299Y179297D01*
X357436Y168610D02*
X356649Y169397D01*
X355075D01*
X354287Y168610D01*
Y167823D01*
X355075Y167036D01*
X356649D01*
X357436Y166249D01*
Y165462D01*
X356649Y164674D01*
X355075D01*
X354287Y165462D01*
X359010Y169397D02*
Y164674D01*
X361372D01*
X362159Y165462D01*
Y168610D01*
X361372Y169397D01*
X359010D01*
X363733Y163887D02*
X366882D01*
X371605Y168610D02*
X370817Y169397D01*
X369243D01*
X368456Y168610D01*
Y165462D01*
X369243Y164674D01*
X370817D01*
X371605Y165462D01*
X373179Y169397D02*
Y164674D01*
X376327D01*
X377902Y169397D02*
Y164674D01*
Y166249D01*
X381050Y169397D01*
X378689Y167036D01*
X381050Y164674D01*
X354436Y189010D02*
X353649Y189797D01*
X352075D01*
X351287Y189010D01*
Y188223D01*
X352075Y187436D01*
X353649D01*
X354436Y186649D01*
Y185862D01*
X353649Y185074D01*
X352075D01*
X351287Y185862D01*
X356010Y189797D02*
Y185074D01*
X358372D01*
X359159Y185862D01*
Y189010D01*
X358372Y189797D01*
X356010D01*
X360733Y184287D02*
X363882D01*
X365456Y185074D02*
Y189797D01*
X367030Y188223D01*
X368605Y189797D01*
Y185074D01*
X372540Y189797D02*
X370966D01*
X370179Y189010D01*
Y185862D01*
X370966Y185074D01*
X372540D01*
X373327Y185862D01*
Y189010D01*
X372540Y189797D01*
X378050Y189010D02*
X377263Y189797D01*
X375689D01*
X374902Y189010D01*
Y188223D01*
X375689Y187436D01*
X377263D01*
X378050Y186649D01*
Y185862D01*
X377263Y185074D01*
X375689D01*
X374902Y185862D01*
X379625Y189797D02*
X381199D01*
X380412D01*
Y185074D01*
X379625D01*
X381199D01*
X361436Y198910D02*
X360649Y199697D01*
X359074D01*
X358287Y198910D01*
Y198123D01*
X359074Y197336D01*
X360649D01*
X361436Y196549D01*
Y195762D01*
X360649Y194975D01*
X359074D01*
X358287Y195762D01*
X363010Y199697D02*
Y194975D01*
X365372D01*
X366159Y195762D01*
Y198910D01*
X365372Y199697D01*
X363010D01*
X367733Y194187D02*
X370882D01*
X375605Y198910D02*
X374817Y199697D01*
X373243D01*
X372456Y198910D01*
Y195762D01*
X373243Y194975D01*
X374817D01*
X375605Y195762D01*
X380328Y198910D02*
X379540Y199697D01*
X377966D01*
X377179Y198910D01*
Y198123D01*
X377966Y197336D01*
X379540D01*
X380328Y196549D01*
Y195762D01*
X379540Y194975D01*
X377966D01*
X377179Y195762D01*
X28291Y118510D02*
X29866D01*
X29079D01*
Y113787D01*
X28291D01*
X29866D01*
X32227D02*
Y118510D01*
X34589D01*
X35376Y117723D01*
Y116149D01*
X34589Y115362D01*
X32227D01*
X33801D02*
X35376Y113787D01*
X40099Y114575D02*
Y117723D01*
X39312Y118510D01*
X37737D01*
X36950Y117723D01*
Y114575D01*
X37737Y113787D01*
X39312D01*
X38524Y115362D02*
X40099Y113787D01*
X39312D02*
X40099Y114575D01*
X30940Y229010D02*
X30153Y229797D01*
X28578D01*
X27791Y229010D01*
Y228223D01*
X28578Y227436D01*
X30153D01*
X30940Y226649D01*
Y225862D01*
X30153Y225075D01*
X28578D01*
X27791Y225862D01*
X35663Y228223D02*
X33301D01*
X32514Y227436D01*
Y225862D01*
X33301Y225075D01*
X35663D01*
X37237Y228223D02*
Y225075D01*
Y226649D01*
X38024Y227436D01*
X38811Y228223D01*
X39599D01*
X44322Y225075D02*
X42747D01*
X41960Y225862D01*
Y227436D01*
X42747Y228223D01*
X44322D01*
X45109Y227436D01*
Y226649D01*
X41960D01*
X49044Y225075D02*
X47470D01*
X46683Y225862D01*
Y227436D01*
X47470Y228223D01*
X49044D01*
X49832Y227436D01*
Y226649D01*
X46683D01*
X51406Y225075D02*
Y228223D01*
X53767D01*
X54554Y227436D01*
Y225075D01*
X56129Y224287D02*
X59277D01*
X64000Y229010D02*
X63213Y229797D01*
X61639D01*
X60852Y229010D01*
Y225862D01*
X61639Y225075D01*
X63213D01*
X64000Y225862D01*
X68723Y229010D02*
X67936Y229797D01*
X66362D01*
X65574Y229010D01*
Y228223D01*
X66362Y227436D01*
X67936D01*
X68723Y226649D01*
Y225862D01*
X67936Y225075D01*
X66362D01*
X65574Y225862D01*
X27791Y214787D02*
Y219510D01*
X30153D01*
X30940Y218723D01*
Y217149D01*
X30153Y216362D01*
X27791D01*
X29366D02*
X30940Y214787D01*
X35663Y219510D02*
X32514D01*
Y214787D01*
X35663D01*
X32514Y217149D02*
X34089D01*
X40386Y218723D02*
X39599Y219510D01*
X38024D01*
X37237Y218723D01*
Y217936D01*
X38024Y217149D01*
X39599D01*
X40386Y216362D01*
Y215575D01*
X39599Y214787D01*
X38024D01*
X37237Y215575D01*
X45109Y219510D02*
X41960D01*
Y214787D01*
X45109D01*
X41960Y217149D02*
X43534D01*
X46683Y219510D02*
X49832D01*
X48257D01*
Y214787D01*
X27791Y209510D02*
Y204787D01*
X30153D01*
X30940Y205574D01*
Y208723D01*
X30153Y209510D01*
X27791D01*
X35663Y208723D02*
X34876Y209510D01*
X33301D01*
X32514Y208723D01*
Y205574D01*
X33301Y204787D01*
X34876D01*
X35663Y205574D01*
X30940Y188723D02*
X30153Y189510D01*
X28578D01*
X27791Y188723D01*
Y187936D01*
X28578Y187149D01*
X30153D01*
X30940Y186362D01*
Y185574D01*
X30153Y184787D01*
X28578D01*
X27791Y185574D01*
X35663Y188723D02*
X34876Y189510D01*
X33301D01*
X32514Y188723D01*
Y185574D01*
X33301Y184787D01*
X34876D01*
X35663Y185574D01*
X37237Y189510D02*
Y184787D01*
X40386D01*
X41960Y189510D02*
Y184787D01*
Y186362D01*
X45109Y189510D01*
X42747Y187149D01*
X45109Y184787D01*
X28291Y195287D02*
Y200010D01*
X29866Y198436D01*
X31440Y200010D01*
Y195287D01*
X35376Y200010D02*
X33801D01*
X33014Y199223D01*
Y196074D01*
X33801Y195287D01*
X35376D01*
X36163Y196074D01*
Y199223D01*
X35376Y200010D01*
X40886Y199223D02*
X40099Y200010D01*
X38524D01*
X37737Y199223D01*
Y198436D01*
X38524Y197649D01*
X40099D01*
X40886Y196862D01*
Y196074D01*
X40099Y195287D01*
X38524D01*
X37737Y196074D01*
X42460Y200010D02*
X44034D01*
X43247D01*
Y195287D01*
X42460D01*
X44034D01*
X45336Y238923D02*
X44549Y239710D01*
X42974D01*
X42187Y238923D01*
Y235774D01*
X42974Y234987D01*
X44549D01*
X45336Y235774D01*
Y237349D01*
X43762D01*
X46910Y234987D02*
Y239710D01*
X50059Y234987D01*
Y239710D01*
X51633D02*
Y234987D01*
X53995D01*
X54782Y235774D01*
Y238923D01*
X53995Y239710D01*
X51633D01*
X42787Y250510D02*
Y247362D01*
X44362Y245787D01*
X45936Y247362D01*
Y250510D01*
X50659Y249723D02*
X49872Y250510D01*
X48297D01*
X47510Y249723D01*
Y246574D01*
X48297Y245787D01*
X49872D01*
X50659Y246574D01*
X55382Y249723D02*
X54595Y250510D01*
X53020D01*
X52233Y249723D01*
Y246574D01*
X53020Y245787D01*
X54595D01*
X55382Y246574D01*
X28291Y124787D02*
Y129510D01*
X29866Y127936D01*
X31440Y129510D01*
Y124787D01*
X33014Y129510D02*
X34589D01*
X33801D01*
Y124787D01*
X33014D01*
X34589D01*
X40099Y128723D02*
X39312Y129510D01*
X37737D01*
X36950Y128723D01*
Y127936D01*
X37737Y127149D01*
X39312D01*
X40099Y126362D01*
Y125575D01*
X39312Y124787D01*
X37737D01*
X36950Y125575D01*
X44034Y129510D02*
X42460D01*
X41673Y128723D01*
Y125575D01*
X42460Y124787D01*
X44034D01*
X44822Y125575D01*
Y128723D01*
X44034Y129510D01*
X27291Y149797D02*
X30440D01*
X28866D01*
Y145074D01*
X32801D02*
X34376D01*
X35163Y145862D01*
Y147436D01*
X34376Y148223D01*
X32801D01*
X32014Y147436D01*
Y145862D01*
X32801Y145074D01*
X36737Y148223D02*
Y145862D01*
X37524Y145074D01*
X39886D01*
Y148223D01*
X44609D02*
X42247D01*
X41460Y147436D01*
Y145862D01*
X42247Y145074D01*
X44609D01*
X46183Y149797D02*
Y145074D01*
Y147436D01*
X46970Y148223D01*
X48544D01*
X49332Y147436D01*
Y145074D01*
X54054Y149010D02*
X53267Y149797D01*
X51693D01*
X50906Y149010D01*
Y148223D01*
X51693Y147436D01*
X53267D01*
X54054Y146649D01*
Y145862D01*
X53267Y145074D01*
X51693D01*
X50906Y145862D01*
X58777Y148223D02*
X56416D01*
X55629Y147436D01*
Y145862D01*
X56416Y145074D01*
X58777D01*
X60352Y148223D02*
Y145074D01*
Y146649D01*
X61139Y147436D01*
X61926Y148223D01*
X62713D01*
X67436Y145074D02*
X65862D01*
X65074Y145862D01*
Y147436D01*
X65862Y148223D01*
X67436D01*
X68223Y147436D01*
Y146649D01*
X65074D01*
X72159Y145074D02*
X70584D01*
X69797Y145862D01*
Y147436D01*
X70584Y148223D01*
X72159D01*
X72946Y147436D01*
Y146649D01*
X69797D01*
X74520Y145074D02*
Y148223D01*
X76882D01*
X77669Y147436D01*
Y145074D01*
X79243Y144287D02*
X82392D01*
X87115Y149010D02*
X86327Y149797D01*
X84753D01*
X83966Y149010D01*
Y145862D01*
X84753Y145074D01*
X86327D01*
X87115Y145862D01*
X91837Y149010D02*
X91050Y149797D01*
X89476D01*
X88689Y149010D01*
Y148223D01*
X89476Y147436D01*
X91050D01*
X91837Y146649D01*
Y145862D01*
X91050Y145074D01*
X89476D01*
X88689Y145862D01*
X28291Y135287D02*
Y140010D01*
X29866Y138436D01*
X31440Y140010D01*
Y135287D01*
X35376Y140010D02*
X33801D01*
X33014Y139223D01*
Y136074D01*
X33801Y135287D01*
X35376D01*
X36163Y136074D01*
Y139223D01*
X35376Y140010D01*
X40886Y139223D02*
X40099Y140010D01*
X38524D01*
X37737Y139223D01*
Y138436D01*
X38524Y137649D01*
X40099D01*
X40886Y136862D01*
Y136074D01*
X40099Y135287D01*
X38524D01*
X37737Y136074D01*
X42460Y140010D02*
X44034D01*
X43247D01*
Y135287D01*
X42460D01*
X44034D01*
X28291Y180010D02*
Y175287D01*
X31440D01*
X36163Y180010D02*
X33014D01*
Y175287D01*
X36163D01*
X33014Y177649D02*
X34589D01*
X37737Y180010D02*
Y175287D01*
X40099D01*
X40886Y176075D01*
Y179223D01*
X40099Y180010D01*
X37737D01*
X28291Y164787D02*
Y169510D01*
X29866Y167936D01*
X31440Y169510D01*
Y164787D01*
X33014Y169510D02*
X34589D01*
X33801D01*
Y164787D01*
X33014D01*
X34589D01*
X40099Y168723D02*
X39312Y169510D01*
X37737D01*
X36950Y168723D01*
Y167936D01*
X37737Y167149D01*
X39312D01*
X40099Y166362D01*
Y165575D01*
X39312Y164787D01*
X37737D01*
X36950Y165575D01*
X44034Y169510D02*
X42460D01*
X41673Y168723D01*
Y165575D01*
X42460Y164787D01*
X44034D01*
X44822Y165575D01*
Y168723D01*
X44034Y169510D01*
X30940Y159223D02*
X30153Y160010D01*
X28578D01*
X27791Y159223D01*
Y158436D01*
X28578Y157649D01*
X30153D01*
X30940Y156862D01*
Y156075D01*
X30153Y155287D01*
X28578D01*
X27791Y156075D01*
X35663Y159223D02*
X34876Y160010D01*
X33301D01*
X32514Y159223D01*
Y156075D01*
X33301Y155287D01*
X34876D01*
X35663Y156075D01*
X37237Y160010D02*
Y155287D01*
X40386D01*
X41960Y160010D02*
Y155287D01*
Y156862D01*
X45109Y160010D01*
X42747Y157649D01*
X45109Y155287D01*
X268804Y223410D02*
Y217900D01*
X271559D01*
X272477Y218818D01*
Y219737D01*
X271559Y220655D01*
X268804D01*
X271559D01*
X272477Y221573D01*
Y222492D01*
X271559Y223410D01*
X268804D01*
X277069D02*
X275232D01*
X274314Y222492D01*
Y218818D01*
X275232Y217900D01*
X277069D01*
X277987Y218818D01*
Y222492D01*
X277069Y223410D01*
X282579D02*
X280742D01*
X279824Y222492D01*
Y218818D01*
X280742Y217900D01*
X282579D01*
X283497Y218818D01*
Y222492D01*
X282579Y223410D01*
X285334D02*
X289007D01*
X287171D01*
Y217900D01*
X267647Y146745D02*
Y152255D01*
X270402D01*
X271321Y151337D01*
Y149500D01*
X270402Y148582D01*
X267647D01*
X269484D02*
X271321Y146745D01*
X276831Y152255D02*
X273157D01*
Y146745D01*
X276831D01*
X273157Y149500D02*
X274994D01*
X282341Y151337D02*
X281422Y152255D01*
X279586D01*
X278667Y151337D01*
Y150418D01*
X279586Y149500D01*
X281422D01*
X282341Y148582D01*
Y147663D01*
X281422Y146745D01*
X279586D01*
X278667Y147663D01*
X287851Y152255D02*
X284177D01*
Y146745D01*
X287851D01*
X284177Y149500D02*
X286014D01*
X289687Y152255D02*
X293361D01*
X291524D01*
Y146745D01*
D13*
X230000Y44900D02*
Y51100D01*
X234600D01*
Y44900D02*
Y51100D01*
X230000Y44900D02*
X234600D01*
X238400Y25100D02*
Y31300D01*
X233800Y25100D02*
X238400D01*
X233800D02*
Y31300D01*
X238400D01*
X164120Y250200D02*
X170320D01*
X164120D02*
Y254800D01*
X170320D01*
Y250200D02*
Y254800D01*
X182000Y256900D02*
X188200D01*
X182000D02*
Y261500D01*
X188200D01*
Y256900D02*
Y261500D01*
X168900Y32700D02*
X175100D01*
X168900D02*
Y37300D01*
X175100D01*
Y32700D02*
Y37300D01*
X223804Y247900D02*
Y254100D01*
X219204Y247900D02*
X223804D01*
X219204D02*
Y254100D01*
X223804D01*
D14*
X208423Y52231D02*
Y53569D01*
X213777Y52231D02*
Y53569D01*
X181327Y248831D02*
Y250169D01*
X186681Y248831D02*
Y250169D01*
X199877Y246831D02*
Y248169D01*
X194523Y246831D02*
Y248169D01*
X188075Y235323D02*
X189413D01*
X188075Y240677D02*
X189413D01*
X343835Y178177D02*
X345173D01*
X343835Y172823D02*
X345173D01*
X313335Y178677D02*
X314673D01*
X313335Y173323D02*
X314673D01*
X59575Y105677D02*
X60913D01*
X59575Y100323D02*
X60913D01*
X66681Y90331D02*
Y91669D01*
X61327Y90331D02*
Y91669D01*
X168075Y90677D02*
X169413D01*
X168075Y85323D02*
X169413D01*
X325181Y29831D02*
Y31169D01*
X319827Y29831D02*
Y31169D01*
X226077Y56531D02*
Y57869D01*
X220723Y56531D02*
Y57869D01*
X199123Y52331D02*
Y53669D01*
X204477Y52331D02*
Y53669D01*
X195181Y45331D02*
Y46669D01*
X189827Y45331D02*
Y46669D01*
X80827Y19571D02*
Y20909D01*
X86181Y19571D02*
Y20909D01*
X150327Y19831D02*
Y21169D01*
X155681Y19831D02*
Y21169D01*
X255681Y29831D02*
Y31169D01*
X250327Y29831D02*
Y31169D01*
X54331Y59248D02*
Y81886D01*
Y59248D02*
X103150D01*
Y81886D01*
X54331D02*
X103150D01*
X163335Y217677D02*
X164673D01*
X163335Y212323D02*
X164673D01*
X211827Y247331D02*
Y248669D01*
X217181Y247331D02*
Y248669D01*
X208377Y246731D02*
Y248069D01*
X203023Y246731D02*
Y248069D01*
X165335Y192823D02*
X166673D01*
X165335Y198177D02*
X166673D01*
X184327Y176571D02*
Y177909D01*
X189681Y176571D02*
Y177909D01*
X197835Y186677D02*
X199173D01*
X197835Y181323D02*
X199173D01*
D15*
X339004Y169500D02*
X344004D01*
D16*
X109508Y47499D02*
Y41501D01*
X112507D01*
X113506Y42501D01*
Y43500D01*
X112507Y44500D01*
X109508D01*
X112507D01*
X113506Y45500D01*
Y46499D01*
X112507Y47499D01*
X109508D01*
X115506D02*
X119504D01*
X117505D01*
Y41501D01*
X121504D02*
Y47499D01*
X125502Y41501D01*
Y47499D01*
X131500Y41501D02*
X127502D01*
X131500Y45500D01*
Y46499D01*
X130501Y47499D01*
X128501D01*
X127502Y46499D01*
X162000Y27000D02*
X165999D01*
X162000Y43499D02*
X165999D01*
X163999Y45499D02*
Y41500D01*
X146503Y288998D02*
X145503Y289998D01*
X143504D01*
X142504Y288998D01*
Y287999D01*
X143504Y286999D01*
X145503D01*
X146503Y285999D01*
Y285000D01*
X145503Y284000D01*
X143504D01*
X142504Y285000D01*
X152501Y289998D02*
X148502D01*
Y284000D01*
X152501D01*
X148502Y286999D02*
X150501D01*
X154500Y284000D02*
Y289998D01*
X157499D01*
X158499Y288998D01*
Y286999D01*
X157499Y285999D01*
X154500D01*
X156500D02*
X158499Y284000D01*
X160498Y289998D02*
X162497D01*
X161498D01*
Y284000D01*
X160498D01*
X162497D01*
X165497D02*
Y287999D01*
X167496Y289998D01*
X169495Y287999D01*
Y284000D01*
Y286999D01*
X165497D01*
X171495Y289998D02*
Y284000D01*
X175493D01*
X157503Y10498D02*
X155503D01*
X156503D01*
Y5500D01*
X155503Y4500D01*
X154504D01*
X153504Y5500D01*
X159502Y10498D02*
X163501D01*
X161501D01*
Y4500D01*
X165500D02*
Y8499D01*
X167499Y10498D01*
X169499Y8499D01*
Y4500D01*
Y7499D01*
X165500D01*
X175497Y9498D02*
X174497Y10498D01*
X172498D01*
X171498Y9498D01*
Y5500D01*
X172498Y4500D01*
X174497D01*
X175497Y5500D01*
Y7499D01*
X173497D01*
X335008Y46499D02*
Y40501D01*
X338007D01*
X339006Y41501D01*
Y42500D01*
X338007Y43500D01*
X335008D01*
X338007D01*
X339006Y44500D01*
Y45499D01*
X338007Y46499D01*
X335008D01*
X341006D02*
X345004D01*
X343005D01*
Y40501D01*
X347004D02*
Y46499D01*
X351002Y40501D01*
Y46499D01*
X356001Y40501D02*
Y46499D01*
X353002Y43500D01*
X357000D01*
X263508Y46999D02*
Y41001D01*
X266507D01*
X267506Y42001D01*
Y43000D01*
X266507Y44000D01*
X263508D01*
X266507D01*
X267506Y45000D01*
Y45999D01*
X266507Y46999D01*
X263508D01*
X269506D02*
X273504D01*
X271505D01*
Y41001D01*
X275504D02*
Y46999D01*
X279502Y41001D01*
Y46999D01*
X281502Y45999D02*
X282501Y46999D01*
X284501D01*
X285500Y45999D01*
Y45000D01*
X284501Y44000D01*
X283501D01*
X284501D01*
X285500Y43000D01*
Y42001D01*
X284501Y41001D01*
X282501D01*
X281502Y42001D01*
X40007Y47499D02*
Y41501D01*
X43006D01*
X44006Y42501D01*
Y43500D01*
X43006Y44500D01*
X40007D01*
X43006D01*
X44006Y45500D01*
Y46499D01*
X43006Y47499D01*
X40007D01*
X46005D02*
X50004D01*
X48005D01*
Y41501D01*
X52003D02*
Y47499D01*
X56002Y41501D01*
Y47499D01*
X58001Y41501D02*
X60001D01*
X59001D01*
Y47499D01*
X58001Y46499D01*
D17*
X123204Y9812D02*
X122548Y10468D01*
X121236D01*
X120580Y9812D01*
Y7188D01*
X121236Y6532D01*
X122548D01*
X123204Y7188D01*
X124516Y6532D02*
X125828D01*
X125172D01*
Y10468D01*
X124516Y9812D01*
X127796D02*
X128452Y10468D01*
X129764D01*
X130420Y9812D01*
Y9156D01*
X129764Y8500D01*
X129108D01*
X129764D01*
X130420Y7844D01*
Y7188D01*
X129764Y6532D01*
X128452D01*
X127796Y7188D01*
X55312Y9156D02*
X55968Y9812D01*
Y11124D01*
X55312Y11780D01*
X52688D01*
X52032Y11124D01*
Y9812D01*
X52688Y9156D01*
X55968Y5220D02*
X55312Y6532D01*
X54000Y7844D01*
X52688D01*
X52032Y7188D01*
Y5876D01*
X52688Y5220D01*
X53344D01*
X54000Y5876D01*
Y7844D01*
X365704Y55812D02*
X365048Y56468D01*
X363736D01*
X363080Y55812D01*
Y53188D01*
X363736Y52532D01*
X365048D01*
X365704Y53188D01*
X367016Y52532D02*
X368328D01*
X367672D01*
Y56468D01*
X367016Y55812D01*
X370296Y53188D02*
X370952Y52532D01*
X372264D01*
X372920Y53188D01*
Y55812D01*
X372264Y56468D01*
X370952D01*
X370296Y55812D01*
Y55156D01*
X370952Y54500D01*
X372920D01*
X306704Y52812D02*
X306048Y53468D01*
X304736D01*
X304080Y52812D01*
Y50188D01*
X304736Y49532D01*
X306048D01*
X306704Y50188D01*
X308016Y49532D02*
X309328D01*
X308672D01*
Y53468D01*
X308016Y52812D01*
X311296D02*
X311952Y53468D01*
X313264D01*
X313920Y52812D01*
Y52156D01*
X313264Y51500D01*
X313920Y50844D01*
Y50188D01*
X313264Y49532D01*
X311952D01*
X311296Y50188D01*
Y50844D01*
X311952Y51500D01*
X311296Y52156D01*
Y52812D01*
X311952Y51500D02*
X313264D01*
X382591Y226370D02*
X383246Y227026D01*
X384558D01*
X385214Y226370D01*
Y225714D01*
X384558Y225058D01*
X383902D01*
X384558D01*
X385214Y224402D01*
Y223746D01*
X384558Y223091D01*
X383246D01*
X382591Y223746D01*
X386526Y227026D02*
Y224402D01*
X387838Y223091D01*
X389150Y224402D01*
Y227026D01*
X390462Y226370D02*
X391118Y227026D01*
X392430D01*
X393086Y226370D01*
Y225714D01*
X392430Y225058D01*
X391774D01*
X392430D01*
X393086Y224402D01*
Y223746D01*
X392430Y223091D01*
X391118D01*
X390462Y223746D01*
X239114Y185670D02*
X238458Y186326D01*
X237146D01*
X236491Y185670D01*
Y183046D01*
X237146Y182390D01*
X238458D01*
X239114Y183046D01*
Y184358D01*
X237802D01*
X240426Y182390D02*
Y186326D01*
X242394D01*
X243050Y185670D01*
Y184358D01*
X242394Y183702D01*
X240426D01*
X244362Y186326D02*
X245674D01*
X245018D01*
Y182390D01*
X244362D01*
X245674D01*
X249610Y186326D02*
X248298D01*
X247642Y185670D01*
Y183046D01*
X248298Y182390D01*
X249610D01*
X250266Y183046D01*
Y185670D01*
X249610Y186326D01*
X251577Y185670D02*
X252234Y186326D01*
X253545D01*
X254201Y185670D01*
Y183046D01*
X253545Y182390D01*
X252234D01*
X251577Y183046D01*
Y185670D01*
X91978Y38590D02*
X94602D01*
X95913Y39902D01*
X94602Y41214D01*
X91978D01*
Y42526D02*
Y43838D01*
Y43182D01*
X95913D01*
Y42526D01*
Y43838D01*
Y45806D02*
X91978D01*
X95913Y48430D01*
X91978D01*
X159218Y269370D02*
X158562Y270026D01*
X157250D01*
X156595Y269370D01*
Y266746D01*
X157250Y266090D01*
X158562D01*
X159218Y266746D01*
Y268058D01*
X157906D01*
X160530Y266090D02*
Y270026D01*
X163154Y266090D01*
Y270026D01*
X164466D02*
Y266090D01*
X166434D01*
X167090Y266746D01*
Y269370D01*
X166434Y270026D01*
X164466D01*
X142095Y275714D02*
X144718D01*
X143406Y277026D02*
Y274402D01*
X146030Y277682D02*
Y275058D01*
X147342Y273746D01*
X148654Y275058D01*
Y277682D01*
X149966D02*
Y273746D01*
X151934D01*
X152590Y274402D01*
Y275058D01*
X151934Y275714D01*
X149966D01*
X151934D01*
X152590Y276370D01*
Y277026D01*
X151934Y277682D01*
X149966D01*
X153902D02*
Y274402D01*
X154558Y273746D01*
X155870D01*
X156526Y274402D01*
Y277682D01*
X160461Y277026D02*
X159805Y277682D01*
X158493D01*
X157837Y277026D01*
Y276370D01*
X158493Y275714D01*
X159805D01*
X160461Y275058D01*
Y274402D01*
X159805Y273746D01*
X158493D01*
X157837Y274402D01*
X161773Y273091D02*
X164397D01*
X165709Y273746D02*
X167021D01*
X166365D01*
Y277682D01*
X165709Y277026D01*
X26594Y93247D02*
Y95870D01*
X27906Y97182D01*
X29218Y95870D01*
Y93247D01*
Y95214D01*
X26594D01*
X30530Y93247D02*
Y97182D01*
X32498D01*
X33154Y96526D01*
Y95214D01*
X32498Y94558D01*
X30530D01*
X31842D02*
X33154Y93247D01*
X34466Y97182D02*
Y93247D01*
X36434D01*
X37090Y93902D01*
Y96526D01*
X36434Y97182D01*
X34466D01*
X38402Y92590D02*
X41026D01*
X42338Y97182D02*
X44961D01*
X43649D01*
Y93247D01*
X46273Y97182D02*
X48897Y93247D01*
Y97182D02*
X46273Y93247D01*
X138718Y68370D02*
X138062Y69026D01*
X136750D01*
X136094Y68370D01*
Y65746D01*
X136750Y65091D01*
X138062D01*
X138718Y65746D01*
Y67058D01*
X137406D01*
X140030Y65091D02*
Y69026D01*
X142654Y65091D01*
Y69026D01*
X143966D02*
Y65091D01*
X145934D01*
X146590Y65746D01*
Y68370D01*
X145934Y69026D01*
X143966D01*
X162094Y79026D02*
X162750Y79682D01*
X164062D01*
X164718Y79026D01*
Y78370D01*
X164062Y77714D01*
X163406D01*
X164062D01*
X164718Y77058D01*
Y76402D01*
X164062Y75747D01*
X162750D01*
X162094Y76402D01*
X166030Y79682D02*
Y77058D01*
X167342Y75747D01*
X168654Y77058D01*
Y79682D01*
X169966Y79026D02*
X170622Y79682D01*
X171934D01*
X172590Y79026D01*
Y78370D01*
X171934Y77714D01*
X171278D01*
X171934D01*
X172590Y77058D01*
Y76402D01*
X171934Y75747D01*
X170622D01*
X169966Y76402D01*
X173902Y75090D02*
X176526D01*
X177838Y75747D02*
Y79682D01*
X179805D01*
X180461Y79026D01*
Y77714D01*
X179805Y77058D01*
X177838D01*
X179149D02*
X180461Y75747D01*
X184397Y79682D02*
X181773D01*
Y75747D01*
X184397D01*
X181773Y77714D02*
X183085D01*
X188333Y79026D02*
X187677Y79682D01*
X186365D01*
X185709Y79026D01*
Y76402D01*
X186365Y75747D01*
X187677D01*
X188333Y76402D01*
Y77714D01*
X187021D01*
X140718Y121870D02*
X140062Y122526D01*
X138751D01*
X138094Y121870D01*
Y119246D01*
X138751Y118590D01*
X140062D01*
X140718Y119246D01*
Y120558D01*
X139406D01*
X142030Y118590D02*
Y122526D01*
X144654Y118590D01*
Y122526D01*
X145966D02*
Y118590D01*
X147934D01*
X148590Y119246D01*
Y121870D01*
X147934Y122526D01*
X145966D01*
X318000Y144736D02*
Y141456D01*
X318656Y140800D01*
X319968D01*
X320624Y141456D01*
Y144736D01*
X321936Y140800D02*
X323248D01*
X322592D01*
Y144736D01*
X321936Y144080D01*
X33704Y256812D02*
X33048Y257468D01*
X31736D01*
X31080Y256812D01*
Y254188D01*
X31736Y253532D01*
X33048D01*
X33704Y254188D01*
X35016Y253532D02*
X36328D01*
X35672D01*
Y257468D01*
X35016Y256812D01*
X40920Y253532D02*
X38296D01*
X40920Y256156D01*
Y256812D01*
X40264Y257468D01*
X38952D01*
X38296Y256812D01*
X75144Y91849D02*
X72520D01*
X71208Y93161D01*
X72520Y94473D01*
X75144D01*
X73176D01*
Y91849D01*
X75144Y95784D02*
X71208D01*
Y97752D01*
X71864Y98408D01*
X73176D01*
X73832Y97752D01*
Y95784D01*
Y97096D02*
X75144Y98408D01*
X71208Y99720D02*
X75144D01*
Y101688D01*
X74488Y102344D01*
X71864D01*
X71208Y101688D01*
Y99720D01*
X75800Y103656D02*
Y106280D01*
X75144Y107592D02*
X71208D01*
Y109560D01*
X71864Y110215D01*
X73176D01*
X73832Y109560D01*
Y107592D01*
Y108904D02*
X75144Y110215D01*
X71208Y111527D02*
X75144Y114151D01*
X71208D02*
X75144Y111527D01*
X17013Y51860D02*
Y54484D01*
X18325Y55796D01*
X19637Y54484D01*
Y51860D01*
Y53828D01*
X17013D01*
X20949Y51860D02*
Y55796D01*
X22917D01*
X23573Y55140D01*
Y53828D01*
X22917Y53172D01*
X20949D01*
X22261D02*
X23573Y51860D01*
X24885Y55796D02*
Y51860D01*
X26853D01*
X27509Y52516D01*
Y55140D01*
X26853Y55796D01*
X24885D01*
X28821Y51204D02*
X31444D01*
X32756Y55796D02*
X35380D01*
X34068D01*
Y51860D01*
X36692Y55796D02*
X39316Y51860D01*
Y55796D02*
X36692Y51860D01*
X40628Y51204D02*
X43252D01*
X47187Y55140D02*
X46531Y55796D01*
X45219D01*
X44564Y55140D01*
Y52516D01*
X45219Y51860D01*
X46531D01*
X47187Y52516D01*
X50467Y55796D02*
X49155D01*
X48499Y55140D01*
Y52516D01*
X49155Y51860D01*
X50467D01*
X51123Y52516D01*
Y55140D01*
X50467Y55796D01*
X52435Y51860D02*
Y55796D01*
X55059Y51860D01*
Y55796D01*
X56371Y51860D02*
Y55796D01*
X58995Y51860D01*
Y55796D01*
X82192Y40876D02*
X81536Y40220D01*
Y38908D01*
X82192Y38252D01*
X84816D01*
X85472Y38908D01*
Y40220D01*
X84816Y40876D01*
X83504D01*
Y39564D01*
X85472Y42188D02*
X81536D01*
X85472Y44812D01*
X81536D01*
Y46124D02*
X85472D01*
Y48092D01*
X84816Y48748D01*
X82192D01*
X81536Y48092D01*
Y46124D01*
X120718Y62326D02*
X120712Y59702D01*
X122021Y58387D01*
X123336Y59696D01*
X123342Y62320D01*
X124654Y62317D02*
X125966Y62314D01*
X125310Y62315D01*
X125301Y58379D01*
X124645Y58381D01*
X125957Y58378D01*
X127925Y58373D02*
X127934Y62309D01*
X130548Y58367D01*
X130558Y62303D01*
X131859Y57708D02*
X134483Y57702D01*
X135796Y58355D02*
X135805Y62290D01*
X137773Y62286D01*
X138427Y61628D01*
X138424Y60316D01*
X137767Y59662D01*
X135799Y59667D01*
X137111Y59663D02*
X138420Y58349D01*
X142365Y62275D02*
X139741Y62281D01*
X139732Y58346D01*
X142356Y58339D01*
X139736Y60313D02*
X141048Y60310D01*
X146299Y61610D02*
X145645Y62267D01*
X144333Y62270D01*
X143675Y61616D01*
X143669Y58992D01*
X144323Y58335D01*
X145635Y58332D01*
X146293Y58986D01*
X146296Y60298D01*
X144984Y60301D01*
X32724Y290968D02*
Y287032D01*
Y289000D01*
X35348D01*
Y290968D01*
Y287032D01*
X38628D02*
Y290968D01*
X36660Y289000D01*
X39284D01*
X366720Y292468D02*
Y288532D01*
Y290500D01*
X369344D01*
Y292468D01*
Y288532D01*
X370656Y291812D02*
X371312Y292468D01*
X372624D01*
X373280Y291812D01*
Y291156D01*
X372624Y290500D01*
X371968D01*
X372624D01*
X373280Y289844D01*
Y289188D01*
X372624Y288532D01*
X371312D01*
X370656Y289188D01*
X384420Y35768D02*
Y31832D01*
Y33800D01*
X387044D01*
Y35768D01*
Y31832D01*
X390980D02*
X388356D01*
X390980Y34456D01*
Y35112D01*
X390324Y35768D01*
X389012D01*
X388356Y35112D01*
X5876Y36668D02*
Y32732D01*
Y34700D01*
X8500D01*
Y36668D01*
Y32732D01*
X9812D02*
X11124D01*
X10468D01*
Y36668D01*
X9812Y36012D01*
X13784Y260128D02*
Y256848D01*
X14440Y256192D01*
X15752D01*
X16408Y256848D01*
Y260128D01*
X20344D02*
X17720D01*
Y258160D01*
X19032Y258816D01*
X19688D01*
X20344Y258160D01*
Y256848D01*
X19688Y256192D01*
X18376D01*
X17720Y256848D01*
X42496Y101032D02*
Y104968D01*
X44464D01*
X45120Y104312D01*
Y103000D01*
X44464Y102344D01*
X42496D01*
X43808D02*
X45120Y101032D01*
X49056D02*
X46432D01*
X49056Y103656D01*
Y104312D01*
X48400Y104968D01*
X47088D01*
X46432Y104312D01*
X52992Y101032D02*
X50368D01*
X52992Y103656D01*
Y104312D01*
X52336Y104968D01*
X51024D01*
X50368Y104312D01*
X49912Y85532D02*
Y89468D01*
X51880D01*
X52536Y88812D01*
Y87500D01*
X51880Y86844D01*
X49912D01*
X51224D02*
X52536Y85532D01*
X56472D02*
X53848D01*
X56472Y88156D01*
Y88812D01*
X55816Y89468D01*
X54504D01*
X53848Y88812D01*
X57784Y85532D02*
X59096D01*
X58440D01*
Y89468D01*
X57784Y88812D01*
X313852Y18832D02*
Y22768D01*
X315820D01*
X316476Y22112D01*
Y20800D01*
X315820Y20144D01*
X313852D01*
X315164D02*
X316476Y18832D01*
X320412D02*
X317788D01*
X320412Y21456D01*
Y22112D01*
X319756Y22768D01*
X318444D01*
X317788Y22112D01*
X321724D02*
X322380Y22768D01*
X323692D01*
X324348Y22112D01*
Y19488D01*
X323692Y18832D01*
X322380D01*
X321724Y19488D01*
Y22112D01*
X248472Y25580D02*
X244536D01*
Y27548D01*
X245192Y28204D01*
X246504D01*
X247160Y27548D01*
Y25580D01*
Y26892D02*
X248472Y28204D01*
Y29516D02*
Y30828D01*
Y30172D01*
X244536D01*
X245192Y29516D01*
X247816Y32796D02*
X248472Y33452D01*
Y34764D01*
X247816Y35420D01*
X245192D01*
X244536Y34764D01*
Y33452D01*
X245192Y32796D01*
X245848D01*
X246504Y33452D01*
Y35420D01*
X151032Y37420D02*
X154968D01*
Y35452D01*
X154312Y34796D01*
X153000D01*
X152344Y35452D01*
Y37420D01*
Y36108D02*
X151032Y34796D01*
Y33484D02*
Y32172D01*
Y32828D01*
X154968D01*
X154312Y33484D01*
Y30204D02*
X154968Y29548D01*
Y28236D01*
X154312Y27580D01*
X153656D01*
X153000Y28236D01*
X152344Y27580D01*
X151688D01*
X151032Y28236D01*
Y29548D01*
X151688Y30204D01*
X152344D01*
X153000Y29548D01*
X153656Y30204D01*
X154312D01*
X153000Y29548D02*
Y28236D01*
X89536Y24160D02*
X93472D01*
Y22192D01*
X92816Y21536D01*
X91504D01*
X90848Y22192D01*
Y24160D01*
Y22848D02*
X89536Y21536D01*
Y20224D02*
Y18912D01*
Y19568D01*
X93472D01*
X92816Y20224D01*
X93472Y16944D02*
Y14321D01*
X92816D01*
X90192Y16944D01*
X89536D01*
X95240Y96468D02*
Y92532D01*
X97208D01*
X97864Y93188D01*
Y95812D01*
X97208Y96468D01*
X95240D01*
X99176Y92532D02*
X100488D01*
X99832D01*
Y96468D01*
X99176Y95812D01*
X102456Y92532D02*
X103768D01*
X103112D01*
Y96468D01*
X102456Y95812D01*
X105504Y57468D02*
X104192D01*
X104848D01*
Y54188D01*
X104192Y53532D01*
X103536D01*
X102880Y54188D01*
X106816Y53532D02*
X108128D01*
X107472D01*
Y57468D01*
X106816Y56812D01*
X110724Y114468D02*
Y111188D01*
X111380Y110532D01*
X112692D01*
X113348Y111188D01*
Y114468D01*
X114660Y113812D02*
X115316Y114468D01*
X116628D01*
X117284Y113812D01*
Y113156D01*
X116628Y112500D01*
X115972D01*
X116628D01*
X117284Y111844D01*
Y111188D01*
X116628Y110532D01*
X115316D01*
X114660Y111188D01*
X161224Y207468D02*
Y204188D01*
X161880Y203532D01*
X163192D01*
X163848Y204188D01*
Y207468D01*
X167784Y203532D02*
X165160D01*
X167784Y206156D01*
Y206812D01*
X167128Y207468D01*
X165816D01*
X165160Y206812D01*
X213664Y60580D02*
X209728D01*
Y62548D01*
X210384Y63204D01*
X211696D01*
X212352Y62548D01*
Y60580D01*
Y61892D02*
X213664Y63204D01*
Y64516D02*
Y65828D01*
Y65172D01*
X209728D01*
X210384Y64516D01*
X209728Y70420D02*
X210384Y69108D01*
X211696Y67796D01*
X213008D01*
X213664Y68452D01*
Y69764D01*
X213008Y70420D01*
X212352D01*
X211696Y69764D01*
Y67796D01*
X203964Y60680D02*
X200028D01*
Y62648D01*
X200684Y63304D01*
X201996D01*
X202652Y62648D01*
Y60680D01*
Y61992D02*
X203964Y63304D01*
Y64616D02*
Y65928D01*
Y65272D01*
X200028D01*
X200684Y64616D01*
X200028Y70520D02*
Y67896D01*
X201996D01*
X201340Y69208D01*
Y69864D01*
X201996Y70520D01*
X203308D01*
X203964Y69864D01*
Y68552D01*
X203308Y67896D01*
X336084Y180032D02*
Y183968D01*
X338052D01*
X338708Y183312D01*
Y182000D01*
X338052Y181344D01*
X336084D01*
X337396D02*
X338708Y180032D01*
X340020D02*
X341332D01*
X340676D01*
Y183968D01*
X340020Y183312D01*
X345268Y180032D02*
Y183968D01*
X343300Y182000D01*
X345924D01*
X307904Y182400D02*
Y186336D01*
X309872D01*
X310528Y185680D01*
Y184368D01*
X309872Y183712D01*
X307904D01*
X309216D02*
X310528Y182400D01*
X311840D02*
X313152D01*
X312496D01*
Y186336D01*
X311840Y185680D01*
X315120D02*
X315775Y186336D01*
X317087D01*
X317743Y185680D01*
Y185024D01*
X317087Y184368D01*
X316431D01*
X317087D01*
X317743Y183712D01*
Y183056D01*
X317087Y182400D01*
X315775D01*
X315120Y183056D01*
X185084Y166032D02*
Y169968D01*
X187052D01*
X187708Y169312D01*
Y168000D01*
X187052Y167344D01*
X185084D01*
X186396D02*
X187708Y166032D01*
X189020D02*
X190332D01*
X189676D01*
Y169968D01*
X189020Y169312D01*
X194924Y166032D02*
X192300D01*
X194924Y168656D01*
Y169312D01*
X194268Y169968D01*
X192956D01*
X192300Y169312D01*
X157904Y221400D02*
Y225336D01*
X159872D01*
X160528Y224680D01*
Y223368D01*
X159872Y222712D01*
X157904D01*
X159216D02*
X160528Y221400D01*
X161840D02*
X163152D01*
X162496D01*
Y225336D01*
X161840Y224680D01*
X165120Y221400D02*
X166431D01*
X165776D01*
Y225336D01*
X165120Y224680D01*
X193584Y175532D02*
Y179468D01*
X195552D01*
X196208Y178812D01*
Y177500D01*
X195552Y176844D01*
X193584D01*
X194896D02*
X196208Y175532D01*
X197520D02*
X198832D01*
X198176D01*
Y179468D01*
X197520Y178812D01*
X200800D02*
X201456Y179468D01*
X202768D01*
X203424Y178812D01*
Y176188D01*
X202768Y175532D01*
X201456D01*
X200800Y176188D01*
Y178812D01*
X152224Y193532D02*
Y197468D01*
X154192D01*
X154848Y196812D01*
Y195500D01*
X154192Y194844D01*
X152224D01*
X153536D02*
X154848Y193532D01*
X156160Y194188D02*
X156816Y193532D01*
X158128D01*
X158784Y194188D01*
Y196812D01*
X158128Y197468D01*
X156816D01*
X156160Y196812D01*
Y196156D01*
X156816Y195500D01*
X158784D01*
X176964Y85532D02*
Y89468D01*
X178932D01*
X179588Y88812D01*
Y87500D01*
X178932Y86844D01*
X176964D01*
X178276D02*
X179588Y85532D01*
X180900Y88812D02*
X181556Y89468D01*
X182868D01*
X183524Y88812D01*
Y88156D01*
X182868Y87500D01*
X183524Y86844D01*
Y86188D01*
X182868Y85532D01*
X181556D01*
X180900Y86188D01*
Y86844D01*
X181556Y87500D01*
X180900Y88156D01*
Y88812D01*
X181556Y87500D02*
X182868D01*
X216972Y234220D02*
X213036D01*
Y236188D01*
X213692Y236844D01*
X215004D01*
X215660Y236188D01*
Y234220D01*
Y235532D02*
X216972Y236844D01*
X213036Y238156D02*
Y240780D01*
X213692D01*
X216316Y238156D01*
X216972D01*
X179972Y246220D02*
X176036D01*
Y248188D01*
X176692Y248844D01*
X178004D01*
X178660Y248188D01*
Y246220D01*
Y247532D02*
X179972Y248844D01*
X176036Y252780D02*
X176692Y251468D01*
X178004Y250156D01*
X179316D01*
X179972Y250812D01*
Y252124D01*
X179316Y252780D01*
X178660D01*
X178004Y252124D01*
Y250156D01*
X193972Y55720D02*
X190036D01*
Y57688D01*
X190692Y58344D01*
X192004D01*
X192660Y57688D01*
Y55720D01*
Y57032D02*
X193972Y58344D01*
X190036Y62280D02*
Y59656D01*
X192004D01*
X191348Y60968D01*
Y61624D01*
X192004Y62280D01*
X193316D01*
X193972Y61624D01*
Y60312D01*
X193316Y59656D01*
X231868Y54420D02*
X227932D01*
Y56388D01*
X228588Y57044D01*
X229900D01*
X230556Y56388D01*
Y54420D01*
Y55732D02*
X231868Y57044D01*
Y60324D02*
X227932D01*
X229900Y58356D01*
Y60980D01*
X175224Y236032D02*
Y239968D01*
X177192D01*
X177848Y239312D01*
Y238000D01*
X177192Y237344D01*
X175224D01*
X176536D02*
X177848Y236032D01*
X179160Y239312D02*
X179816Y239968D01*
X181128D01*
X181784Y239312D01*
Y238656D01*
X181128Y238000D01*
X180472D01*
X181128D01*
X181784Y237344D01*
Y236688D01*
X181128Y236032D01*
X179816D01*
X179160Y236688D01*
X198920Y254232D02*
Y258168D01*
X200888D01*
X201544Y257512D01*
Y256200D01*
X200888Y255544D01*
X198920D01*
X200232D02*
X201544Y254232D01*
X205480D02*
X202856D01*
X205480Y256856D01*
Y257512D01*
X204824Y258168D01*
X203512D01*
X202856Y257512D01*
X192768Y244876D02*
X188832D01*
Y246844D01*
X189488Y247500D01*
X190800D01*
X191456Y246844D01*
Y244876D01*
Y246188D02*
X192768Y247500D01*
Y248812D02*
Y250124D01*
Y249468D01*
X188832D01*
X189488Y248812D01*
X215348Y202688D02*
Y205312D01*
X214692Y205968D01*
X213380D01*
X212724Y205312D01*
Y202688D01*
X213380Y202032D01*
X214692D01*
X214036Y203344D02*
X215348Y202032D01*
X214692D02*
X215348Y202688D01*
X219284Y202032D02*
X216660D01*
X219284Y204656D01*
Y205312D01*
X218628Y205968D01*
X217316D01*
X216660Y205312D01*
X163504Y168188D02*
Y170812D01*
X162848Y171468D01*
X161536D01*
X160880Y170812D01*
Y168188D01*
X161536Y167532D01*
X162848D01*
X162192Y168844D02*
X163504Y167532D01*
X162848D02*
X163504Y168188D01*
X164816Y167532D02*
X166128D01*
X165472D01*
Y171468D01*
X164816Y170812D01*
X178848Y23468D02*
X177536D01*
X178192D01*
Y20188D01*
X177536Y19532D01*
X176880D01*
X176224Y20188D01*
X182128Y19532D02*
Y23468D01*
X180160Y21500D01*
X182784D01*
X227848Y292968D02*
X226536D01*
X227192D01*
Y289688D01*
X226536Y289032D01*
X225880D01*
X225224Y289688D01*
X229160Y292312D02*
X229816Y292968D01*
X231128D01*
X231784Y292312D01*
Y291656D01*
X231128Y291000D01*
X230472D01*
X231128D01*
X231784Y290344D01*
Y289688D01*
X231128Y289032D01*
X229816D01*
X229160Y289688D01*
X333536Y156080D02*
X337472D01*
Y158048D01*
X336816Y158704D01*
X334192D01*
X333536Y158048D01*
Y156080D01*
X337472Y160016D02*
Y161328D01*
Y160672D01*
X333536D01*
X334192Y160016D01*
Y163296D02*
X333536Y163952D01*
Y165264D01*
X334192Y165920D01*
X336816D01*
X337472Y165264D01*
Y163952D01*
X336816Y163296D01*
X334192D01*
X168224Y104468D02*
Y100532D01*
X170192D01*
X170848Y101188D01*
Y103812D01*
X170192Y104468D01*
X168224D01*
X172160Y101188D02*
X172816Y100532D01*
X174128D01*
X174784Y101188D01*
Y103812D01*
X174128Y104468D01*
X172816D01*
X172160Y103812D01*
Y103156D01*
X172816Y102500D01*
X174784D01*
X173720Y260368D02*
Y256432D01*
X175688D01*
X176344Y257088D01*
Y259712D01*
X175688Y260368D01*
X173720D01*
X177656Y259712D02*
X178312Y260368D01*
X179624D01*
X180280Y259712D01*
Y259056D01*
X179624Y258400D01*
X180280Y257744D01*
Y257088D01*
X179624Y256432D01*
X178312D01*
X177656Y257088D01*
Y257744D01*
X178312Y258400D01*
X177656Y259056D01*
Y259712D01*
X178312Y258400D02*
X179624D01*
X155441Y254468D02*
Y250532D01*
X157408D01*
X158064Y251188D01*
Y253812D01*
X157408Y254468D01*
X155441D01*
X159376D02*
X162000D01*
Y253812D01*
X159376Y251188D01*
Y250532D01*
X229972Y253780D02*
X226036D01*
Y251812D01*
X226692Y251156D01*
X229316D01*
X229972Y251812D01*
Y253780D01*
Y247220D02*
X229316Y248532D01*
X228004Y249844D01*
X226692D01*
X226036Y249188D01*
Y247876D01*
X226692Y247220D01*
X227348D01*
X228004Y247876D01*
Y249844D01*
X232820Y23168D02*
Y19232D01*
X234788D01*
X235444Y19888D01*
Y22512D01*
X234788Y23168D01*
X232820D01*
X239380D02*
X236756D01*
Y21200D01*
X238068Y21856D01*
X238724D01*
X239380Y21200D01*
Y19888D01*
X238724Y19232D01*
X237412D01*
X236756Y19888D01*
X236920Y55768D02*
Y51832D01*
X238888D01*
X239544Y52488D01*
Y55112D01*
X238888Y55768D01*
X236920D01*
X242824Y51832D02*
Y55768D01*
X240856Y53800D01*
X243480D01*
X160220Y37468D02*
Y33532D01*
X162188D01*
X162844Y34188D01*
Y36812D01*
X162188Y37468D01*
X160220D01*
X164156Y36812D02*
X164812Y37468D01*
X166124D01*
X166780Y36812D01*
Y36156D01*
X166124Y35500D01*
X165468D01*
X166124D01*
X166780Y34844D01*
Y34188D01*
X166124Y33532D01*
X164812D01*
X164156Y34188D01*
X242020Y269568D02*
Y265632D01*
X243988D01*
X244644Y266288D01*
Y268912D01*
X243988Y269568D01*
X242020D01*
X248580Y265632D02*
X245956D01*
X248580Y268256D01*
Y268912D01*
X247924Y269568D01*
X246612D01*
X245956Y268912D01*
X181036Y59376D02*
X184972D01*
Y61344D01*
X184316Y62000D01*
X181692D01*
X181036Y61344D01*
Y59376D01*
X184972Y63312D02*
Y64624D01*
Y63968D01*
X181036D01*
X181692Y63312D01*
X249192Y194704D02*
X248536Y194048D01*
Y192736D01*
X249192Y192080D01*
X251816D01*
X252472Y192736D01*
Y194048D01*
X251816Y194704D01*
X252472Y196016D02*
Y197328D01*
Y196672D01*
X248536D01*
X249192Y196016D01*
X248536Y199296D02*
Y201920D01*
X249192D01*
X251816Y199296D01*
X252472D01*
X249192Y170704D02*
X248536Y170048D01*
Y168736D01*
X249192Y168080D01*
X251816D01*
X252472Y168736D01*
Y170048D01*
X251816Y170704D01*
X252472Y172016D02*
Y173328D01*
Y172672D01*
X248536D01*
X249192Y172016D01*
X248536Y177920D02*
X249192Y176608D01*
X250504Y175296D01*
X251816D01*
X252472Y175952D01*
Y177264D01*
X251816Y177920D01*
X251160D01*
X250504Y177264D01*
Y175296D01*
X381788Y150704D02*
X381132Y150048D01*
Y148736D01*
X381788Y148080D01*
X384412D01*
X385068Y148736D01*
Y150048D01*
X384412Y150704D01*
X385068Y152016D02*
Y153328D01*
Y152672D01*
X381132D01*
X381788Y152016D01*
X381132Y157920D02*
Y155296D01*
X383100D01*
X382444Y156608D01*
Y157264D01*
X383100Y157920D01*
X384412D01*
X385068Y157264D01*
Y155952D01*
X384412Y155296D01*
X381488Y139304D02*
X380832Y138648D01*
Y137336D01*
X381488Y136680D01*
X384112D01*
X384768Y137336D01*
Y138648D01*
X384112Y139304D01*
X384768Y140616D02*
Y141928D01*
Y141272D01*
X380832D01*
X381488Y140616D01*
X384768Y145864D02*
X380832D01*
X382800Y143896D01*
Y146520D01*
X107864Y64812D02*
X107208Y65468D01*
X105896D01*
X105240Y64812D01*
Y62188D01*
X105896Y61532D01*
X107208D01*
X107864Y62188D01*
X109176Y61532D02*
X110488D01*
X109832D01*
Y65468D01*
X109176Y64812D01*
X112456Y61532D02*
X113768D01*
X113112D01*
Y65468D01*
X112456Y64812D01*
X148708Y109312D02*
X148052Y109968D01*
X146740D01*
X146084Y109312D01*
Y106688D01*
X146740Y106032D01*
X148052D01*
X148708Y106688D01*
X150020Y106032D02*
X151332D01*
X150676D01*
Y109968D01*
X150020Y109312D01*
X153300D02*
X153956Y109968D01*
X155268D01*
X155924Y109312D01*
Y106688D01*
X155268Y106032D01*
X153956D01*
X153300Y106688D01*
Y109312D01*
X151316Y78656D02*
X151972Y79312D01*
Y80624D01*
X151316Y81280D01*
X148692D01*
X148036Y80624D01*
Y79312D01*
X148692Y78656D01*
Y77344D02*
X148036Y76688D01*
Y75376D01*
X148692Y74720D01*
X151316D01*
X151972Y75376D01*
Y76688D01*
X151316Y77344D01*
X150660D01*
X150004Y76688D01*
Y74720D01*
X116188Y76844D02*
X115532Y76188D01*
Y74876D01*
X116188Y74220D01*
X118812D01*
X119468Y74876D01*
Y76188D01*
X118812Y76844D01*
X116188Y78156D02*
X115532Y78812D01*
Y80124D01*
X116188Y80780D01*
X116844D01*
X117500Y80124D01*
X118156Y80780D01*
X118812D01*
X119468Y80124D01*
Y78812D01*
X118812Y78156D01*
X118156D01*
X117500Y78812D01*
X116844Y78156D01*
X116188D01*
X117500Y78812D02*
Y80124D01*
X177848Y229812D02*
X177192Y230468D01*
X175880D01*
X175224Y229812D01*
Y227188D01*
X175880Y226532D01*
X177192D01*
X177848Y227188D01*
X179160Y230468D02*
X181784D01*
Y229812D01*
X179160Y227188D01*
Y226532D01*
X164348Y185312D02*
X163692Y185968D01*
X162380D01*
X161724Y185312D01*
Y182688D01*
X162380Y182032D01*
X163692D01*
X164348Y182688D01*
X168284Y185968D02*
X165660D01*
Y184000D01*
X166972Y184656D01*
X167628D01*
X168284Y184000D01*
Y182688D01*
X167628Y182032D01*
X166316D01*
X165660Y182688D01*
X234348Y282812D02*
X233692Y283468D01*
X232380D01*
X231724Y282812D01*
Y280188D01*
X232380Y279532D01*
X233692D01*
X234348Y280188D01*
X237628Y279532D02*
Y283468D01*
X235660Y281500D01*
X238284D01*
X168848Y62312D02*
X168192Y62968D01*
X166880D01*
X166224Y62312D01*
Y59688D01*
X166880Y59032D01*
X168192D01*
X168848Y59688D01*
X170160Y62312D02*
X170816Y62968D01*
X172128D01*
X172784Y62312D01*
Y61656D01*
X172128Y61000D01*
X171472D01*
X172128D01*
X172784Y60344D01*
Y59688D01*
X172128Y59032D01*
X170816D01*
X170160Y59688D01*
X233348Y239312D02*
X232692Y239968D01*
X231380D01*
X230724Y239312D01*
Y236688D01*
X231380Y236032D01*
X232692D01*
X233348Y236688D01*
X237284Y236032D02*
X234660D01*
X237284Y238656D01*
Y239312D01*
X236628Y239968D01*
X235316D01*
X234660Y239312D01*
X249100Y244112D02*
X248444Y244768D01*
X247132D01*
X246476Y244112D01*
Y241488D01*
X247132Y240832D01*
X248444D01*
X249100Y241488D01*
X250412Y240832D02*
X251724D01*
X251068D01*
Y244768D01*
X250412Y244112D01*
M02*
