G04*
G04 #@! TF.GenerationSoftware,Altium Limited,Altium Designer,25.3.2 (17)*
G04*
G04 Layer_Color=16711935*
%FSLAX25Y25*%
%MOIN*%
G70*
G04*
G04 #@! TF.SameCoordinates,61AD8EE7-702F-4F1E-9177-D9EBC2C31418*
G04*
G04*
G04 #@! TF.FilePolarity,Negative*
G04*
G01*
G75*
%ADD59C,0.02559*%
%ADD60C,0.05872*%
%ADD61R,0.05872X0.05872*%
%ADD62R,0.05794X0.05794*%
%ADD63C,0.05794*%
%ADD64C,0.25197*%
%ADD65R,0.06337X0.06337*%
%ADD66C,0.06337*%
D59*
X214638Y27004D02*
D03*
X191882D02*
D03*
Y269744D02*
D03*
X214638D02*
D03*
D60*
X388564Y177160D02*
D03*
Y187160D02*
D03*
Y167160D02*
D03*
D61*
Y197160D02*
D03*
D62*
X17064Y247160D02*
D03*
D63*
Y117160D02*
D03*
Y127160D02*
D03*
Y137160D02*
D03*
Y147160D02*
D03*
Y157160D02*
D03*
Y167160D02*
D03*
Y227160D02*
D03*
Y217160D02*
D03*
Y237160D02*
D03*
Y177160D02*
D03*
Y187160D02*
D03*
Y197160D02*
D03*
Y207160D02*
D03*
D64*
X386487Y280000D02*
D03*
X385700Y16800D02*
D03*
X19004Y280000D02*
D03*
X17000Y16700D02*
D03*
D65*
X93504Y68500D02*
D03*
D66*
X83662D02*
D03*
X63976D02*
D03*
X73819D02*
D03*
M02*
