G04*
G04 #@! TF.GenerationSoftware,Altium Limited,Altium Designer,25.3.2 (17)*
G04*
G04 Layer_Physical_Order=4*
G04 Layer_Color=16711680*
%FSLAX25Y25*%
%MOIN*%
G70*
G04*
G04 #@! TF.SameCoordinates,61AD8EE7-702F-4F1E-9177-D9EBC2C31418*
G04*
G04*
G04 #@! TF.FilePolarity,Positive*
G04*
G01*
G75*
%ADD16C,0.01000*%
%ADD59C,0.02559*%
%ADD64C,0.25197*%
%ADD67C,0.00603*%
%ADD68C,0.01500*%
%ADD70C,0.03000*%
%ADD73C,0.05472*%
%ADD74R,0.05472X0.05472*%
%ADD75R,0.05394X0.05394*%
%ADD76C,0.05394*%
%ADD77R,0.05937X0.05937*%
%ADD78C,0.05937*%
%ADD79C,0.02756*%
%ADD80C,0.01968*%
D16*
X232017Y40984D02*
X233001Y40000D01*
X178584Y40984D02*
X232017D01*
X161600Y24000D02*
X178584Y40984D01*
X181500Y94667D02*
X184567Y91600D01*
X187200D01*
X181500Y94667D02*
Y111900D01*
X186500Y101700D02*
X189117Y99083D01*
X206300Y197400D02*
Y225500D01*
X197500Y234300D02*
X206300Y225500D01*
X185500Y176600D02*
X206300Y197400D01*
X178800Y176600D02*
X185500D01*
X186500Y101700D02*
Y119700D01*
X112800Y103000D02*
X137800D01*
X143600Y108800D01*
X139100Y99100D02*
X140300Y100300D01*
X122800Y99100D02*
X139100D01*
X140300Y100500D02*
X145200Y105400D01*
X140300Y100300D02*
Y100500D01*
X117000Y93300D02*
X122800Y99100D01*
X359238Y150000D02*
X359500D01*
X326400Y151700D02*
X334500Y143600D01*
X341500Y151000D02*
X358238D01*
X359238Y150000D01*
X143600Y108800D02*
X157700D01*
X145200Y105400D02*
X157600D01*
X125100Y130800D02*
X175400D01*
X133300Y124600D02*
X133700Y125000D01*
X168400D01*
X200700Y176600D02*
X234300D01*
X263600Y147300D01*
X337700Y89200D02*
X341400Y85500D01*
X337700Y89200D02*
Y145200D01*
X328800Y154100D02*
X337700Y145200D01*
X318300Y154100D02*
X328800D01*
X311500Y147300D02*
X318300Y154100D01*
X263600Y147300D02*
X311500D01*
X334500Y83100D02*
Y143600D01*
X37700Y197000D02*
X37800Y196900D01*
Y141800D02*
Y196900D01*
Y141800D02*
X37900Y141700D01*
X31700Y129300D02*
Y167100D01*
X24900Y160900D02*
Y161162D01*
X25300Y161562D01*
Y186400D01*
X175400Y130800D02*
X186500Y119700D01*
X168400Y125000D02*
X181500Y111900D01*
X309400Y73600D02*
X309600Y73800D01*
X333100D01*
X309700Y68700D02*
X333800D01*
X325200Y157386D02*
Y166700D01*
Y157386D02*
X325786Y156800D01*
X330600D01*
X346100Y141300D01*
Y99100D02*
Y141300D01*
X307800Y89500D02*
X330900D01*
X330884Y95884D02*
X331000Y96000D01*
X308084Y95884D02*
X330884D01*
X307900Y95700D02*
X308084Y95884D01*
X233001Y40000D02*
X236100D01*
X104200Y24000D02*
X161600D01*
X170200Y16400D02*
X212000D01*
X232400Y36800D01*
X112500Y93300D02*
X117000D01*
X194700Y159200D02*
Y177500D01*
D59*
X214638Y27004D02*
D03*
X191882D02*
D03*
Y269744D02*
D03*
X214638D02*
D03*
D64*
X386487Y280000D02*
D03*
X385700Y16800D02*
D03*
X19004Y280000D02*
D03*
X17000Y16700D02*
D03*
D67*
X210000Y36500D02*
X223100D01*
X223300Y36700D01*
X225900Y43900D02*
X226000Y44000D01*
X201700Y43900D02*
X225900D01*
X201600Y43800D02*
X201700Y43900D01*
X190900Y255500D02*
X200900D01*
X188000Y252600D02*
X190900Y255500D01*
X173400Y252600D02*
X188000D01*
X190475Y259125D02*
X203075D01*
X190450Y259150D02*
X190475Y259125D01*
X203075D02*
X203100Y259100D01*
X310400Y137197D02*
X311397Y136200D01*
X311297Y139700D02*
X311400D01*
X310300Y138703D02*
X311297Y139700D01*
X281668Y138703D02*
X310300D01*
X201800Y61300D02*
X205345D01*
X205749Y61703D01*
Y62784D02*
X281668Y138703D01*
X205749Y61703D02*
Y62784D01*
X282249Y137300D02*
X310300D01*
X211050Y61350D02*
X211100Y61400D01*
X207152Y62203D02*
X282249Y137300D01*
X207152Y61703D02*
Y62203D01*
Y61703D02*
X207505Y61350D01*
X211050D01*
D68*
X357700Y161500D02*
X382700Y136500D01*
X335400Y161500D02*
X357700D01*
D70*
X184100Y71400D02*
X218200Y105500D01*
Y172500D01*
X218700Y183400D02*
Y192300D01*
X231800Y205400D01*
D73*
X388564Y177160D02*
D03*
Y187160D02*
D03*
Y167160D02*
D03*
D74*
Y197160D02*
D03*
D75*
X17064Y247160D02*
D03*
D76*
Y117160D02*
D03*
Y127160D02*
D03*
Y137160D02*
D03*
Y147160D02*
D03*
Y157160D02*
D03*
Y167160D02*
D03*
Y227160D02*
D03*
Y217160D02*
D03*
Y237160D02*
D03*
Y177160D02*
D03*
Y187160D02*
D03*
Y197160D02*
D03*
Y207160D02*
D03*
D77*
X93504Y68500D02*
D03*
D78*
X83662D02*
D03*
X63976D02*
D03*
X73819D02*
D03*
D79*
X210000Y36500D02*
D03*
X126500Y8000D02*
D03*
X57000D02*
D03*
X380000Y46000D02*
D03*
X320500Y43000D02*
D03*
X348500Y95500D02*
D03*
X343500Y89000D02*
D03*
X202000Y172500D02*
D03*
X197500Y238500D02*
D03*
X129500Y127500D02*
D03*
X118500Y131000D02*
D03*
X322000Y169500D02*
D03*
X213500Y170500D02*
D03*
X211500Y182000D02*
D03*
X235500Y200000D02*
D03*
X226000Y210000D02*
D03*
X172000Y256500D02*
D03*
X178500Y70500D02*
D03*
X191000D02*
D03*
X199000Y160500D02*
D03*
X225500Y180500D02*
D03*
X321500Y157000D02*
D03*
X312500Y132500D02*
D03*
X334500Y77500D02*
D03*
X306000Y65000D02*
D03*
X305500Y77000D02*
D03*
X226500Y48500D02*
D03*
X101000Y20500D02*
D03*
Y27500D02*
D03*
X35500Y130000D02*
D03*
X42000Y142000D02*
D03*
X28500Y161500D02*
D03*
X33500Y171500D02*
D03*
X30000Y187500D02*
D03*
X42000Y199000D02*
D03*
X35000Y261500D02*
D03*
X24000D02*
D03*
X19504Y255896D02*
D03*
X348264Y182536D02*
D03*
X46700Y242000D02*
D03*
X197500Y234300D02*
D03*
X178800Y176600D02*
D03*
X162700Y73000D02*
D03*
X164800Y82600D02*
D03*
X7000Y254100D02*
D03*
X34500Y256100D02*
D03*
X178300Y228600D02*
D03*
X173300Y245500D02*
D03*
X142700Y94600D02*
D03*
X143500Y70400D02*
D03*
X136100Y87000D02*
D03*
X33600Y34800D02*
D03*
X143506Y26260D02*
D03*
X153400Y82700D02*
D03*
X158200Y92500D02*
D03*
X26900Y242000D02*
D03*
X29300Y235400D02*
D03*
X184100Y71400D02*
D03*
X218200Y172500D02*
D03*
X218700Y183400D02*
D03*
X231800Y205400D02*
D03*
X216300Y273900D02*
D03*
X226900Y249900D02*
D03*
X232040Y60960D02*
D03*
X236200Y21600D02*
D03*
X232300Y53400D02*
D03*
X201600Y43800D02*
D03*
X226000Y44000D02*
D03*
X223300Y36700D02*
D03*
X200900Y255500D02*
D03*
X173400Y252600D02*
D03*
X177600Y259000D02*
D03*
X330800Y26900D02*
D03*
X131500Y95500D02*
D03*
X165900Y258200D02*
D03*
X325200Y166700D02*
D03*
X346100Y99100D02*
D03*
X330900Y89500D02*
D03*
X330942Y95942D02*
D03*
X394600Y124100D02*
D03*
X386700Y122100D02*
D03*
X378800Y218300D02*
D03*
X396400Y159700D02*
D03*
X394400Y54200D02*
D03*
X214500Y238000D02*
D03*
X169500Y209000D02*
D03*
X233300Y235900D02*
D03*
X174200Y262600D02*
D03*
X259000Y205900D02*
D03*
X172400Y282600D02*
D03*
X245153Y274653D02*
D03*
X251896Y250700D02*
D03*
X231700Y285700D02*
D03*
X264300Y211400D02*
D03*
X26676Y248076D02*
D03*
X232400Y13500D02*
D03*
X327300Y17300D02*
D03*
X303600Y17000D02*
D03*
X255300Y17500D02*
D03*
X75900Y41600D02*
D03*
X81900Y34800D02*
D03*
X83500Y28600D02*
D03*
X49800Y102800D02*
D03*
X149600Y116200D02*
D03*
X151100Y111600D02*
D03*
X309771Y211329D02*
D03*
X190900Y22000D02*
D03*
X175600Y13500D02*
D03*
X153000Y31200D02*
D03*
X166500Y22600D02*
D03*
X260300Y26600D02*
D03*
X324700Y176000D02*
D03*
X311842Y158142D02*
D03*
X265000Y158200D02*
D03*
X259000Y162100D02*
D03*
X163500Y35000D02*
D03*
X230672Y28972D02*
D03*
X192504Y55396D02*
D03*
X161200Y52600D02*
D03*
X109400Y62800D02*
D03*
X103100Y34800D02*
D03*
X188800Y187500D02*
D03*
X165600Y180100D02*
D03*
X162700Y102600D02*
D03*
X137199Y68501D02*
D03*
D80*
X187200Y91600D02*
D03*
X189117Y99083D02*
D03*
X383100Y151800D02*
D03*
X382800Y142400D02*
D03*
X382700Y136500D02*
D03*
X341500Y151000D02*
D03*
X326400Y151700D02*
D03*
X111100Y105600D02*
D03*
X359500Y150000D02*
D03*
X157600Y105400D02*
D03*
X157700Y108800D02*
D03*
X125100Y130800D02*
D03*
X133300Y124600D02*
D03*
X200700Y176600D02*
D03*
X203100Y259100D02*
D03*
X190450Y259150D02*
D03*
X341400Y85500D02*
D03*
X334500Y83100D02*
D03*
X37700Y197000D02*
D03*
X37900Y141700D02*
D03*
X31700Y167100D02*
D03*
Y129300D02*
D03*
X25300Y186400D02*
D03*
X24900Y160900D02*
D03*
X309400Y73600D02*
D03*
X333100Y73800D02*
D03*
X110500Y100000D02*
D03*
X309700Y68700D02*
D03*
X333800D02*
D03*
X311397Y136200D02*
D03*
X311400Y139700D02*
D03*
X211100Y61400D02*
D03*
X201800Y61300D02*
D03*
X358200Y111824D02*
D03*
X309600Y86400D02*
D03*
X307900Y95700D02*
D03*
X307800Y89500D02*
D03*
X307700Y99400D02*
D03*
X375000D02*
D03*
X363800Y113000D02*
D03*
X353700Y103100D02*
D03*
X354100Y94200D02*
D03*
X364600Y92900D02*
D03*
X373700Y94000D02*
D03*
X374000Y104200D02*
D03*
X372400Y112000D02*
D03*
X335400Y161500D02*
D03*
X112800Y103000D02*
D03*
X120552Y112252D02*
D03*
X304100Y88400D02*
D03*
X170200Y19500D02*
D03*
Y16400D02*
D03*
X104200Y24000D02*
D03*
X170300Y13100D02*
D03*
X236100Y40000D02*
D03*
X234400Y33500D02*
D03*
X234800Y42800D02*
D03*
X310000Y93000D02*
D03*
X238900Y43300D02*
D03*
X232400Y36800D02*
D03*
X194700Y177500D02*
D03*
Y159200D02*
D03*
X110700Y95900D02*
D03*
X112500Y93300D02*
D03*
X113700Y90400D02*
D03*
M02*
